<svg width="81" height="69" viewBox="0 0 81 69" fill="none" xmlns="http://www.w3.org/2000/svg">
<rect width="81" height="69" fill="white"/>
<path d="M16.5938 68V64.5938H19.2812C19.7604 64.5938 20.1979 64.5521 20.5938 64.4688C20.9896 64.3646 21.3333 64.1667 21.625 63.875C21.9167 63.5833 22.1458 63.1667 22.3125 62.625C22.4792 62.0833 22.5625 61.3542 22.5625 60.4375V29.875C22.5625 28.9583 22.4792 28.2292 22.3125 27.6875C22.1458 27.1458 21.9167 26.7292 21.625 26.4375C21.3333 26.1458 20.9896 25.9583 20.5938 25.875C20.1979 25.7708 19.7604 25.7188 19.2812 25.7188H16.5938V22.3125H38.6875V25.7188H36C35.5417 25.7188 35.1042 25.7708 34.6875 25.875C34.2917 25.9583 33.9479 26.1458 33.6562 26.4375C33.3646 26.7292 33.1354 27.1458 32.9688 27.6875C32.8021 28.2292 32.7188 28.9583 32.7188 29.875V60.4375C32.7188 61.3542 32.8021 62.0833 32.9688 62.625C33.1354 63.1667 33.3646 63.5833 33.6562 63.875C33.9479 64.1667 34.2917 64.3646 34.6875 64.4688C35.1042 64.5521 35.5417 64.5938 36 64.5938H38.6875V68H16.5938ZM42.2812 68V64.5938H44.9688C45.4479 64.5938 45.8854 64.5521 46.2812 64.4688C46.6771 64.3646 47.0208 64.1667 47.3125 63.875C47.6042 63.5833 47.8333 63.1667 48 62.625C48.1667 62.0833 48.25 61.3542 48.25 60.4375V29.875C48.25 28.9583 48.1667 28.2292 48 27.6875C47.8333 27.1458 47.6042 26.7292 47.3125 26.4375C47.0208 26.1458 46.6771 25.9583 46.2812 25.875C45.8854 25.7708 45.4479 25.7188 44.9688 25.7188H42.2812V22.3125H64.375V25.7188H61.6875C61.2292 25.7188 60.7917 25.7708 60.375 25.875C59.9792 25.9583 59.6354 26.1458 59.3438 26.4375C59.0521 26.7292 58.8229 27.1458 58.6562 27.6875C58.4896 28.2292 58.4062 28.9583 58.4062 29.875V60.4375C58.4062 61.3542 58.4896 62.0833 58.6562 62.625C58.8229 63.1667 59.0521 63.5833 59.3438 63.875C59.6354 64.1667 59.9792 64.3646 60.375 64.4688C60.7917 64.5521 61.2292 64.5938 61.6875 64.5938H64.375V68H42.2812Z" fill="#0A8DEC"/>
</svg>
