<svg width="81" height="69" viewBox="0 0 81 69" fill="none" xmlns="http://www.w3.org/2000/svg">
<rect width="81" height="69" fill="white"/>
<path d="M7.09375 68V64.5938H9.78125C10.2604 64.5938 10.6979 64.5521 11.0938 64.4688C11.4896 64.3646 11.8333 64.1667 12.125 63.875C12.4167 63.5833 12.6458 63.1667 12.8125 62.625C12.9792 62.0833 13.0625 61.3542 13.0625 60.4375V29.875C13.0625 28.9583 12.9792 28.2292 12.8125 27.6875C12.6458 27.1458 12.4167 26.7292 12.125 26.4375C11.8333 26.1458 11.4896 25.9583 11.0938 25.875C10.6979 25.7708 10.2604 25.7188 9.78125 25.7188H7.09375V22.3125H29.1875V25.7188H26.5C26.0417 25.7188 25.6042 25.7708 25.1875 25.875C24.7917 25.9583 24.4479 26.1458 24.1562 26.4375C23.8646 26.7292 23.6354 27.1458 23.4688 27.6875C23.3021 28.2292 23.2188 28.9583 23.2188 29.875V60.4375C23.2188 61.3542 23.3021 62.0833 23.4688 62.625C23.6354 63.1667 23.8646 63.5833 24.1562 63.875C24.4479 64.1667 24.7917 64.3646 25.1875 64.4688C25.6042 64.5521 26.0417 64.5938 26.5 64.5938H29.1875V68H7.09375ZM75.6875 25.6875H72.5938C72.3021 25.6875 72.0417 25.75 71.8125 25.875C71.5833 26 71.3542 26.2396 71.125 26.5938C70.8958 26.9271 70.6562 27.3958 70.4062 28C70.1562 28.6042 69.8646 29.3958 69.5312 30.375L56.4688 68H50.0625L36.4375 28.7812C36.2292 28.1771 35.9583 27.6771 35.625 27.2812C35.3125 26.8646 34.9688 26.5417 34.5938 26.3125C34.2396 26.0833 33.875 25.9271 33.5 25.8438C33.125 25.7396 32.7812 25.6875 32.4688 25.6875H31V22.3125H52.125V25.6875H49.1875C48.875 25.6875 48.5729 25.7292 48.2812 25.8125C47.9896 25.875 47.7188 25.9896 47.4688 26.1562C47.2396 26.3229 47.0521 26.5417 46.9062 26.8125C46.7604 27.0833 46.6875 27.4167 46.6875 27.8125C46.6875 28.2292 46.75 28.7083 46.875 29.25C47 29.7708 47.125 30.2083 47.25 30.5625L53.7812 50.2812C53.9479 50.7604 54.1146 51.3229 54.2812 51.9688C54.4688 52.6146 54.6458 53.2917 54.8125 54C54.9792 54.7083 55.125 55.4167 55.25 56.125C55.3958 56.8125 55.5 57.4479 55.5625 58.0312C55.625 57.6771 55.7292 57.1979 55.875 56.5938C56.0417 55.9688 56.2292 55.3021 56.4375 54.5938C56.6458 53.8646 56.8542 53.1458 57.0625 52.4375C57.2917 51.7083 57.5 51.0521 57.6875 50.4688L64.2812 31C64.3646 30.7708 64.4479 30.5208 64.5312 30.25C64.6354 29.9583 64.7188 29.6667 64.7812 29.375C64.8646 29.0833 64.9271 28.8021 64.9688 28.5312C65.0312 28.2604 65.0625 28.0417 65.0625 27.875C65.0625 27.1667 64.8229 26.625 64.3438 26.25C63.8854 25.875 63.2708 25.6875 62.5 25.6875H59.1562V22.3125H75.6875V25.6875Z" transform="translate(0 1)" fill="#0A8DEC"/>
</svg>
