<svg width="19" height="14" viewBox="0 0 19 14" fill="none" xmlns="http://www.w3.org/2000/svg">
<path d="M18.7177 6.33109L12.5496 0.27703C12.1733 -0.0923434 11.5629 -0.0923434 11.1866 0.27703C10.8102 0.646479 10.8102 1.24538 11.1866 1.61483L15.7094 6.05404L1.03636 6.3C0.504135 6.3 0 6.47761 0 7C0 7.52231 0.504127 7.7 1.03636 7.7L15.7094 7.94594L11.1868 12.3852C10.8104 12.7546 10.8104 13.3535 11.1868 13.723C11.3749 13.9075 11.6216 14 11.8683 14C12.1149 14 12.3616 13.9075 12.5498 13.723L18.7177 7.66889C19.0941 7.29944 19.0941 6.70054 18.7177 6.33109Z" fill="#EEEEEE"/>
</svg>
