<svg width="64" height="64" viewBox="0 0 64 64" fill="none" xmlns="http://www.w3.org/2000/svg">
<path d="M2.13393 0.365628C1.64643 -0.121876 0.853935 -0.121876 0.366562 0.365628C-0.122187 0.854382 -0.122187 1.64564 0.366562 2.13314C0.854061 2.6219 1.64656 2.6219 2.13393 2.13314C2.62256 1.64564 2.62256 0.854382 2.13393 0.365628Z" transform="translate(12.588 21.4275)" fill="#338CBE"/>
<path d="M31.6498 6.96643C32.2009 6.21992 32.4988 5.32054 32.4988 4.37491C32.4988 1.96264 30.5363 -6.10356e-08 28.1239 -6.10356e-08H6.87473C5.70561 -6.10356e-08 4.60699 0.455003 3.78112 1.28113C2.95487 2.10714 2.49987 3.20577 2.49987 4.37491C2.49987 5.34354 2.81687 6.2393 3.35174 6.96493C1.36137 8.01144 0 10.099 0 12.4996V13.7496C0 14.44 0.559749 14.9996 1.25 14.9996H33.7487C34.4389 14.9996 34.9987 14.44 34.9987 13.7496V12.4996C34.9987 10.1001 33.6387 8.01344 31.6498 6.96643ZM5.54874 3.04865C5.90261 2.69465 6.37361 2.49977 6.87473 2.49977H28.1239C29.1578 2.49977 29.9988 3.3409 29.9988 4.37466C29.9988 4.87591 29.8038 5.34679 29.4498 5.70079C29.0959 6.0548 28.6249 6.24967 28.1238 6.24967H6.87473C5.84086 6.24967 4.99986 5.40854 4.99986 4.37478C4.99986 3.87365 5.19474 3.40265 5.54874 3.04865ZM2.49987 12.4996C2.49987 10.432 4.18211 8.74969 6.24973 8.74969H6.87473H28.1239H28.7489C30.8165 8.74969 32.4988 10.432 32.4988 12.4996H2.49987Z" transform="translate(0 48.9987)" fill="#338CBE"/>
<path d="M62.8338 52.5158C62.4093 51.8579 61.9028 51.2761 61.3282 50.7866L55.4876 45.6925C55.4421 45.624 55.3894 45.559 55.329 45.4986C55.2275 45.3972 55.1125 45.3181 54.9902 45.2589L51.4581 42.1782L35.1094 27.9167C35.7787 27.2171 36.1472 26.3022 36.1472 25.3293C36.1472 24.3271 35.757 23.3852 35.0479 22.6762C34.7387 22.3673 34.3872 22.1244 34.0115 21.9465L35.524 20.434C35.9468 20.5464 36.3812 20.6039 36.8159 20.6039C38.096 20.6038 39.3763 20.1165 40.3508 19.142C41.2955 18.1974 41.8158 16.9418 41.8158 15.6064C41.8158 14.271 41.2955 13.0154 40.3509 12.0707L29.7449 1.46489C28.8003 0.520254 27.5446 0 26.2088 0C24.8737 0 23.6183 0.520254 22.6738 1.46489C21.3683 2.7704 20.9386 4.62404 21.3818 6.2918L6.29123 21.3824C5.87424 21.2715 5.44036 21.213 4.99711 21.213C3.66112 21.213 2.40599 21.7329 1.46212 22.6767C-0.487374 24.6262 -0.487374 27.7983 1.46212 29.748L12.068 40.3541C13.0428 41.3288 14.3232 41.8162 15.6036 41.8162C16.8841 41.8162 18.1645 41.3288 19.1393 40.3541C20.4448 39.0484 20.8746 37.1949 20.4313 35.5272L21.9407 34.0176C22.1221 34.3964 22.3682 34.7459 22.6739 35.0515C23.3822 35.7598 24.3238 36.1499 25.3258 36.1499C26.2977 36.1499 27.2122 35.782 27.9128 35.1135L45.326 55.1204C45.374 55.1954 45.43 55.2668 45.4955 55.3323C45.5179 55.3547 45.5416 55.3751 45.5653 55.3953L50.7541 61.3571C50.8831 61.5094 51.021 61.6591 51.1641 61.8022C52.5892 63.2269 54.4716 64 56.4479 64C56.7962 64 57.1479 63.976 57.5 63.9272C59.8536 63.6015 61.8877 62.1935 63.0805 60.0637C64.3871 57.7296 64.2898 54.7662 62.8338 52.5158ZM24.4417 3.23265C24.9141 2.76027 25.5418 2.50002 26.2089 2.50002C26.8769 2.50002 27.5051 2.76027 27.9773 3.23265L38.5833 13.8386C39.0557 14.311 39.3158 14.9389 39.3158 15.6065C39.3158 16.2741 39.0557 16.902 38.5832 17.3744C37.6088 18.349 36.023 18.349 35.0487 17.3744L24.4423 6.76793C24.4421 6.76768 24.4419 6.76755 24.4417 6.7673C23.4671 5.7928 23.4671 4.20716 24.4417 3.23265ZM17.3716 38.5863C16.3968 39.5611 14.8105 39.5612 13.8357 38.5863L3.22987 27.9803C2.25499 27.0055 2.25499 25.4194 3.22987 24.4444C3.70137 23.9728 4.32911 23.7131 4.99711 23.7131C5.66499 23.7131 6.29236 23.9727 6.76373 24.4439L17.3715 35.0518C18.3462 36.0262 18.3462 37.6119 17.3716 38.5863ZM22.6343 29.7887L19.1392 33.284L8.53223 22.6769L22.6738 8.53494L33.2807 19.142L29.7792 22.6437C29.7678 22.6544 29.7567 22.6649 29.7447 22.6768L22.6774 29.7442C22.6628 29.7586 22.6487 29.7736 22.6343 29.7887ZM27.0976 32.3964C27.0951 32.3989 27.0927 32.4013 27.0902 32.4038L26.2099 33.284C25.9738 33.52 25.6599 33.65 25.3257 33.65C24.9916 33.65 24.6776 33.52 24.4416 33.2839C24.2052 33.0476 24.0751 32.7334 24.0751 32.399C24.0751 32.0718 24.1999 31.7639 24.4266 31.5316L31.5267 24.4314C32.0133 23.9582 32.8 23.9641 33.2809 24.4444C33.5172 24.6807 33.6473 24.9949 33.6473 25.3293C33.6473 25.6635 33.5175 25.9768 33.2808 26.213L32.4057 27.0881C32.3997 27.094 32.3937 27.1 32.3878 27.106L27.0976 32.3964ZM29.6861 33.3433L33.3393 29.69L48.807 43.182L43.1628 48.8264L29.6861 33.3433ZM44.8079 50.7166L50.6953 44.8291L52.5836 46.4762L46.453 52.607L44.8079 50.7166ZM60.8993 58.8425C60.0926 60.2828 58.7287 61.2335 57.1574 61.451C55.5896 61.668 54.0492 61.1516 52.9315 60.0343C52.8354 59.9383 52.7434 59.8382 52.6576 59.7367C52.6536 59.732 52.6496 59.7272 52.6455 59.7226L48.098 54.4973L54.4719 48.1233L59.6906 52.6754C59.6945 52.6789 59.6985 52.6823 59.7026 52.6858C60.0932 53.0179 60.4398 53.4168 60.734 53.8725C61.6792 55.3332 61.7455 57.3307 60.8993 58.8425Z" transform="translate(0.00305176)" fill="#338CBE"/>
<path d="M7.43732 0.366097C6.94908 -0.122032 6.15783 -0.122032 5.66958 0.366097L0.366093 5.66964C-0.122031 6.15777 -0.122031 6.94927 0.366093 7.43728C0.610217 7.6814 0.930091 7.80341 1.24997 7.80341C1.56984 7.80341 1.88971 7.68128 2.13384 7.43728L7.43732 2.13374C7.92545 1.64573 7.92545 0.854351 7.43732 0.366097Z" transform="translate(16.1231 12.5884)" fill="#338CBE"/>
</svg>
