<svg width="69" height="59" viewBox="0 0 69 59" fill="none" xmlns="http://www.w3.org/2000/svg">
<path d="M16.64 28.2068L11.5497 5.70452L31.0852 9.07848C29.8684 8.09283 29.0897 6.59373 29.0897 4.91693C29.0897 3.58756 29.5917 2.31483 30.4706 1.33937C30.2867 1.14002 30.1194 0.927524 29.9684 0.705037H11.6416C11.3971 1.11373 11.0536 1.45653 10.6443 1.70234L10.2592 6.77847e-07H7.98125L7.60417 1.6668C7.2202 1.42377 6.89683 1.09448 6.66372 0.705037H0.840681V3.85502L6.87333 4.89694L1.60024 28.2068H0C0 33.2059 4.08331 37.2586 9.12012 37.2586C14.1569 37.2586 18.2401 33.2059 18.2401 28.2068H16.64ZM3.99286 28.2068L9.12012 5.54219L14.2472 28.2068H3.99286Z" transform="translate(0 7.52612)" fill="#338CBE"/>
<path d="M29.485 28.2068L24.2117 4.89694L30.2446 3.85502V0.705037H24.4213C24.1882 1.09448 23.865 1.42377 23.4809 1.6668L23.1038 6.77847e-07H20.8259L20.4408 1.70234C20.0316 1.45653 19.6879 1.11373 19.4435 0.705037H1.11668C0.965441 0.927709 0.798348 1.1402 0.614472 1.33937C1.49357 2.31483 1.99559 3.58756 1.99559 4.91693C1.99559 6.59373 1.21682 8.09283 -6.60169e-07 9.07848L19.5356 5.70452L14.4451 28.2068H12.845C12.845 33.2059 16.9283 37.2586 21.9649 37.2586C27.0021 37.2586 31.0851 33.2059 31.0851 28.2068H29.485ZM16.8379 28.2068L21.9649 5.54219L27.0924 28.2068H16.8379Z" transform="translate(37.9149 7.52612)" fill="#338CBE"/>
<path d="M21.3277 12.825L23.9633 7.59288L21.3277 2.3611L20.6467 6.55252e-07C20.0134 0.258582 19.3207 0.402217 18.5946 0.402217C17.8684 0.402217 17.1758 0.258582 16.5425 6.55252e-07L15.8614 2.3611L13.2258 7.59288L15.8614 12.825L14.1133 36.2645H1.70733e-07V41.5892H37.1891V36.2645H23.0757L21.3277 12.825Z" transform="translate(15.9054 17.4108)" fill="#338CBE"/>
<path d="M1.50718 8.0634L2.6427 8.85025L1.51427 9.64728C0.601233 10.2922 0.0559448 11.3372 0.0559448 12.443C0.0559448 14.3356 1.60714 15.8753 3.51415 15.8753C5.42098 15.8753 6.97236 14.3356 6.97236 12.443C6.97236 11.3372 6.42707 10.292 5.51403 9.64728L4.38523 8.85025L5.52112 8.0634C6.46493 7.40945 7.0283 6.33996 7.0283 5.20272C7.0283 3.97293 5.14628 1.6233 3.51415 0C1.88202 1.6233 1.09269e-06 3.97312 1.09269e-06 5.20272C1.09269e-06 6.33996 0.563377 7.40945 1.50718 8.0634Z" transform="translate(30.9859)" fill="#338CBE"/>
</svg>
