<svg width="48" height="59" viewBox="0 0 48 59" fill="none" xmlns="http://www.w3.org/2000/svg">
<path d="M46.1538 0H9.23077C4.14127 0 0 4.13588 0 9.21875V49.7812C0 54.8641 4.14127 59 9.23077 59H46.1538C47.1743 59 48 58.1745 48 57.1562V1.84375C48 0.825539 47.1743 0 46.1538 0ZM3.69231 49.7812C3.69231 46.7311 6.17665 44.25 9.23077 44.25V55.3125C6.17665 55.3125 3.69231 52.8314 3.69231 49.7812ZM44.3077 55.3125H12.9231V44.25H44.3077V55.3125ZM44.3077 40.5625H9.23077C7.15385 40.5625 5.23558 41.2513 3.69231 42.4107V9.21875C3.69231 6.16861 6.17665 3.6875 9.23077 3.6875H44.3077V40.5625Z" fill="#338CBE"/>
<path d="M5.53846 22.125H1.84615C0.825692 22.125 0 22.9505 0 23.9688C0 24.987 0.825692 25.8125 1.84615 25.8125H5.53846C8.59258 25.8125 11.0769 23.3314 11.0769 20.2812C11.0769 18.8595 10.522 17.5746 9.63646 16.5938C10.5222 15.6129 11.0769 14.328 11.0769 12.9062C11.0769 9.85611 8.59258 7.375 5.53846 7.375C4.51985 7.375 3.69231 6.54762 3.69231 5.53125C3.69231 4.51488 4.51985 3.6875 5.53846 3.6875H9.23077C10.2512 3.6875 11.0769 2.86196 11.0769 1.84375C11.0769 0.825539 10.2512 0 9.23077 0H5.53846C2.48435 0 0 2.48111 0 5.53125C0 6.95301 0.554884 8.23787 1.44046 9.21875C0.554884 10.1996 0 11.4845 0 12.9062C0 15.9564 2.48435 18.4375 5.53846 18.4375C6.55708 18.4375 7.38462 19.2649 7.38462 20.2812C7.38462 21.2976 6.55708 22.125 5.53846 22.125ZM3.69231 12.9062C3.69231 11.8899 4.51985 11.0625 5.53846 11.0625C6.55708 11.0625 7.38462 11.8899 7.38462 12.9062C7.38462 13.9226 6.55708 14.75 5.53846 14.75C4.51985 14.75 3.69231 13.9226 3.69231 12.9062Z" transform="translate(22.1538 9.21875)" fill="#338CBE"/>
</svg>
