<svg width="68" height="64" viewBox="0 0 68 64" fill="none" xmlns="http://www.w3.org/2000/svg">
<path d="M62.1253 30.2506V29.0114H64.5486C65.1569 29.0114 65.6501 28.5218 65.6501 27.918V24.3462H66.8985C67.5068 24.3462 68 23.8567 68 23.2528V19.754C68 19.3617 67.7882 18.9992 67.445 18.8046L34.5465 0.144C34.2078 -0.048 33.792 -0.048 33.4535 0.144L0.555015 18.8046C0.211784 18.9992 0 19.3615 0 19.754V23.2528C0 23.8567 0.493184 24.3462 1.10151 24.3462H2.34989V27.918C2.34989 28.5218 2.84308 29.0114 3.4514 29.0114H5.87473V30.2506C5.87473 31.1 6.34985 31.8408 7.04968 32.2267V52.4829H3.4514C2.84308 52.4829 2.34989 52.9725 2.34989 53.5763V57.1481H1.10151C0.493184 57.1481 0 57.6376 0 58.2415V62.9066C0 63.5105 0.493184 64 1.10151 64H66.8985C67.5068 64 68 63.5105 68 62.9066V58.2415C68 57.6376 67.5068 57.1481 66.8985 57.1481H65.6501V53.5763C65.6501 52.9725 65.1569 52.4829 64.5486 52.4829H60.9503V32.2267C61.6502 31.8408 62.1253 31.1 62.1253 30.2506ZM59.9222 30.2506C59.9222 30.2908 59.8893 30.3234 59.8488 30.3234H55.149C55.1085 30.3234 55.0756 30.2908 55.0756 30.2506V29.0114H59.9222V30.2506ZM49.2009 52.4829V32.2267C49.9007 31.8408 50.3758 31.1 50.3758 30.2506V29.0114H52.8726V30.2506C52.8726 31.1 53.3477 31.8408 54.0475 32.2267V52.4829H49.2009ZM44.5011 52.4829V32.5102H46.9978V52.4829H44.5011ZM37.4514 52.4829V32.2267C38.1512 31.8408 38.6264 31.1 38.6264 30.2506V29.0114H41.1231V30.2506C41.1231 31.1 41.5982 31.8408 42.2981 32.2267V52.4829H37.4514ZM32.7516 52.4829V32.5102H35.2484V52.4829H32.7516ZM25.7019 52.4829V32.2267C26.4018 31.8408 26.8769 31.1 26.8769 30.2506V29.0114H29.3736V30.2506C29.3736 31.1 29.8488 31.8408 30.5486 32.2267V52.4829H25.7019ZM21.0022 52.4829V32.5102H23.4989V52.4829H21.0022ZM13.9525 52.4829V32.2267C14.6523 31.8408 15.1274 31.1 15.1274 30.2506V29.0114H17.6242V30.2506C17.6242 31.1 18.0993 31.8408 18.7991 32.2267V52.4829H13.9525ZM24.6739 29.0114V30.2506C24.6739 30.2908 24.641 30.3234 24.6004 30.3234H19.9006C19.8601 30.3234 19.8272 30.2908 19.8272 30.2506V29.0114H24.6739ZM36.4233 29.0114V30.2506C36.4233 30.2908 36.3904 30.3234 36.3499 30.3234H31.6501C31.6096 30.3234 31.5767 30.2908 31.5767 30.2506V29.0114H36.4233ZM48.1728 29.0114V30.2506C48.1728 30.2908 48.1399 30.3234 48.0994 30.3234H43.3996C43.359 30.3234 43.3261 30.2908 43.3261 30.2506V29.0114H48.1728ZM2.20302 20.3884L34 2.35266L65.797 20.3884V22.1594H2.20302V20.3884ZM4.55292 24.3462H63.4471V26.8246H4.55292V24.3462ZM12.9244 29.0114V30.2506C12.9244 30.2908 12.8915 30.3234 12.851 30.3234H8.15119C8.11065 30.3234 8.07775 30.2908 8.07775 30.2506V29.0114H12.9244ZM9.2527 32.5102H11.7495V52.4829H9.2527V32.5102ZM65.797 61.8132H2.20302V59.3349H65.797V61.8132ZM63.4471 57.1481H4.55292V54.6697H63.4471V57.1481ZM56.2505 52.4829V32.5102H58.7473V52.4829H56.2505Z" fill="#338CBE"/>
</svg>
