<svg width="12" height="12" viewBox="0 0 12 12" fill="none" xmlns="http://www.w3.org/2000/svg">
<path d="M11.9856 5.6C11.7888 2.6048 9.3952 0.2104 6.4 0.0136V0H6H5.6V0.0136C2.6048 0.2104 0.2104 2.6048 0.0136 5.6H0V6V6.4H0.0136C0.2104 9.3952 2.6048 11.7888 5.6 11.9856V12H6H6.4V11.9856C9.3952 11.7888 11.7888 9.3952 11.9856 6.4H12V6V5.6H11.9856ZM3.756 1.308C3.3696 1.8216 3.0488 2.4656 2.8152 3.2H1.6168C2.1384 2.3864 2.8792 1.728 3.756 1.308ZM1.1984 4H2.6048C2.4976 4.5056 2.4296 5.0424 2.408 5.6H0.8152C0.8576 5.0368 0.9904 4.4984 1.1984 4ZM0.8152 6.4H2.408C2.4296 6.9576 2.4976 7.4944 2.6048 8H1.1984C0.9904 7.5016 0.8576 6.9632 0.8152 6.4ZM1.6168 8.8H2.8144C3.048 9.5344 3.3688 10.1784 3.756 10.692C2.8792 10.272 2.1384 9.6144 1.6168 8.8ZM5.6 11.1488C4.7776 10.9288 4.0696 10.0456 3.64 8.8H5.6V11.1488ZM5.6 8H3.4152C3.3024 7.5016 3.2312 6.9632 3.208 6.4H5.6V8ZM5.6 5.6H3.208C3.2312 5.0368 3.3024 4.4984 3.4152 4H5.6V5.6ZM5.6 3.2H3.64C4.0696 1.9544 4.7776 1.0712 5.6 0.852V3.2ZM10.3832 3.2H9.1864C8.952 2.4656 8.632 1.8216 8.244 1.308C9.12 1.728 9.8616 2.3864 10.3832 3.2ZM6.4 0.852C7.2216 1.0712 7.9304 1.9544 8.36 3.2H6.4V0.852ZM6.4 4H8.584C8.6976 4.4984 8.7672 5.0368 8.792 5.6H6.4V4ZM6.4 6.4H8.792C8.7688 6.9632 8.6976 7.5016 8.584 8H6.4V6.4ZM6.4 11.1488V8.8H8.36C7.9304 10.0456 7.2216 10.9288 6.4 11.1488ZM8.244 10.692C8.6304 10.1776 8.952 9.5344 9.1864 8.8H10.3832C9.8616 9.6144 9.12 10.272 8.244 10.692ZM10.8016 8H9.3952C9.5024 7.4944 9.5704 6.9576 9.592 6.4H11.184C11.1424 6.9632 11.0096 7.5016 10.8016 8ZM9.592 5.6C9.5704 5.0424 9.5024 4.5056 9.3952 4H10.8016C11.0096 4.4984 11.1424 5.0368 11.1848 5.6H9.592Z" fill="#030104"/>
</svg>
