<svg width="23" height="46" viewBox="0 0 23 46" fill="none" xmlns="http://www.w3.org/2000/svg">
<path d="M29.4375 68V64.5938H32.125C32.6042 64.5938 33.0417 64.5521 33.4375 64.4688C33.8333 64.3646 34.1771 64.1667 34.4688 63.875C34.7604 63.5833 34.9896 63.1667 35.1562 62.625C35.3229 62.0833 35.4062 61.3542 35.4062 60.4375V29.875C35.4062 28.9583 35.3229 28.2292 35.1562 27.6875C34.9896 27.1458 34.7604 26.7292 34.4688 26.4375C34.1771 26.1458 33.8333 25.9583 33.4375 25.875C33.0417 25.7708 32.6042 25.7188 32.125 25.7188H29.4375V22.3125H51.5312V25.7188H48.8438C48.3854 25.7188 47.9479 25.7708 47.5312 25.875C47.1354 25.9583 46.7917 26.1458 46.5 26.4375C46.2083 26.7292 45.9792 27.1458 45.8125 27.6875C45.6458 28.2292 45.5625 28.9583 45.5625 29.875V60.4375C45.5625 61.3542 45.6458 62.0833 45.8125 62.625C45.9792 63.1667 46.2083 63.5833 46.5 63.875C46.7917 64.1667 47.1354 64.3646 47.5312 64.4688C47.9479 64.5521 48.3854 64.5938 48.8438 64.5938H51.5312V68H29.4375Z" transform="translate(-29 -22)" fill="#0A8DEC"/>
</svg>
