<svg width="75" height="46" viewBox="0 0 75 46" fill="none" xmlns="http://www.w3.org/2000/svg">
<path d="M3.75 68V64.5938H6.4375C6.91667 64.5938 7.35417 64.5521 7.75 64.4688C8.14583 64.3646 8.48958 64.1667 8.78125 63.875C9.07292 63.5833 9.30208 63.1667 9.46875 62.625C9.63542 62.0833 9.71875 61.3542 9.71875 60.4375V29.875C9.71875 28.9583 9.63542 28.2292 9.46875 27.6875C9.30208 27.1458 9.07292 26.7292 8.78125 26.4375C8.48958 26.1458 8.14583 25.9583 7.75 25.875C7.35417 25.7708 6.91667 25.7188 6.4375 25.7188H3.75V22.3125H25.8438V25.7188H23.1562C22.6979 25.7188 22.2604 25.7708 21.8438 25.875C21.4479 25.9583 21.1042 26.1458 20.8125 26.4375C20.5208 26.7292 20.2917 27.1458 20.125 27.6875C19.9583 28.2292 19.875 28.9583 19.875 29.875V60.4375C19.875 61.3542 19.9583 62.0833 20.125 62.625C20.2917 63.1667 20.5208 63.5833 20.8125 63.875C21.1042 64.1667 21.4479 64.3646 21.8438 64.4688C22.2604 64.5521 22.6979 64.5938 23.1562 64.5938H25.8438V68H3.75ZM29.4375 68V64.5938H32.125C32.6042 64.5938 33.0417 64.5521 33.4375 64.4688C33.8333 64.3646 34.1771 64.1667 34.4688 63.875C34.7604 63.5833 34.9896 63.1667 35.1562 62.625C35.3229 62.0833 35.4062 61.3542 35.4062 60.4375V29.875C35.4062 28.9583 35.3229 28.2292 35.1562 27.6875C34.9896 27.1458 34.7604 26.7292 34.4688 26.4375C34.1771 26.1458 33.8333 25.9583 33.4375 25.875C33.0417 25.7708 32.6042 25.7188 32.125 25.7188H29.4375V22.3125H51.5312V25.7188H48.8438C48.3854 25.7188 47.9479 25.7708 47.5312 25.875C47.1354 25.9583 46.7917 26.1458 46.5 26.4375C46.2083 26.7292 45.9792 27.1458 45.8125 27.6875C45.6458 28.2292 45.5625 28.9583 45.5625 29.875V60.4375C45.5625 61.3542 45.6458 62.0833 45.8125 62.625C45.9792 63.1667 46.2083 63.5833 46.5 63.875C46.7917 64.1667 47.1354 64.3646 47.5312 64.4688C47.9479 64.5521 48.3854 64.5938 48.8438 64.5938H51.5312V68H29.4375ZM55.125 68V64.5938H57.8125C58.2917 64.5938 58.7292 64.5521 59.125 64.4688C59.5208 64.3646 59.8646 64.1667 60.1562 63.875C60.4479 63.5833 60.6771 63.1667 60.8438 62.625C61.0104 62.0833 61.0938 61.3542 61.0938 60.4375V29.875C61.0938 28.9583 61.0104 28.2292 60.8438 27.6875C60.6771 27.1458 60.4479 26.7292 60.1562 26.4375C59.8646 26.1458 59.5208 25.9583 59.125 25.875C58.7292 25.7708 58.2917 25.7188 57.8125 25.7188H55.125V22.3125H77.2188V25.7188H74.5312C74.0729 25.7188 73.6354 25.7708 73.2188 25.875C72.8229 25.9583 72.4792 26.1458 72.1875 26.4375C71.8958 26.7292 71.6667 27.1458 71.5 27.6875C71.3333 28.2292 71.25 28.9583 71.25 29.875V60.4375C71.25 61.3542 71.3333 62.0833 71.5 62.625C71.6667 63.1667 71.8958 63.5833 72.1875 63.875C72.4792 64.1667 72.8229 64.3646 73.2188 64.4688C73.6354 64.5521 74.0729 64.5938 74.5312 64.5938H77.2188V68H55.125Z" transform="translate(-3 -22)" fill="#0A8DEC"/>
</svg>
