<svg width="69" height="46" viewBox="0 0 69 46" fill="none" xmlns="http://www.w3.org/2000/svg">
<path d="M10.0938 68V64.5938H12.7812C13.2604 64.5938 13.6979 64.5521 14.0938 64.4688C14.4896 64.3646 14.8333 64.1667 15.125 63.875C15.4167 63.5833 15.6458 63.1667 15.8125 62.625C15.9792 62.0833 16.0625 61.3542 16.0625 60.4375V29.875C16.0625 28.9583 15.9792 28.2292 15.8125 27.6875C15.6458 27.1458 15.4167 26.7292 15.125 26.4375C14.8333 26.1458 14.4896 25.9583 14.0938 25.875C13.6979 25.7708 13.2604 25.7188 12.7812 25.7188H10.0938V22.3125H32.1875V25.7188H29.5C29.0417 25.7188 28.6042 25.7708 28.1875 25.875C27.7917 25.9583 27.4479 26.1458 27.1562 26.4375C26.8646 26.7292 26.6354 27.1458 26.4688 27.6875C26.3021 28.2292 26.2188 28.9583 26.2188 29.875V60.4375C26.2188 61.3542 26.3021 62.0833 26.4688 62.625C26.6354 63.1667 26.8646 63.5833 27.1562 63.875C27.4479 64.1667 27.7917 64.3646 28.1875 64.4688C28.6042 64.5521 29.0417 64.5938 29.5 64.5938H32.1875V68H10.0938ZM78.6875 25.6875H75.5938C75.3021 25.6875 75.0417 25.75 74.8125 25.875C74.5833 26 74.3542 26.2396 74.125 26.5938C73.8958 26.9271 73.6562 27.3958 73.4062 28C73.1562 28.6042 72.8646 29.3958 72.5312 30.375L59.4688 68H53.0625L39.4375 28.7812C39.2292 28.1771 38.9583 27.6771 38.625 27.2812C38.3125 26.8646 37.9688 26.5417 37.5938 26.3125C37.2396 26.0833 36.875 25.9271 36.5 25.8438C36.125 25.7396 35.7812 25.6875 35.4688 25.6875H34V22.3125H55.125V25.6875H52.1875C51.875 25.6875 51.5729 25.7292 51.2812 25.8125C50.9896 25.875 50.7188 25.9896 50.4688 26.1562C50.2396 26.3229 50.0521 26.5417 49.9062 26.8125C49.7604 27.0833 49.6875 27.4167 49.6875 27.8125C49.6875 28.2292 49.75 28.7083 49.875 29.25C50 29.7708 50.125 30.2083 50.25 30.5625L56.7812 50.2812C56.9479 50.7604 57.1146 51.3229 57.2812 51.9688C57.4688 52.6146 57.6458 53.2917 57.8125 54C57.9792 54.7083 58.125 55.4167 58.25 56.125C58.3958 56.8125 58.5 57.4479 58.5625 58.0312C58.625 57.6771 58.7292 57.1979 58.875 56.5938C59.0417 55.9688 59.2292 55.3021 59.4375 54.5938C59.6458 53.8646 59.8542 53.1458 60.0625 52.4375C60.2917 51.7083 60.5 51.0521 60.6875 50.4688L67.2812 31C67.3646 30.7708 67.4479 30.5208 67.5312 30.25C67.6354 29.9583 67.7188 29.6667 67.7812 29.375C67.8646 29.0833 67.9271 28.8021 67.9688 28.5312C68.0312 28.2604 68.0625 28.0417 68.0625 27.875C68.0625 27.1667 67.8229 26.625 67.3438 26.25C66.8854 25.875 66.2708 25.6875 65.5 25.6875H62.1562V22.3125H78.6875V25.6875Z" transform="translate(-10 -22)" fill="#0A8DEC"/>
</svg>
