<svg width="369" height="382" viewBox="0 0 369 382" fill="none" xmlns="http://www.w3.org/2000/svg">
<path d="M4.23518 34.7977C4.53681 35.1015 4.92634 35.3025 5.34845 35.372C5.77057 35.4416 6.20382 35.3762 6.58673 35.1851C7.04335 34.8309 7.37794 34.3425 7.54364 33.7883C9.09491 29.9592 9.67547 25.8049 9.2335 21.6963C9.17532 21.0006 9.0282 20.3153 8.79576 19.6572C8.27839 18.6055 7.63207 17.6225 6.87177 16.731C4.63219 13.6724 3.76691 9.8286 3.25792 5.98484L3.81781 4.04767C3.84878 3.8058 3.93781 3.57505 4.07729 3.37518C4.21676 3.17531 4.40252 3.01226 4.61867 2.90002C4.83481 2.78777 5.07491 2.72965 5.31838 2.73065C5.56185 2.73165 5.80144 2.79174 6.01666 2.90576C7.10591 3.07908 7.82869 2.49793 8.88739 2.20226C6.92605 1.07692 4.7714 0.329923 2.53515 7.77865e-07C1.51716 2.19206 2.53515 4.68999 2.8609 7.06558L3.03396 6.74951C3.29365 7.57814 3.33226 8.46042 3.14594 9.30862C1.5986 14.8347 3.34953 20.6768 6.38314 25.5503C3.53654 23.9799 1.41174 21.3619 0.458451 18.2502C-0.905652 23.0116 1.02852 28.038 2.93216 32.6158C3.20282 33.4294 3.64751 34.174 4.23518 34.7977Z" transform="translate(125.365 33.8495)" fill="#231F20"/>
<path d="M1.77606 10.9501C1.9714 7.28635 1.74596 3.61224 1.10419 0C-0.931787 1.43758 0.422137 6.41306 0.676634 8.53375C0.678576 8.99153 0.777594 9.44367 0.967129 9.86024C1.15666 10.2768 1.4324 10.6483 1.77606 10.9501Z" transform="translate(125.767 41.8021)" fill="#231F20"/>
<path d="M0.111975 12.316C2.24975 11.2964 3.00306 8.66595 4.18392 6.58604C5.82686 3.64946 8.53532 1.45889 11.7476 0.46866C11.3595 0.216281 10.9167 0.0605355 10.4563 0.0144212C9.99588 -0.0316931 9.53111 0.0331622 9.1008 0.203574C7.02594 0.781077 5.11824 1.84523 3.53564 3.30795C1.95304 4.77066 0.741059 6.58987 3.41732e-06 8.61498L0.437738 7.70756L0.111975 12.316Z" transform="translate(128.755 5.32245)" fill="#231F20"/>
<path d="M-4.34931e-06 0.591348C-4.34931e-06 0.397631 3.10968e-06 0.193716 0.0712622 -7.77865e-07L-4.34931e-06 0.591348Z" transform="translate(169.22 55.8721)" fill="#231F20"/>
<path d="M0.834751 0.581152L-6.2133e-06 6.22292e-07C0.870827 1.66514 2.03277 3.16038 3.43062 4.41471C4.40296 5.39578 5.61873 6.09963 6.95285 6.45384C9.11098 6.88206 11.2793 5.89308 13.2542 4.9245C11.0005 5.05518 8.74323 4.73877 6.61196 3.99341C4.48068 3.24806 2.51737 2.08845 0.834751 0.581152Z" transform="translate(187.717 87.5397)" fill="#231F20"/>
<path d="M-7.45596e-06 4.91748L0.712596 4.51986L4.03123 3.77558C7.08519 3.09247 10.3835 2.3074 12.5518 0.00318732C7.91993 -0.0783778 3.12521 1.39999 -7.45596e-06 4.91748Z" transform="translate(205.562 95.4586)" fill="#231F20"/>
<path d="M14.5105 3.73375e-06C14.0016 3.0587 13.2584 6.11738 12.4746 9.1149C11.4566 12.9281 10.0823 17.1083 6.63132 18.9945C7.77072 17.4411 8.47376 15.6104 8.66729 13.6927C7.06517 17.5337 4.03556 20.6009 0.218003 22.2469L0.0144012 21.7269C-0.0279074 22.014 0.0235769 22.3071 0.161167 22.5625C0.298757 22.8179 0.515082 23.0219 0.777892 23.1441C1.30688 23.3842 1.89007 23.4792 2.46775 23.4194C5.3672 23.3073 8.16879 22.3389 10.52 20.636C10.2076 22.0713 9.72571 23.4643 9.08467 24.7856C11.1206 24.0617 12.1386 21.7983 12.9734 19.7591L15.1722 14.1821L10.9985 18.0055C14.1771 12.5774 15.4158 6.22715 14.5105 3.73375e-06Z" transform="translate(127.55 111.296)" fill="#231F20"/>
<path d="M13.132 4.83273C14.2011 3.39109 14.9665 1.74692 15.3818 -6.22292e-07C12.623 3.40534 7.6858 3.89473 3.93961 6.11738C2.51554 7.03989 1.19473 8.11321 3.41732e-06 9.31881L0.427556 9.13529C2.7508 8.95826 5.05177 8.55881 7.29897 7.9424C9.50885 7.50994 11.5398 6.42724 13.132 4.83273Z" transform="translate(119.593 117.647)" fill="#231F20"/>
<path d="M0.295217 1.24458e-06C0.158445 0.156268 0.0576586 0.340747 0 0.540369L1.25213 0.122344L0.295217 1.24458e-06Z" transform="translate(126.23 70.829)" fill="#231F20"/>
<path d="M6.2133e-07 13.9069C0.831948 12.1814 2.08734 10.6954 3.64871 9.58813C5.21009 8.48081 7.02642 7.78829 8.92775 7.57536C8.49343 6.31995 7.65566 5.24424 6.54565 4.51667C5.39863 3.98523 4.28067 3.39305 3.19648 2.74263C2.78274 2.43081 2.46694 2.0067 2.28651 1.5206C2.10608 1.0345 2.0686 0.506787 2.17849 0L1.5677 0.20391L0.142518 3.78258C0.0282977 4.00184 -0.0144275 4.25144 0.0203569 4.49628C0.101796 4.80215 0.397018 4.99586 0.631155 5.20997C0.947366 5.50281 1.17301 5.8804 1.28128 6.29789C1.38955 6.71537 1.3759 7.15522 1.24195 7.56516C2.37509 7.20825 3.59031 7.20825 4.72346 7.56516C3.49838 8.18208 2.43368 9.0764 1.61378 10.1772C0.793884 11.278 0.241348 12.555 6.2133e-07 13.9069Z" transform="translate(124.052 71.3694)" fill="#231F20"/>
<path d="M0.682045 1.55993C0.458088 1.05015 0.223953 0.540369 -4.34931e-06 0C0.203593 0.530173 0.437728 1.01956 0.682045 1.55993Z" transform="translate(131.554 186.58)" fill="#231F20"/>
<path d="M4.08354 5.98485C2.9559 3.86872 1.62994 1.86475 0.123575 -3.73375e-06C-0.507577 3.91512 1.39606 8.77844 3.17754 12.2348C4.32786 14.539 5.75304 16.7106 6.83211 19.0556C9.75373 25.3973 10.4154 33.3295 15.994 37.5505C12.655 31.6167 12.3394 24.4899 10.1609 18.0361C8.5803 13.8089 6.54237 9.76777 4.08354 5.98485Z" transform="translate(120.447 189.221)" fill="#231F20"/>
<path d="M11.6403 21.156C15.529 24.9895 21.0058 26.6208 26.2484 28.1298C22.5106 26.627 19.0468 24.5151 15.9973 21.8798C13.9039 19.854 11.9897 17.6503 10.2762 15.2935C6.90669 10.9195 0.971829 5.71975 0.198159 6.22292e-07C-0.738389 4.07826 1.82694 7.89142 4.07669 11.0521L8.07737 16.6801C9.13819 18.269 10.33 19.7662 11.6403 21.156Z" transform="translate(132.191 197.908)" fill="#231F20"/>
<path d="M4.72827 87.5805C4.83006 89.691 5.166 92.0666 6.87622 93.3105C8.17509 94.0706 9.67078 94.4256 11.1721 94.33C13.2692 94.3912 15.5393 94.4014 17.28 93.1575C20.334 90.9553 19.7334 86.3774 18.7968 82.7682C15.2237 68.8919 10.6529 55.24 7.74151 41.221C4.77916 26.9471 6.13309 14.1006 6.25525 0C3.20128 4.02728 2.96715 9.93056 2.54977 14.7939L0.16768 42.9542C-0.107176 46.227 -0.290414 49.8261 1.69466 52.4362C2.53959 50.03 3.3947 47.634 4.23963 45.2278C7.88402 58.9002 4.06657 73.4086 4.72827 87.5805Z" transform="translate(102.466 268.145)" fill="#231F20"/>
<path d="M5.18155 12.1022L5.55821 -8.71209e-06L2.17466e-06 12.9688L1.1096 12.2755C1.75192 12.5779 2.45776 12.72 3.16684 12.6898C3.87591 12.6597 4.56716 12.458 5.18155 12.1022Z" transform="translate(80.1767 351.454)" fill="#231F20"/>
<path d="M7.37023 36.3984C7.89234 34.9331 8.23419 33.4095 8.38821 31.8614C9.88465 21.3089 10.8823 10.6137 9.99664 -4.97834e-06C9.14831 4.50647 8.31017 9.01295 7.48221 13.5194C7.00931 15.7061 6.73334 17.9309 6.65764 20.167C6.65764 23.8782 7.67563 27.8137 6.07739 31.1579C5.3648 32.626 4.20428 33.8291 3.43061 35.2361C1.64914 38.5293 2.11741 42.5056 2.13777 46.2474C2.17665 49.5587 1.83508 52.8634 1.11979 56.0964C0.739738 58.9988 0.366478 61.8977 2.17466e-06 64.7933C3.4408 60.1645 7.06483 54.8423 6.17918 49.143C5.80253 46.7368 4.62167 44.3918 4.98814 42.006C5.263 39.9873 6.60674 38.2948 7.37023 36.3984Z" transform="translate(88.066 282.032)" fill="#231F20"/>
<path d="M0 6.59658C0.639417 4.84878 1.16312 3.06067 1.5677 1.24387L1.7204 2.48917e-06L0 6.59658Z" transform="translate(87.5469 336.905)" fill="#231F20"/>
<path d="M4.77027 23.5621C3.75229 23.0625 2.85645 22.2775 1.77739 22.4202C0.392926 22.6037 -0.319666 24.3778 0.138429 25.7032C0.71459 26.9936 1.77527 28.0047 3.09059 28.5172C5.25891 29.5368 8.28233 29.8426 9.67697 27.8953C10.1147 27.2835 10.3285 26.529 10.7866 25.9377C12.2525 24.0413 15.2148 24.6734 17.4646 25.4993C18.1873 28.9454 14.5531 31.6167 12.9549 34.7365C11.204 38.1929 12.0489 42.526 14.1154 45.809C16.1819 49.092 19.2868 51.5695 22.3306 53.9655L28.7133 58.992L21.0988 46.5329C19.6227 44.1165 18.1466 40.9763 19.7347 38.6313C20.6101 40.0587 22.8904 39.9159 24.112 38.7842C25.2113 37.5186 25.9188 35.9598 26.148 34.2981C27.1931 29.9752 28.2383 25.6556 29.2834 21.3395C28.0408 25.7979 26.2237 30.0753 23.8779 34.0636C27.7055 23.7354 20.5185 12.2348 22.4934 1.43758L20.5593 5.60063e-06C18.3484 4.6114 17.2533 9.67958 17.3628 14.7939C17.4971 16.1422 17.4042 17.5036 17.0879 18.8211C16.9171 19.4761 16.5488 20.0625 16.0333 20.5003C15.5178 20.9382 14.8801 21.2063 14.207 21.2681C12.7207 21.2681 11.6417 19.9223 10.4099 19.076C9.17816 18.2298 6.94877 18.2808 6.74517 19.7693C6.59247 20.9317 7.96675 22.0022 7.56974 23.1135C7.17272 24.2248 5.73736 24.0617 4.77027 23.5621Z" transform="translate(65.2164 194.981)" fill="#231F20"/>
<path d="M2.79599e-06 3.87433C0.356298 2.59988 0.671872 1.30505 0.936549 4.97834e-06C0.620973 1.29485 0.315579 2.58968 2.79599e-06 3.87433Z" transform="translate(94.5405 212.457)" fill="#231F20"/>
<path d="M0.722767 -1.24458e-06L0.468271 0.2447C0.315573 0.438417 0.142516 0.611746 -2.48532e-06 0.805463L0.722767 -1.24458e-06Z" transform="translate(66.2302 143.024)" fill="#231F20"/>
<path d="M0.437734 0.0154785C0.292551 -0.00515951 0.145184 -0.00515951 -3.10665e-07 0.0154785H0.437734Z" transform="translate(98.307 153.939)" fill="#231F20"/>
<path d="M369 199.488L350.035 144.054C350.805 143.703 351.46 143.141 351.925 142.433C352.39 141.725 352.646 140.9 352.663 140.053C352.68 139.206 352.457 138.371 352.021 137.645C351.585 136.919 350.953 136.331 350.198 135.949H350.921L354.911 133.573L350.921 132.737H308.267V99.0914L308.715 99.224C309.143 99.3693 309.587 99.4617 310.038 99.4992C310.762 99.4815 311.467 99.2626 312.074 98.8671L312.156 98.9589C312.563 98.6326 312.98 98.3165 313.408 98.0209C315.181 96.8795 317.043 95.8839 318.976 95.0437C320.832 94.325 322.766 93.8255 324.738 93.5552C325.929 93.4022 327.425 93.1066 327.721 91.9239H327.283C327.615 91.5142 327.775 90.9916 327.731 90.4659L327.68 90.0275H327.252C326.367 90.0275 325.715 89.4259 324.931 88.6817C324.391 88.0996 323.754 87.6166 323.048 87.2543C322.072 86.8957 321.025 86.7768 319.994 86.9076H319.363C316.96 87.0096 314.477 87.1217 312.42 86.0308C304.175 81.6365 294.402 83.6144 287.663 86.0308C284.039 87.3358 280.537 88.9875 277.076 90.5882C273.017 92.59 268.835 94.3302 264.555 95.7982C258.803 97.7406 252.888 99.1601 246.882 100.04C246.849 99.7883 246.756 99.5487 246.61 99.3411C246.465 99.1335 246.272 98.9639 246.048 98.8467C245.673 98.682 245.263 98.6188 244.856 98.6632C243.662 98.7564 242.477 98.9474 241.314 99.2342C239.084 99.7133 236.977 100.172 235.104 99.2342C234.774 99.0664 234.455 98.8791 234.147 98.6734C233.933 98.5306 233.709 98.3879 233.486 98.2656C232.636 97.8019 231.747 97.4163 230.829 97.1135C226.855 95.6194 222.8 94.3497 218.684 93.3105C215.528 92.556 213.116 90.3741 210.54 88.0801C208.917 86.5172 207.14 85.1234 205.236 83.9203C203.905 83.1815 202.52 82.5441 201.093 82.0137H200.981C199.39 81.0612 197.729 80.2297 196.013 79.526L195.881 79.4342C195.165 78.8216 194.324 78.3728 193.418 78.119C189.559 77.232 185.569 76.3245 182.077 74.3568C181.483 74.0736 180.966 73.6503 180.571 73.1231C180.151 72.1812 180.061 71.125 180.316 70.1256C180.417 69.485 180.461 68.8368 180.448 68.1884C180.426 67.8691 180.378 67.5521 180.306 67.2402C180.348 66.9534 180.366 66.6634 180.357 66.3736C180.306 65.6531 180.078 64.9565 179.692 64.3461C179.307 63.7358 178.776 63.2308 178.148 62.8765C177.526 62.5653 176.87 62.3292 176.193 62.173L175.43 61.653C174.921 61.3268 174.412 61.0209 173.862 60.715C172.009 59.6955 170.269 58.6759 169.444 56.8713L169.393 56.7591C169.356 56.6789 169.316 56.6006 169.271 56.5246V56.6674C168.956 55.8635 168.821 55.0006 168.874 54.1388C168.579 54.6143 168.26 55.0737 167.917 55.5153C167.167 54.7855 166.644 53.8543 166.41 52.8338C166.218 52.0713 166.297 51.2655 166.633 50.5548C166.969 49.8441 167.542 49.2728 168.253 48.9391C168.416 48.9391 168.579 48.8575 168.752 48.8167C169.284 48.7419 169.785 48.5194 170.197 48.1744C170.248 48.1744 170.289 48.052 170.34 48.0011C170.62 47.9407 170.867 47.7769 171.032 47.5423C171.174 47.3033 171.242 47.0276 171.227 46.7499C171.213 46.4723 171.117 46.2052 170.951 45.9823C171.439 42.4167 171.091 38.7859 169.933 35.3789C169.851 35.1546 169.78 34.9201 169.698 34.6958C169.396 33.9065 169.168 33.0907 169.016 32.259C168.912 31.0083 168.98 29.7491 169.22 28.5172C169.551 26.9096 169.551 25.2513 169.22 23.6437C170.238 22.4508 169.841 20.585 169.037 19.3615C168.726 18.8821 168.386 18.4224 168.019 17.9851C167.471 17.3725 167.012 16.6861 166.655 15.946C166.313 14.9215 166.154 13.8446 166.186 12.7649C166.274 11.3532 165.978 9.94396 165.331 8.68668C164.953 8.132 164.504 7.62829 163.998 7.18793L163.682 6.88206C163.57 6.75971 163.458 6.62717 163.336 6.50482L163.061 6.20914C162.734 5.77787 162.448 5.31708 162.206 4.83273C161.874 4.19526 161.467 3.59971 160.995 3.05869C159.162 1.13172 156.241 1.1725 153.339 1.50895L141.816 2.814V2.71204C139.386 2.60731 136.954 2.8825 134.608 3.52769C133.398 3.8717 132.271 4.45973 131.296 5.25571C130.321 6.05168 129.519 7.03881 128.938 8.15651C128.826 8.40121 128.724 8.6561 128.623 8.92118C128.462 9.37856 128.25 9.81634 127.992 10.2262C127.599 10.7322 127.132 11.1756 126.607 11.5415C126.393 11.6944 126.19 11.8575 125.986 12.0309C124.693 13.1218 123.095 14.4778 122.932 16.5679C122.688 20.8297 122.291 25.1424 121.741 29.3634C121.644 30.4191 121.436 31.4614 121.12 32.4731C120.937 33.0874 120.872 33.7308 120.927 34.3695C120.98 34.8972 120.932 35.4302 120.784 35.9396C120.523 36.9695 120.481 38.043 120.662 39.0901C120.735 39.6408 120.766 40.1965 120.754 40.752C120.754 41.8939 120.631 43.0358 120.57 44.1573C120.255 49.1736 119.97 53.9247 121.242 58.9104C122.171 62.479 124.091 65.7104 126.78 68.2292C126.963 68.4025 127.187 68.6166 127.208 68.79C127.228 68.9633 126.923 69.2896 126.648 69.4935C125.026 70.9179 123.16 72.037 121.14 72.7969C120.55 72.9804 119.939 73.0925 119.298 73.2251C118.657 73.3576 118.178 73.4392 117.628 73.5921C116.093 74.0755 114.618 74.7323 113.231 75.5497C112.246 76.1167 111.226 76.6207 110.177 77.0586C107.666 78.0314 105.415 79.5739 103.601 81.5651C102.283 83.1377 101.136 84.8466 100.18 86.6629C98.0016 90.5067 95.7417 94.483 94.4794 98.8365C94.062 100.274 93.7566 101.763 93.4614 103.2C93.096 105.2 92.5822 107.17 91.9242 109.093C91.3033 110.776 89.5116 114.65 85.9079 115.975L8.80559 3.05869L8.71397 2.92615L0 0V10.1956L77.6215 125.06C76.2603 125.515 75.0682 126.372 74.2011 127.517C73.7562 128.022 73.2765 128.496 72.7657 128.934C72.3262 129.27 71.8673 129.58 71.3914 129.862C71.086 130.056 70.7705 130.249 70.4753 130.453C68.8067 131.671 67.5352 133.356 66.8207 135.296L63.4308 143.983C62.311 146.858 61.0283 150.1 61.1199 153.485C61.181 155.993 62.2092 157.89 63.8583 158.583L64.2248 158.705C64.4378 158.766 64.6403 158.859 64.8254 158.981C65.1853 159.355 65.4079 159.84 65.4566 160.357C65.4566 160.51 65.5278 160.663 65.5686 160.816C66.2404 163.263 68.3782 164.792 70.8519 165.975C72.3178 168.534 76.7461 172.694 79.8916 169.839C80.3904 170.053 80.9096 170.267 81.3677 170.461C79.7491 173.326 78.3138 176.313 76.8784 179.372C72.8064 187.946 68.8668 196.704 65.0799 205.422C63.0439 210.183 61.405 215.159 63.6955 219.278L64.5098 218.829C62.423 215.057 63.9601 210.336 65.935 205.799C69.7118 197.092 73.6819 188.334 77.7233 179.77C79.2299 176.568 80.7773 173.448 82.4468 170.471L82.7115 170.002L82.2126 169.798C81.6528 169.574 81.103 169.329 80.5431 169.095C82.0294 166.658 79.3725 162.977 80.8689 160.204C82.3653 157.431 86.9768 158.685 89.4709 156.738C90.2373 155.984 90.92 155.15 91.5069 154.25C92.7986 152.697 94.6055 151.662 96.5968 151.334C96.4354 150.733 96.2172 150.15 95.9453 149.59C96.1942 149.373 96.3716 149.085 96.4543 148.765C96.5023 148.262 96.4506 147.754 96.3021 147.271C96.1536 146.788 95.9113 146.339 95.589 145.951C94.9383 145.173 94.5124 144.231 94.3572 143.228C94.2962 141.587 95.7722 140.374 96.9531 139.242C97.7732 138.501 98.3306 137.514 98.5412 136.428C99.7322 137.641 100.852 139.048 100.811 140.71C100.681 141.649 100.491 142.579 100.241 143.493C100.124 143.955 100.149 144.442 100.312 144.889C100.476 145.337 100.77 145.725 101.157 146.002C102.063 146.471 103.336 146.002 104.099 146.634C104.28 146.832 104.419 147.063 104.51 147.315C104.601 147.567 104.641 147.834 104.629 148.102C104.597 149.651 103.966 151.127 102.868 152.219C101.77 153.311 100.292 153.933 98.7448 153.954C99.1531 154.063 99.5318 154.262 99.8525 154.537C100.173 154.813 100.428 155.157 100.597 155.545C101.045 156.432 101.218 157.441 101.615 158.328C103.041 161.224 106.777 162.162 108.741 164.69C109.196 165.293 109.585 165.942 109.902 166.627C105.251 163.315 100.094 160.781 94.6321 159.123C93.7159 159.786 94.5201 161.234 95.4566 161.856C96.3932 162.478 97.6148 163.212 97.4926 164.333C96.5881 163.739 95.5335 163.415 94.452 163.399C93.3704 163.383 92.3066 163.675 91.3847 164.242C91.8581 164.401 92.2883 164.668 92.6415 165.022C92.9947 165.376 93.2614 165.806 93.4207 166.281C92.0964 166.868 90.9411 167.779 90.0613 168.932C89.7865 169.299 89.5218 169.778 89.7254 170.186C89.929 170.593 90.5398 170.685 91.0182 170.644C92.5138 170.432 93.9607 169.959 95.2938 169.248C94.5062 169.813 93.7886 170.47 93.156 171.205C92.6001 172.088 91.806 172.795 90.8655 173.244C90.2722 173.359 89.6666 173.396 89.0637 173.356C87.8751 173.457 86.7245 173.825 85.6984 174.434C84.6723 175.044 83.7973 175.878 83.139 176.874C81.8347 178.877 80.8587 181.077 80.2479 183.389C79.2299 186.448 78.3341 189.833 79.515 192.82C81.3949 187.6 83.2747 182.376 85.1546 177.149C86.3916 179.223 86.8534 181.669 86.4576 184.052L89.0637 178.179C89.3623 181.197 89.6507 184.215 89.929 187.233C92.3741 180.635 95.4134 174.274 99.0094 168.228L101.045 168.299L100.251 167.412C100.676 167.348 101.105 167.324 101.534 167.341C102.581 167.391 103.598 167.707 104.488 168.26C105.379 168.813 106.114 169.585 106.624 170.502C107.214 171.582 107.459 172.836 108.059 173.907C108.32 174.469 108.744 174.938 109.277 175.253C109.809 175.568 110.425 175.714 111.042 175.671C111.468 175.556 111.876 175.381 112.253 175.151C113.628 174.454 115.164 174.137 116.702 174.233C117.714 174.373 118.734 174.444 119.756 174.447C120.258 174.441 120.749 174.3 121.177 174.038C121.605 173.776 121.955 173.403 122.189 172.959C122.576 172.031 121.863 170.726 120.866 170.838L119.848 171.858C118.869 171.942 117.884 171.788 116.977 171.409C117.307 171.149 117.549 170.793 117.669 170.39C117.975 169.176 117.16 167.973 116.926 166.739C116.877 166.367 116.916 165.989 117.04 165.635C117.164 165.281 117.369 164.961 117.639 164.7C121.628 170.567 127.159 175.214 133.621 178.128C139.902 181.071 146.537 183.188 153.36 184.429C153.235 184.534 153.135 184.665 153.067 184.813C152.998 184.961 152.963 185.122 152.963 185.285L154.123 184.572L154.571 184.653C154.785 190.22 159.264 194.676 163.733 198.101C168.202 201.527 173.343 205.106 175.145 210.53C175.709 212.369 175.977 214.286 175.939 216.209C175.46 215.984 174.921 215.791 174.493 215.607C166.166 212.548 157.605 209.836 149.838 205.493C142.569 201.415 135.922 195.695 132.359 188.161C134.496 193.024 136.532 197.449 139.963 201.629C139.566 201.211 139.261 202.23 139.576 202.71C142.498 207.318 147.486 210.224 152.576 212.171C157.666 214.119 162.878 215.271 167.968 217.402C170.624 218.555 173.184 219.919 175.623 221.48C175.202 228.978 175.301 236.497 175.918 243.982C170.556 242.046 165.432 239.501 160.649 236.396C163.958 240.791 168.035 244.549 172.681 247.489C173.872 248.102 174.915 248.968 175.735 250.028C177.832 253.331 174.605 257.409 174.167 261.304C173.882 263.945 174.921 266.514 175.939 268.961C176.682 270.725 172.702 271.755 170.849 271.561C166.685 271.143 163.143 268.502 159.834 265.902L135.402 246.918L150.672 263.853C157.798 271.734 165.291 280.564 165.647 291.177C159.452 283.344 152.522 276.123 144.951 269.613L153.594 285.712C155.111 288.516 156.648 291.83 155.345 294.756C151.044 291.642 146.963 288.236 143.129 284.56C145.033 295.949 153.533 304.952 161.636 313.108L157.656 310.161C160.897 314.551 163.674 319.267 165.942 324.232C158.144 315.293 150.713 306.049 143.648 296.499C144.741 303.913 147.206 311.056 150.917 317.564C148.867 316.632 146.681 316.04 144.442 315.81C145.633 318.287 146.824 320.775 148.026 323.253C146.868 323.656 145.622 323.737 144.422 323.487C131.59 308.896 121.483 292.112 114.585 273.936L114.045 272.224C115.409 288.73 124.632 303.341 132.369 318.002C132.918 318.804 133.147 319.782 133.01 320.745C132.746 321.672 131.351 322.223 130.801 321.428C132.493 325.822 133.641 330.406 134.222 335.08C130.33 329.971 125.949 325.255 121.14 320.999C128.593 333.379 134.521 346.618 138.792 360.426C139.006 361.484 139.531 362.453 140.299 363.209C141.144 363.862 142.64 363.77 143.027 362.771L142.63 346.244C142.477 339.759 142.518 332.684 146.183 327.464C147.374 328.565 148.657 329.584 149.919 330.604C150.825 331.338 151.711 332.092 152.596 332.857C151.782 334.203 151.629 336.66 151.476 338.811C151.094 345.302 149.6 351.679 147.058 357.663C149.695 356.446 151.995 354.603 153.759 352.293C155.522 349.983 156.696 347.276 157.177 344.409C158.054 350.78 159.384 357.079 161.158 363.26C161.246 363.651 161.401 364.023 161.616 364.362L161.667 364.413H93.2171C94.4671 363.142 95.5359 361.704 96.3932 360.141C98.1136 357.276 99.8849 354.237 99.9663 350.893C99.9663 348.732 99.3352 346.58 99.4675 344.419C99.61 341.911 100.821 339.586 101.229 337.098C101.819 333.265 100.872 325.363 98.643 322.651C97.9711 326.352 98.4801 330.604 98.531 334.417C98.6383 335.879 98.4584 337.347 98.0016 338.74C97.3284 340.016 96.5305 341.221 95.6195 342.339C95.1699 342.905 94.8623 343.571 94.7224 344.28C94.5825 344.99 94.6143 345.723 94.8153 346.417C95.1309 347.161 95.7621 347.732 96.1082 348.456C96.5205 349.619 96.5526 350.883 96.1998 352.066C95.331 356.4 93.785 360.57 91.6188 364.423H76.8275C78.6904 359.61 80.6653 354.227 80.594 348.711C80.594 347.977 80.594 347.233 80.4922 346.499C80.3497 345.072 80.3497 343.634 80.4922 342.206C80.7844 340.599 81.2556 339.029 81.8971 337.527C82.0905 337.017 82.2941 336.507 82.4773 335.987C84.269 330.889 84.8492 325.465 85.4091 320.174C86.1014 313.648 86.8139 306.919 89.8577 301.087C90.109 300.54 90.2475 299.947 90.2649 299.344C90.2721 298.834 90.3939 298.332 90.6212 297.876C93.5327 293.196 93.6752 287.395 93.2883 281.838L93.2374 281.145C93.0746 279.293 93.0542 277.432 93.1764 275.578C93.3674 274.001 93.6564 272.439 94.0416 270.898L96.0064 262.405C96.0878 262.782 96.1591 263.17 96.2609 263.557L97.0956 260.274C99.2266 264.393 101.358 268.512 103.489 272.631C104.595 269.17 105.122 265.549 105.046 261.916C105.119 262.055 105.221 262.176 105.346 262.271C105.471 262.367 105.615 262.434 105.768 262.468C105.921 262.502 106.079 262.502 106.233 262.468C106.386 262.434 106.53 262.368 106.655 262.273C106.912 261.953 107.09 261.576 107.173 261.173C107.256 260.771 107.242 260.354 107.133 259.958C106.835 257.776 106.211 255.652 105.28 253.657C108.856 257.355 111.883 261.547 114.269 266.106C113.526 259.153 112.732 252.036 109.658 245.715C108.385 243.105 106.726 240.688 105.647 237.987C103.519 232.644 103.855 226.598 105.575 221.092C106.398 226.638 107.864 232.068 109.943 237.273C110.879 239.618 112.762 242.371 115.195 241.728C113.234 236.546 112.2 231.059 112.141 225.517L118.646 225.273C114.015 209.143 109.485 191.933 104.822 175.803C105.921 189.461 105.617 203.195 103.916 216.79C103.779 218.909 103.247 220.984 102.348 222.907C101.707 224.11 100.791 225.15 100.129 226.333C99.321 227.98 98.7519 229.735 98.4394 231.543C96.3118 241.035 94.2045 250.915 95.701 260.417H95.5788L93.1458 270.694C92.7394 272.272 92.4435 273.877 92.2602 275.496C92.1276 277.398 92.148 279.307 92.3213 281.206V281.889C92.647 287.303 92.5656 292.921 89.7966 297.386C89.4892 297.965 89.3219 298.607 89.308 299.262C89.2945 299.74 89.1909 300.21 89.0026 300.649C85.8672 306.634 85.1444 313.465 84.4522 320.082C83.8923 325.312 83.3223 330.716 81.5611 335.671C81.3779 336.181 81.1845 336.691 80.9911 337.19C79.6124 340.107 79.1 343.36 79.515 346.56C79.515 347.284 79.6066 348.008 79.6168 348.732C79.688 354.186 77.6521 359.6 75.779 364.423H64.3266V382H215.589V364.423H165.576L165.118 353.677C165.064 353.301 165.143 352.919 165.341 352.596C165.861 351.974 166.868 352.514 167.449 353.075C169.838 355.366 171.934 357.945 173.689 360.752C174.605 362.22 176.224 363.984 177.7 363.087C177.933 362.931 178.129 362.727 178.275 362.487C178.421 362.248 178.513 361.979 178.545 361.7C181.721 363.852 186.047 362.567 189.743 363.475C187.514 356.962 187.4 349.91 189.417 343.328C190.211 340.769 191.341 338.169 190.974 335.518C190.72 333.652 189.743 331.939 189.508 330.063C189.405 328.328 189.595 326.587 190.068 324.915C193.008 310.905 191.645 296.332 186.159 283.112C183.268 276.2 184.632 268.461 184.632 260.968C184.632 252.811 185.202 244.838 185.793 236.722C185.963 232.915 185.789 229.1 185.274 225.324C185.182 224.437 185.08 223.55 184.978 222.673C185.152 222.846 185.304 223.03 185.487 223.203C186.885 220.076 188.273 216.946 189.651 213.813C190.974 214.404 191.982 212.518 192.227 211.09C192.725 208.154 193.245 205.208 193.733 202.271C194.253 202.239 194.76 202.099 195.222 201.861C195.685 201.622 196.093 201.29 196.421 200.885C196.831 200.433 197.122 199.886 197.266 199.293C197.41 198.699 197.403 198.079 197.245 197.49C196.967 196.743 196.556 196.052 196.034 195.45C195.728 195.073 195.443 194.696 195.158 194.319C193.897 192.523 192.409 190.898 190.73 189.486L190.628 189.394H190.486C190.178 189.33 189.895 189.181 189.667 188.965C189.439 188.749 189.275 188.474 189.193 188.171L189.447 188.354C189.324 188.185 189.211 188.008 189.111 187.824C188.995 187.112 188.995 186.385 189.111 185.673C189.335 183.827 189.671 181.941 190.954 180.891C191.137 180.748 191.341 180.616 191.534 180.483C191.943 180.244 192.314 179.945 192.634 179.596C193.591 178.444 193.489 176.609 192.339 174.692C191.212 172.81 189.686 171.199 187.87 169.971C187.147 169.482 186.383 169.054 185.65 168.646C184.738 168.172 183.86 167.634 183.024 167.035C182.349 166.515 181.767 165.884 181.304 165.169C181.375 161.805 181.11 158.44 181.13 155.076C181.141 150.885 182.12 146.753 183.991 143.004C183.798 137.315 184.113 131.626 184.429 125.937C184.541 123.897 184.683 121.767 185.823 120.074C186.485 119.197 187.334 118.48 188.308 117.973C189.282 117.467 190.356 117.185 191.453 117.148C193.645 117.1 195.825 117.488 197.866 118.29C203.027 120.094 207.221 123.275 211.813 126.242C214.143 127.907 216.562 129.442 219.061 130.841C219.621 131.116 220.201 131.371 220.791 131.595C222.318 132.629 223.983 133.439 225.739 134.001C226.875 134.332 228.031 134.591 229.2 134.776L230.075 134.939C232.146 135.791 234.046 137.01 235.684 138.538C237.344 140.088 238.901 142.046 241.141 142.443C244.297 143.014 247.045 140.2 248.542 137.345C250.64 133.37 251.615 128.897 251.361 124.407H251.565C254.846 123.423 257.962 121.952 260.808 120.043C271.212 113.794 281.636 107.533 291.47 100.427C292.005 99.9933 292.607 99.649 293.252 99.4075C294.098 99.1998 294.977 99.1652 295.837 99.3055L300.204 99.7337L302.617 100.937L302.851 100.672C303.075 100.442 303.317 100.231 303.574 100.04L305.355 100.213C304.887 100.07 304.429 99.9173 303.971 99.7541C304.595 99.373 305.286 99.1136 306.007 98.9894V132.727H264.88L258.569 134.348L264.86 135.949H267.914C267.145 136.327 266.501 136.917 266.056 137.65C265.612 138.383 265.386 139.228 265.405 140.085C265.424 140.943 265.688 141.777 266.165 142.489C266.642 143.201 267.312 143.762 268.097 144.105L250.109 197.897H250.313C249.847 198.369 249.575 198.998 249.549 199.661C249.549 203.281 258.711 206.207 269.97 206.207C281.229 206.207 290.391 203.281 290.391 199.661L290.829 199.508L271.864 144.075C272.634 143.723 273.289 143.161 273.754 142.453C274.219 141.745 274.474 140.92 274.491 140.073C274.508 139.226 274.286 138.391 273.85 137.665C273.414 136.939 272.782 136.351 272.027 135.969H306.007V152.935H308.267V135.908H346.116C345.347 136.286 344.702 136.876 344.258 137.609C343.813 138.342 343.587 139.187 343.607 140.045C343.626 140.902 343.89 141.736 344.367 142.448C344.844 143.161 345.514 143.721 346.299 144.064L328.311 197.857H328.515C328.053 198.331 327.781 198.959 327.751 199.62C327.751 203.24 336.913 206.166 348.172 206.166C359.431 206.166 368.593 203.24 368.593 199.62L369 199.488ZM179.766 73.6227C180.237 74.2861 180.867 74.8193 181.599 75.1724C182.905 75.8841 184.267 76.4877 185.671 76.9771C184.897 76.9057 184.123 76.8547 183.35 76.8343C179.603 76.7426 175.593 74.8972 172.009 75.9677C172.145 74.6165 172.746 73.3547 173.709 72.3992C175.084 71.2165 177.13 71.1554 178.606 70.095C178.952 69.8402 179.257 69.5342 179.512 69.1876C179.512 69.4595 179.481 69.7348 179.42 70.0135C179.103 71.2195 179.226 72.4992 179.766 73.6227ZM168.548 47.9195L167.968 48.0724C167.024 48.4564 166.248 49.1661 165.782 50.0731C165.315 50.9801 165.188 52.0245 165.423 53.0173C165.697 54.231 166.315 55.3394 167.204 56.2086C166.961 56.4434 166.691 56.6488 166.4 56.8203C165.888 57.1427 165.277 57.2715 164.678 57.1837C164.079 57.0958 163.531 56.7971 163.132 56.3411C162.73 55.5742 162.608 54.6908 162.786 53.8432L163.611 45.4624C163.604 44.9287 163.776 44.4082 164.1 43.984C164.822 43.2193 166.135 43.7393 166.787 44.5753C167.439 45.4114 167.673 46.4921 168.345 47.2976C168.535 47.5177 168.766 47.6979 169.027 47.8277C168.869 47.8689 168.709 47.8996 168.548 47.9195ZM0.936548 1.34582L90.7027 134.368C89.0841 135.388 88.1679 137.641 89.1655 139.262C89.5837 139.76 89.9267 140.316 90.1835 140.914C90.1982 141.039 90.1982 141.166 90.1835 141.291L89.9188 141.689L0.936548 9.85918V1.34582ZM88.4834 153.322C88.178 154.076 87.8218 154.953 87.0481 155.167C86.4524 155.214 85.8544 155.113 85.3073 154.872C84.2643 154.679 83.1875 154.804 82.2164 155.231C81.2453 155.658 80.4247 156.368 79.8611 157.268C78.7659 159.096 78.1724 161.182 78.1407 163.314L73.916 158.889C73.4442 158.443 73.0487 157.923 72.7454 157.349C72.5217 156.816 72.3975 156.245 72.3789 155.667C72.287 153.285 72.9671 150.938 74.3175 148.975C75.668 147.012 77.6163 145.54 79.8713 144.778C75.1784 144.442 70.7094 147.929 69.1417 152.364C67.8681 156.394 68.234 160.765 70.1597 164.527C69.316 164.142 68.5585 163.59 67.9323 162.905C67.3062 162.22 66.8242 161.416 66.5153 160.541C66.5153 160.398 66.444 160.255 66.4033 160.112C66.315 159.368 65.9519 158.685 65.3853 158.196C65.1192 158.016 64.8275 157.879 64.52 157.788L64.2146 157.676C62.6775 157.064 62.0972 155.096 62.0565 153.455C61.9751 150.274 63.2068 147.103 64.3062 144.278V144.126C64.2757 144.417 64.2757 144.711 64.3062 145.002C65.1515 144.497 65.9399 143.903 66.6578 143.228C66.976 142.836 67.3158 142.461 67.6758 142.107L66.8818 142.984C67.2075 142.668 67.5129 142.331 67.8081 141.964C68.8481 140.978 70.0368 140.163 71.3304 139.548C70.2131 139.211 69.0175 139.241 67.9185 139.634C66.8195 140.026 65.8748 140.761 65.2224 141.73L67.6249 135.612C68.2743 133.846 69.4285 132.311 70.9435 131.197C71.2286 130.994 71.5238 130.81 71.8292 130.627C72.3377 130.316 72.8272 129.976 73.2951 129.607C73.8363 129.141 74.3464 128.641 74.8221 128.108C75.84 127.089 76.7155 126.069 77.9778 125.865V125.549L89.8475 143.126C89.686 144.107 89.8038 145.112 90.1873 146.029C90.5709 146.945 91.2046 147.734 92.0159 148.306L91.5781 148.703C90.234 150.01 89.1765 151.583 88.4733 153.322H88.4834ZM240.398 133.257C240.245 134.766 239.074 136.316 237.557 136.316C236.837 136.235 236.142 135.998 235.522 135.622C234.034 134.915 232.448 134.434 230.818 134.195L229.332 133.92C228.203 133.732 227.085 133.484 225.983 133.175C225.413 132.992 224.853 132.778 224.313 132.543C225.33 132.666 226.36 132.635 227.367 132.452C228.787 132.232 230.113 131.606 231.186 130.649C232.259 129.692 233.033 128.445 233.414 127.058C231.183 128.476 228.659 129.368 226.034 129.668C223.385 129.953 220.727 129.225 218.592 127.629C218.489 127.565 218.399 127.48 218.329 127.38C218.259 127.281 218.21 127.167 218.185 127.048C218.185 126.671 218.562 126.416 218.918 126.273C220.842 125.529 222.99 125.498 224.955 124.937C227.303 124.245 229.389 122.862 230.943 120.967C232.496 119.073 233.446 116.755 233.669 114.313C233.732 111.903 233.43 109.496 232.773 107.177C232.549 106.157 232.691 105.005 232.478 104.036C229.209 108.328 224.773 111.584 219.703 113.414C214.633 115.244 209.143 115.57 203.893 114.354C209.61 110.16 214.337 104.758 217.737 98.5306C212.906 102.498 206.968 104.873 200.737 105.331C201.358 103.353 201.989 101.375 202.61 99.3973C202.732 98.9894 202.834 98.4797 202.518 98.2044C202.203 97.9291 201.816 98.3675 201.887 98.5918C200.075 99.1526 198.558 100.519 196.879 101.477C194.995 102.497 192.277 102.915 190.944 101.212C190.371 100.286 190.023 99.2385 189.926 98.1534C189.393 95.6329 188.226 93.2906 186.535 91.3491C184.845 89.4076 182.686 87.9313 180.265 87.0606L180.001 87.2645C177.741 86.6527 177.812 82.4113 175.44 82.0953L175.878 90.4047C175.987 91.2289 175.885 92.0674 175.582 92.8415C174.564 94.8806 171.398 94.4626 169.424 95.6861C168.781 96.0964 168.272 96.6849 167.957 97.38C167.643 98.0752 167.537 98.8469 167.652 99.6012C168.1 102.191 170.9 103.557 173.343 104.526C175.379 105.331 177.557 105.719 179.614 106.565C179.451 107.064 178.809 107.177 178.3 107.197C173.49 107.348 168.693 106.608 164.15 105.015C163.553 104.726 162.877 104.64 162.226 104.77C162.776 107.166 164.792 108.93 166.868 110.215C168.945 111.5 171.246 112.529 172.976 114.293C168.151 115.313 163.397 112.56 159.223 109.909C156.739 108.318 154.592 107.758 152.576 105.617C157.523 112.672 162.919 120.094 170.9 123.316C172.528 123.969 174.636 125.202 174.025 126.844C173.857 127.249 173.582 127.601 173.231 127.864C171.195 129.566 168.141 129.597 165.596 128.638C163.154 127.53 160.924 126.002 159.01 124.122C163.265 128.914 159.111 137.223 162.583 142.617C163.356 143.82 164.507 144.87 164.731 146.287C164.955 147.704 164.222 149.152 162.939 148.52C161.435 147.785 159.872 147.178 158.266 146.705C158.3 146.653 158.321 146.594 158.328 146.532L158.053 146.471C158.358 142.392 158.487 138.338 158.44 134.307C158.44 130.983 158.154 127.395 156.057 124.805C155.844 130.535 154.856 136.754 150.682 140.679C151.86 137.656 152.726 134.52 153.268 131.32C153.812 128.099 153.365 124.788 151.985 121.828C151.48 125.14 150.627 128.39 149.441 131.524C148.231 134.692 146.045 137.392 143.2 139.232C143.88 137.578 144.139 135.78 143.954 134.001C143.383 134.88 142.635 135.631 141.759 136.205C140.883 136.779 139.897 137.164 138.864 137.335C136.777 137.631 134.659 137.631 132.572 137.335L145.134 141.21C147.17 141.852 149.267 142.494 151.242 143.33C153.042 144.097 154.772 145.018 156.414 146.083C151.348 145.042 146.193 144.506 141.022 144.482L119.532 143.758C120.855 145.961 122.352 148.306 124.744 149.223C126.271 149.632 127.838 149.871 129.417 149.937C132.338 150.365 135.016 151.823 137.886 152.527C141.388 153.383 145.063 153.108 148.657 153.546C152.796 153.992 156.824 155.166 160.557 157.013C167.388 160.296 174.391 163.803 181.222 167.096C181.222 166.923 181.222 166.76 181.222 166.597C181.616 167.013 182.045 167.395 182.505 167.739C183.377 168.358 184.288 168.92 185.233 169.421C185.956 169.819 186.699 170.226 187.391 170.695C189.091 171.848 190.519 173.358 191.575 175.12C191.93 175.713 192.184 176.361 192.328 177.037C189.376 173.897 184.989 172.633 181.13 170.634C175.165 167.576 170.269 162.396 163.926 160.143C158.399 158.185 152.23 157.961 146.773 155.81C150.889 158.692 154.356 162.404 156.953 166.709C154.622 167.249 152.321 165.852 150.336 164.517L138.752 156.748C141.773 161.213 145.351 165.273 149.4 168.83L120.122 148.622C123.981 159.562 134.955 166.056 145.175 171.521C150.265 174.254 155.457 176.986 161.117 178.159C164.049 178.689 167.016 179.006 169.994 179.107L176.112 179.443C180.825 179.719 184.307 184.286 188.144 187.314C188.153 187.628 188.198 187.939 188.277 188.242C188.391 188.739 188.643 189.193 189.003 189.554C189.363 189.914 189.817 190.166 190.313 190.281C191.883 191.637 193.282 193.182 194.476 194.879L195.362 196.021C195.803 196.548 196.148 197.149 196.38 197.795C196.49 198.237 196.489 198.699 196.377 199.141C196.265 199.582 196.046 199.988 195.739 200.324C195.283 200.884 194.631 201.249 193.916 201.343C194.281 200.105 194.27 198.786 193.886 197.554C193.502 196.322 192.761 195.231 191.758 194.421C187.004 189.323 181.222 184.072 174.402 182.838L162.878 180.738C157.904 179.947 152.987 178.834 148.158 177.404C138.36 174.25 129.577 168.542 122.708 160.867L121.69 160.775C123.004 165.451 125.775 169.584 129.6 172.571C126.093 170.075 122.975 167.072 120.346 163.66C119.939 159.976 119.529 156.292 119.115 152.608C118.769 149.407 118.412 146.205 118.097 142.994C117.73 139.058 117.547 135.021 117.201 131.126C117.085 133.67 116.389 136.153 115.165 138.385C114.34 136.632 113.267 135.008 111.979 133.563C111.179 136.015 110.834 138.593 110.961 141.169C109.808 138.797 108.956 136.29 108.426 133.706C108.896 138.753 108.607 143.843 107.571 148.805C105.718 147.041 104.863 144.503 104.181 142.046C103.499 139.589 102.868 137.019 101.341 134.98C100.315 133.599 98.8253 132.636 97.1465 132.268L86.4882 116.669C89.2164 115.568 91.4967 112.957 92.8404 109.328C93.5137 107.365 94.0378 105.354 94.4081 103.312C94.7033 101.885 95.0087 100.417 95.4261 99.02C96.8252 94.8237 98.7112 90.8063 101.045 87.0504C101.968 85.2872 103.073 83.6263 104.344 82.0953C106.076 80.2315 108.215 78.7939 110.594 77.8947C111.684 77.4405 112.745 76.9195 113.77 76.3347C115.092 75.5504 116.499 74.9209 117.964 74.4587C118.484 74.316 118.982 74.2039 119.563 74.1019C120.218 73.9863 120.867 73.8366 121.507 73.6533C123.604 72.8568 125.547 71.701 127.248 70.2378C127.513 70.0764 127.734 69.8527 127.891 69.586C128.049 69.3194 128.14 69.0181 128.154 68.7084C128.072 68.2421 127.813 67.8256 127.432 67.5461C124.878 65.1447 123.054 62.07 122.169 58.6759C121.348 55.0947 121.063 51.4112 121.324 47.7462C121.385 48.3477 121.466 48.9595 121.548 49.561C121.643 51.2148 122.154 52.8175 123.034 54.2204C122.281 50.7947 123.818 47.2874 123.899 43.7801C123.899 41.6594 123.472 39.4979 123.981 37.4282L123.716 36.8572C123.37 37.8768 123.014 38.8964 122.698 39.9159C122.267 41.1156 121.9 42.3374 121.599 43.5762C121.599 42.6586 121.711 41.7307 121.751 40.7927C121.766 40.1931 121.735 39.5933 121.66 38.9983C121.497 38.0854 121.521 37.1487 121.731 36.2455C121.92 35.6289 121.986 34.981 121.924 34.3389C121.871 33.8146 121.919 33.2848 122.067 32.779C122.402 31.707 122.627 30.6035 122.739 29.4858C123.278 25.2342 123.675 20.9113 123.92 16.6291C124.011 15.059 125.141 13.9884 126.607 12.7445L127.197 12.2755C127.801 11.8575 128.337 11.3485 128.786 10.7666C129.085 10.2921 129.33 9.7861 129.519 9.25764C129.61 9.02314 129.702 8.77845 129.814 8.54395C130.342 7.55413 131.065 6.68219 131.94 5.98111C132.815 5.28003 133.824 4.76445 134.904 4.46569C137.068 3.85571 139.315 3.59416 141.561 3.69082V3.83356L153.441 2.44695C155.996 2.14108 158.531 2.09011 160.129 3.54808C160.135 3.58767 160.133 3.6281 160.123 3.66674C160.112 3.70539 160.094 3.74138 160.068 3.77239C159.956 3.88454 159.804 3.90493 159.681 3.99669C159.203 4.33315 159.6 5.01625 160.007 5.48525C162.112 7.6944 163.833 10.2412 165.097 13.0198C163.754 11.8414 162.213 10.9096 160.547 10.267C158.87 9.62732 157.033 9.54158 155.304 10.0223C157.408 10.4172 159.434 11.1543 161.3 12.2042C162.711 12.9983 163.942 14.0782 164.914 15.375C163.348 14.2568 161.635 13.3613 159.824 12.714C157.086 11.6128 154.042 10.6035 151.253 11.5313C153.787 11.5776 156.266 12.2801 158.45 13.5704C160.384 14.7021 162.135 16.313 164.344 16.7005C161.066 17.404 157.839 15.6809 154.592 14.8041C151.407 13.9914 148.064 14.0513 144.91 14.9774C146.478 15.4668 148.188 14.9774 149.827 15.1303C151.328 15.4647 152.782 15.9853 154.154 16.6801C156.819 17.5748 159.6 18.0762 162.41 18.1686C159.671 18.2604 157.086 19.6674 154.347 19.6368C152.138 19.6368 150.072 18.6172 147.975 17.9545C145.878 17.2918 143.475 16.884 141.541 17.9545C141.392 17.8945 141.228 17.8818 141.071 17.9183C140.915 17.9548 140.773 18.0386 140.665 18.1584C140.441 18.3929 140.533 18.2298 140.665 18.5153C140.594 19.6266 142.131 19.9325 143.231 20.0446C145.939 20.3199 148.321 21.7779 150.805 22.981C151.747 23.5042 152.786 23.8302 153.859 23.9394C154.652 23.9356 155.44 23.8189 156.2 23.5927C157.991 23.2246 159.738 22.6676 161.412 21.9308C162.455 21.3394 163.537 20.8182 164.649 20.3709C165.208 20.1473 165.812 20.0585 166.411 20.1116C167.011 20.1648 167.589 20.3583 168.1 20.6768C168.059 20.2009 167.96 19.7318 167.805 19.28C167.968 19.4941 168.11 19.698 168.253 19.9121C168.925 20.9316 169.189 22.461 168.375 23.2359L168.151 23.4398L168.253 23.7253C168.605 25.279 168.605 26.8921 168.253 28.4458C168 29.7621 167.931 31.1073 168.049 32.4425C168.208 33.3332 168.45 34.2071 168.772 35.0526L169.006 35.7255C170.033 38.7632 170.398 41.9861 170.075 45.1769C169.22 44.791 168.408 44.316 167.652 43.7597C167.199 43.2376 166.853 42.6313 166.634 41.9754L164.517 36.8776L161.86 39.243C161.668 39.4645 161.412 39.6211 161.127 39.6916C160.109 39.8446 159.987 38.254 160.323 37.2854C159.694 37.3075 159.068 37.1794 158.498 36.9117C157.928 36.644 157.43 36.2444 157.045 35.7459C156.485 34.7875 156.19 33.7068 155.63 32.6872C155.072 31.8516 154.464 31.0515 153.808 30.2912C152.962 28.987 152.044 27.731 151.059 26.5291C150.56 25.9316 149.919 25.4698 149.195 25.1864C148.471 24.9031 147.687 24.8073 146.916 24.9079C146.916 24.9079 146.916 24.9691 146.916 24.9997C146.341 24.1016 145.606 23.317 144.748 22.6853C142.712 21.2273 140.36 20.4524 138.12 19.4227C136.339 18.607 134.456 17.3836 134.191 15.4158C133.753 17.5773 131.351 18.5968 129.722 20.0752C126.963 22.5629 126.302 26.6514 126.556 30.3626L126.974 30.2505C127.9 30.2505 128.114 28.976 128.185 28.0482C128.47 23.9699 131.432 20.5748 134.731 18.1584C134.814 18.8053 135.065 19.4191 135.457 19.9394C135.85 20.4597 136.372 20.8684 136.97 21.1254C138.171 21.6181 139.406 22.0236 140.665 22.3386C143.75 23.411 146.286 25.6613 147.72 28.5988C147.427 29.0492 147.285 29.5811 147.313 30.1179C147.445 30.8316 148.239 31.4026 148.076 32.1061C147.964 32.626 147.405 32.8911 146.916 33.0746L143.129 34.5428C142.712 34.6567 142.351 34.9173 142.111 35.2769C141.673 36.1537 142.783 36.9388 143.414 37.6933C144.666 39.2124 143.954 41.588 142.62 43.0256C142.278 43.447 141.805 43.7414 141.276 43.8616C140.156 44.0044 139.383 42.8421 138.64 42.006C137.897 41.17 136.288 40.6602 135.83 41.69C135.718 42.197 135.718 42.7224 135.83 43.2295C135.83 43.7495 135.474 44.3918 134.975 44.2491C134.558 44.8812 136.146 45.3808 135.932 46.1047C135.83 46.4411 135.413 46.5329 135.087 46.6654C134.761 46.798 134.446 47.2262 134.71 47.4607H134.476C135.638 48.054 136.727 48.7793 137.723 49.6222C138.589 50.5908 138.741 52.4158 137.561 52.9969C137.153 53.1906 136.624 53.2314 136.38 53.6189C136.135 54.0063 136.38 54.5365 136.563 54.9545C139.596 60.6927 143.504 65.9215 148.148 70.4519C148.812 71.0645 149.444 71.7111 150.041 72.389C150.51 73.045 151.06 73.6379 151.68 74.1529C152.2 74.4808 152.766 74.7283 153.36 74.887C157.312 76.1085 161.443 76.6497 165.576 76.4877C166.144 76.535 166.707 76.3554 167.143 75.9881C167.662 75.4273 167.479 74.5607 167.489 73.796C167.489 70.3907 171.806 68.3821 172.366 65.0176C172.512 63.9999 172.371 62.9616 171.958 62.0201C172.885 62.6216 173.913 63.111 174.819 63.7227C176.478 64.8341 177.873 67.0363 176.855 68.739C176.152 69.8809 174.687 70.2174 173.577 70.9616C172.634 71.6298 171.951 72.6038 171.643 73.7186C171.335 74.8334 171.421 76.0206 171.887 77.079C171.887 76.763 171.969 76.4469 172.019 76.1308C172.162 76.3444 172.322 76.5456 172.498 76.7324C164.354 82.3502 156.271 88.1005 148.219 93.8712C148.982 92.5356 150.927 91.9239 152.179 90.8126C152.845 90.2264 153.325 89.4588 153.562 88.6035C153.799 87.7481 153.782 86.8422 153.513 85.9964C153.244 85.1506 152.735 84.4015 152.048 83.8409C151.361 83.2803 150.526 82.9323 149.644 82.8396C149.147 82.754 148.635 82.8105 148.168 83.0027C146.997 83.5533 146.722 85.0418 146.468 86.3061C145.893 89.1227 144.681 91.7699 142.925 94.0446C142.354 93.0137 142.194 91.804 142.477 90.6596C140.912 93.2181 139.751 96.0039 139.037 98.9181C138.623 97.7214 138.336 96.4843 138.182 95.2273C138.025 93.9601 137.448 92.7825 136.543 91.8831C136.19 91.5542 135.745 91.3416 135.268 91.2741C134.791 91.2066 134.305 91.2875 133.875 91.5059C135.456 93.1532 136.354 95.339 136.39 97.6232C136.39 99.224 136.186 100.845 136.186 102.436L126.006 109.787C122.067 112.621 118.117 115.455 114.3 118.463L113.139 119.758C113.719 117.046 114.289 114.344 114.87 111.601C115.139 110.634 115.219 109.623 115.104 108.624C114.772 107.429 114.216 106.308 113.465 105.321C111.595 102.29 110.621 98.7901 110.655 95.2273C110.579 102.665 109.825 110.081 108.405 117.382C104.853 112.682 105.708 106.106 106.736 100.305C103.855 107.646 102.043 115.353 100.251 123.021C103.57 120.757 107.835 123.5 111.632 124.805C112.215 125.045 112.849 125.133 113.475 125.06C114.142 124.868 114.753 124.518 115.257 124.04C121.934 118.697 129.273 114.242 137.092 110.786C138.769 110.108 140.392 109.303 141.948 108.38C143.792 107.103 145.464 105.595 146.926 103.894C152.22 98.133 157.106 91.6588 164.018 87.9884C168.782 85.4598 174.717 84.0019 177.252 79.2609C176.077 79.1644 174.963 78.6927 174.076 77.9151C175.99 78.9346 178.474 79.2711 180.56 80.1173C182.81 81.0349 184.714 82.656 186.964 83.594C190.221 84.9603 193.927 84.7767 197.327 85.7657C200.727 86.7547 204.005 88.9875 207.578 88.6511C207.914 88.1005 208.341 87.3562 207.7 87.4174C206.926 86.6323 206.122 85.8881 205.277 85.1744C206.936 86.2847 208.499 87.5329 209.95 88.906C212.484 91.1898 215.101 93.5348 218.48 94.3504C222.564 95.3889 226.588 96.6517 230.533 98.133C231.23 98.3741 231.91 98.6602 232.569 98.9894C231.253 98.8003 229.914 99.1093 228.813 99.8561C227.641 100.676 226.528 101.579 225.484 102.558C222.659 104.918 219.258 106.484 215.63 107.095C217.808 107.702 220.116 107.654 222.267 106.956C224.417 106.258 226.315 104.941 227.724 103.17C228.915 101.61 230.126 99.489 232.091 99.6114L231.073 99.3157L232.803 99.071C232.885 99.071 232.987 99.1526 233.078 99.2036L233.689 99.591C234.017 99.8171 234.357 100.025 234.707 100.213C236.865 101.232 239.237 100.753 241.517 100.213C242.631 99.9377 243.764 99.7536 244.907 99.6624C245.155 99.6261 245.407 99.6542 245.64 99.7439C245.768 99.8146 245.868 99.9269 245.924 100.062C245.979 100.198 245.987 100.348 245.946 100.488L245.864 100.713C244.789 100.945 243.778 101.412 242.902 102.079C241.049 103.567 240.337 106.055 240.123 108.42C239.96 110.205 240.031 112.009 239.858 113.783L239.502 113.549C239.41 113.702 239.319 113.855 239.237 114.018L237.761 108.074C236.574 115.012 237.155 122.138 239.451 128.791C240.083 130.195 240.405 131.718 240.398 133.257ZM147.914 28.0584C147.89 27.5294 147.787 27.007 147.608 26.5087C147.772 26.6925 147.896 26.9075 147.975 27.1408C148.062 27.4444 148.04 27.769 147.914 28.0584ZM302.912 99.4279C298.118 97.5519 293.75 94.7073 288.599 94.1873C285.464 93.8814 283.509 97.348 281.626 99.8561C276.231 106.993 266.356 108.329 258.141 111.663C255.087 112.896 252.125 114.477 248.908 115.211C246.554 115.801 244.081 115.702 241.782 114.925C241.871 113.719 242.02 112.518 242.23 111.326C242.501 108.904 243.143 106.538 244.134 104.312C244.729 103.102 245.576 102.035 246.618 101.182C252.798 100.305 258.884 98.8575 264.799 96.8586C269.121 95.3765 273.344 93.6192 277.442 91.5976C280.842 90.0071 284.365 88.3656 287.948 87.081C294.514 84.7054 304.012 82.7784 311.952 87.0096C314.232 88.2229 316.849 88.1107 319.373 88.0291H320.014C320.904 87.907 321.811 87.9943 322.661 88.284C323.27 88.6128 323.82 89.0399 324.29 89.5483C324.957 90.2682 325.821 90.7754 326.774 91.0063C326.718 91.1857 326.618 91.3481 326.483 91.4783C326.348 91.6084 326.181 91.7021 326 91.7505C325.288 91.8933 324.555 92.087 323.812 92.3011L317.938 92.8619C318.698 91.1323 320.083 89.7553 321.816 89.0079C319.875 88.7453 317.904 88.7797 315.973 89.1099C314.874 89.2934 313.611 89.7522 313.347 90.8329C313.28 91.3817 313.314 91.9382 313.448 92.4744C313.588 93.4972 313.449 94.5386 313.048 95.4894C312.647 96.4402 311.997 97.2653 311.168 97.8781L311.453 98.184C311.039 98.4289 310.57 98.5657 310.089 98.5816C309.721 98.5494 309.358 98.4706 309.01 98.3471L308.532 98.2044L308.267 98.1534V94.4014H308.175C308.343 94.1495 308.575 93.9473 308.847 93.8164C309.119 93.6854 309.422 93.6304 309.723 93.6571C308.673 92.3485 307.343 91.2926 305.831 90.5673C304.319 89.842 302.664 89.4659 300.988 89.4667C300.663 89.4667 300.235 89.5789 300.215 89.9051C300.214 89.9328 300.221 89.96 300.236 89.9835C300.25 90.007 300.271 90.0258 300.296 90.0377L299.818 90.3843C298.657 90.9145 299.085 92.7905 300.123 93.5348C301.161 94.2791 302.525 94.4422 303.533 95.2171C304.205 95.7269 304.775 96.5119 305.62 96.5323C305.748 96.5529 305.879 96.5529 306.007 96.5323V98.0922C304.884 98.2527 303.819 98.6946 302.912 99.3769V99.4279ZM278.715 193.717L271.222 145.084L289.108 197.367C287.245 195.756 283.499 194.461 278.715 193.717ZM277.697 193.574C275.114 193.243 272.513 193.079 269.909 193.085C261.674 193.085 254.578 194.645 251.351 196.898L268.922 144.35C269.256 144.425 269.597 144.463 269.94 144.462H270.164L277.697 193.574ZM367.28 197.347C365.417 195.746 361.67 194.441 356.886 193.717L349.394 145.084L367.28 197.347ZM348.152 144.482H348.376L355.939 193.615C353.357 193.283 350.755 193.12 348.152 193.126C339.916 193.126 332.821 194.686 329.594 196.939L347.134 144.37C347.468 144.446 347.809 144.483 348.152 144.482Z" fill="#231F20"/>
<path d="M2.79599e-06 14.2663C3.80728 13.3487 10.9637 16.3054 14.8626 16.5705C16.9428 16.8793 19.0545 16.9136 21.1436 16.6725C22.8742 16.336 24.4622 15.5102 26.1725 15.1227C27.5922 14.8692 29.0274 14.7125 30.4684 14.6537C37.3 14.0256 43.6829 10.9739 48.4664 6.04862C49.4233 5.02906 50.1053 3.0511 48.8023 2.61269C47.8556 2.29663 47.0514 3.31619 46.4304 4.10125C45.1337 5.7034 43.2709 6.74398 41.2285 7.00701C42.6982 6.41088 44.0256 5.51056 45.1238 4.36499C46.222 3.21943 47.0662 1.85445 47.6011 0.359454C44.4759 -0.82324 41.1369 1.15472 38.2254 2.78602C30.3467 7.18871 21.5015 9.56722 12.4805 9.70886C9.11099 9.70886 4.51986 5.81412 1.3641 6.98662C0.651511 7.25171 0.346118 13.5934 2.79599e-06 14.2663Z" transform="translate(121.263 19.2366)" fill="white"/>
<path d="M19.8609 17.7941C18.8429 17.7941 17.825 17.7024 16.8782 17.6106L15.677 17.4984C13.8193 17.2671 11.9817 16.8956 10.1799 16.3871C6.92231 15.5715 3.22702 14.6437 1.01799 15.184L-1.24266e-06 15.4287L0.49881 14.5111C0.67437 13.6769 0.796776 12.8324 0.865286 11.9826C1.28266 8.34276 1.50662 7.24163 2.10723 7.01732C4.07195 6.28324 6.4235 7.3028 8.70379 8.29178C10.1588 9.06234 11.7489 9.54358 13.3865 9.70897C22.3292 9.5707 31.0979 7.2131 38.9075 2.84731L39.2027 2.68418C42.1243 1.03248 45.4429 -0.823122 48.67 0.390159L49.0975 0.553289L48.9448 0.981506C48.6608 1.79319 48.2851 2.5697 47.825 3.29591C48.0653 3.00191 48.3854 2.78385 48.7467 2.66806C49.108 2.55227 49.495 2.5437 49.861 2.64339C50.1101 2.71571 50.3355 2.8529 50.5144 3.04097C50.6932 3.22904 50.819 3.46126 50.879 3.71394C50.9332 4.28687 50.8601 4.86473 50.6647 5.40595C50.4693 5.94717 50.1566 6.43829 49.749 6.844C44.8697 11.8434 38.3755 14.9438 31.4253 15.5919L30.2851 15.6734C29.2589 15.7195 28.2378 15.8456 27.2312 16.0507C26.4496 16.2424 25.6811 16.4842 24.9305 16.7745C24.0403 17.12 23.1248 17.3961 22.1921 17.6004C21.4234 17.7423 20.6425 17.8072 19.8609 17.7941ZM2.55515 14.0829C5.20902 14.2498 7.83534 14.7184 10.3835 15.4797C12.1363 15.9722 13.9224 16.3368 15.7279 16.5706L16.9495 16.6726C18.5907 16.902 20.2557 16.902 21.8969 16.6726C22.7818 16.4764 23.6498 16.2105 24.4928 15.8773C25.2825 15.5816 26.088 15.3297 26.9054 15.1229C27.9693 14.9091 29.0483 14.7795 30.1324 14.7354L31.2624 14.6437C37.98 14.0198 44.256 11.0197 48.9652 6.18128C49.2661 5.89127 49.5017 5.54022 49.6562 5.15162C49.8107 4.76303 49.8805 4.34586 49.861 3.92804C49.8432 3.83135 49.7983 3.74171 49.7316 3.66953C49.665 3.59734 49.5792 3.54557 49.4844 3.52022C48.9143 3.3265 48.3137 3.98922 47.6622 4.81506C46.2879 6.53073 44.3027 7.6455 42.1243 7.92474L38.4901 8.38354L41.8902 7.02752C43.2246 6.4905 44.4377 5.69028 45.4572 4.67442C46.4767 3.65855 47.282 2.44778 47.825 1.11405C45.1274 0.379962 42.1956 2.02146 39.5895 3.48963L39.2841 3.65276C31.3416 8.09629 22.4221 10.496 13.3254 10.6368C11.5462 10.4812 9.81575 9.97168 8.23552 9.13802C6.19954 8.2408 4.01087 7.313 2.41263 7.86356C2.03468 9.24008 1.79259 10.6504 1.68986 12.0744C1.58806 13.0226 1.50662 13.6751 1.42518 14.1135C1.80766 14.0801 2.1918 14.0699 2.57551 14.0829H2.55515Z" transform="translate(120.408 18.7675)" fill="#231F20"/>
</svg>
