<svg width="227" height="388" viewBox="0 0 227 388" fill="none" xmlns="http://www.w3.org/2000/svg">
<path d="M6.07119 5.02199C5.79809 5.85373 5.79809 6.90656 6.57537 7.21188C7.73079 7.74882 8.67613 5.90637 9.93659 5.74845C11.4281 5.57999 12.363 7.79094 13.865 7.68565C14.2996 7.61055 14.695 7.38713 14.984 7.05326C15.2731 6.71939 15.4381 6.2956 15.4511 5.85373C15.4629 4.96717 15.2649 4.09043 14.8734 3.29536C16.9351 3.26104 18.9918 3.50899 20.9866 4.03234C18.5303 2.31482 15.8423 0.957045 13.0037 5.62272e-07C12.9955 1.34332 13.3591 2.66261 14.0541 3.81124C14.2525 4.08742 14.3887 4.40355 14.4532 4.73773C14.4532 5.07464 14.2536 5.46418 13.907 5.46418C13.7355 5.44921 13.5733 5.37904 13.4448 5.26415C12.4995 4.49558 12.1319 2.94792 10.9344 2.75841C9.50593 2.51626 8.68663 4.43241 7.33164 4.86407C8.3295 3.19007 8.71815 1.78981 7.7623 0.0947554C5.55651 1.98985 1.9432 2.20041 3.52605e-06 4.55875L6.50184 2.57943C6.63 3.41893 6.47865 4.27737 6.07119 5.02199Z" transform="translate(78.1928 17.3093)" fill="#1F2023"/>
<path d="M0.556703 0.294793C0.640734 0.18951 0.745766 0.105283 0.829796 -3.21298e-07L3.8466e-06 0.252678L0.556703 0.294793Z" transform="translate(77.3315 21.9208)" fill="#1F2023"/>
<path d="M9.29585 2.65374C8.19288 1.58954 6.93572 0.698603 5.567 0.0111363C5.22038 0.253287 4.75821 0.0111363 4.32756 0.0111363C2.72048 -0.178373 1.59658 2.1168 1.60275e-06 1.87464L0.378139 2.32736C0.262597 2.68532 0.640734 3.05381 1.01887 3.0854C1.39268 3.06886 1.75531 2.95255 2.06925 2.74849C2.72197 2.35012 3.44741 2.08626 4.20311 1.97237C4.95882 1.85848 5.7296 1.89684 6.47033 2.08521C7.42618 2.39053 8.41354 3.10645 9.29585 2.65374Z" transform="translate(84.1485 26.8263)" fill="#1F2023"/>
<path d="M0.375948 0.17898V0.0842255C0.274871 0.161546 0.190203 0.258304 0.126897 0.368831C0.0635904 0.479359 0.0229179 0.601436 0.00726718 0.727914C-0.00838349 0.854392 0.00129964 0.982728 0.0357481 1.10541C0.0701965 1.22809 0.128723 1.34265 0.207892 1.44238C0.407724 1.6077 0.640165 1.7288 0.889974 1.79775C1.13978 1.8667 1.40132 1.88193 1.65741 1.84245C2.29155 1.88978 2.92798 1.78886 3.51658 1.54766C3.80841 1.41931 4.0499 1.19814 4.2037 0.918377C4.3575 0.63861 4.41503 0.315837 4.36739 -8.03245e-07C3.74845 0.297897 3.07581 0.467314 2.3899 0.498071C1.70399 0.528828 1.01895 0.420291 0.375948 0.17898Z" transform="translate(86.6506 29.7959)" fill="#1F2023"/>
<path d="M8.0459 0C6.22869 0.432917 4.54793 1.31338 3.15585 2.56164C1.76376 3.8099 0.704344 5.38652 0.0735304 7.14871L-3.8466e-06 6.58018C-3.8466e-06 7.28558 -3.8466e-06 8.0015 -3.8466e-06 8.68584C1.69631 5.00938 4.51371 1.9679 8.0459 0Z" transform="translate(75.945 11.0555)" fill="#1F2023"/>
<path d="M8.09842 1.1626C5.20988 -0.0481549 2.68897 -0.658796 -2.88495e-06 1.07837C4.54131 1.31468 8.95564 2.66303 12.8566 5.00543C11.6977 3.269 10.0377 1.92836 8.09842 1.1626Z" transform="translate(90.6923 14.2201)" fill="#1F2023"/>
<path d="M2.06925 5.33784C2.65134 6.56172 3.42431 7.68478 4.35907 8.66478C5.22781 9.47403 6.18644 10.1806 7.2161 10.7704L16.8271 16.7189C19.6736 18.4666 22.7827 20.288 26.1019 19.9301C19.6211 17.1927 15.0204 11.3916 9.45341 7.09607C6.30227 4.68509 3.07761 2.33728 -1.2822e-06 6.42596e-07C0.38526 1.88329 1.08483 3.68791 2.06925 5.33784Z" transform="translate(86.3858 105.926)" fill="#1F2023"/>
<path d="M14.7578 10.9705C18.1611 7.70671 21.7638 4.37977 23.5495 -2.24909e-06C19.0316 3.4707 13.5893 5.52227 7.90935 5.89584L8.46605 5.29574L5.52499 5.49578C5.83822 6.42848 6.38679 7.26413 7.11741 7.92156C7.84802 8.57899 8.73585 9.03586 9.69466 9.24778C10.6535 9.4597 11.6507 9.41947 12.5894 9.13099C13.5281 8.84251 14.3764 8.3156 15.0519 7.60143C11.2706 14.6975 4.10698 19.4458 -1.2822e-06 26.3523C4.7057 21.025 9.62497 15.8977 14.7578 10.9705Z" transform="translate(90.5873 133.173)" fill="#1F2023"/>
<path d="M12.2789 22.0989C15.2305 25.689 19.1589 28.6791 23.7176 29.595C15.4739 21.5138 9.6926 11.2497 7.04804 6.42596e-06C3.33609 4.71668 0.907719 10.3175 6.411e-07 16.2557L0.535692 15.2028L0.42015 14.8238L5.17837 10.1598C7.24762 14.2764 9.32737 18.4982 12.2789 22.0989Z" transform="translate(56.534 148.818)" fill="#1F2023"/>
<path d="M12.0373 0.052646L11.1655 1.28519e-06L10.6298 0.442188C7.44055 5.80972 3.889 10.9525 3.52605e-06 15.8345C2.36739 14.1039 4.60379 12.2001 6.69091 10.1388C9.48492 7.39087 12.1529 3.96917 12.0373 0.052646Z" transform="translate(103.665 140.522)" fill="#1F2023"/>
<path d="M7.60474 3.02162C7.91616 2.58596 8.09735 2.07042 8.12712 1.53531C8.15688 1.0002 8.03399 0.467656 7.7728 1.92779e-06C4.72671 1.69506 2.34234 7.84359 -6.411e-07 10.6652C3.25931 8.96251 5.91505 6.29322 7.60474 3.02162Z" transform="translate(111.448 150.376)" fill="#1F2023"/>
<path d="M28.1291 6.42596e-06C27.3351 1.58264 26.6337 3.21025 26.0284 4.8746L21.5643 17.5085C18.0245 27.4683 14.4742 37.4491 10.0101 46.9878C7.57323 52.1361 4.86325 57.1686 2.95156 62.5381C1.48426 66.621 0.493805 70.8606 1.9233e-06 75.172C5.79809 66.2967 16.9741 62.3064 23.3919 53.8627C19.5784 54.9751 15.6782 55.764 11.7327 56.2211C18.9765 39.6511 24.448 22.3583 28.0556 4.63245C28.4541 3.11705 28.4793 1.52734 28.1291 6.42596e-06Z" transform="translate(91.165 199.617)" fill="#1F2023"/>
<path d="M10.8681 72.8242C9.25053 73.298 7.49639 73.2348 5.94183 73.877C4.87865 74.3652 3.93426 75.0796 3.17425 75.9705C2.41423 76.8613 1.85683 77.9074 1.54075 79.0359C0.926305 81.2957 0.63976 83.6324 0.689938 85.974L0.28029 102.946C0.28029 104.241 -0.181879 105.557 0.0807158 106.82L9.88075 90.7012C11.5186 88.1958 12.925 85.5457 14.0823 82.784C15.7734 78.3831 16.183 73.5296 18.2838 69.3183C17.7916 64.4512 18.5547 59.539 20.5001 55.0524C24.1344 47.2299 31.1089 41.3657 34.7117 33.5221C36.5814 29.4476 37.4637 24.9942 38.6926 20.6776C40.5703 14.2159 43.2412 8.01287 46.644 2.21094L47.0011 -3.21298e-06C44.1546 4.13762 41.7492 8.59109 39.1233 12.834C30.4997 26.5208 18.5884 38.0177 10.8576 52.2309C9.70313 54.0257 8.9837 56.0665 8.75685 58.1899C8.65181 61.4642 10.658 64.391 12.6748 66.9705C13.3002 67.6288 13.7295 68.4493 13.9142 69.3393C14.0823 71.0133 12.4752 72.361 10.8681 72.8242Z" transform="translate(62.556 181.035)" fill="#1F2023"/>
<path d="M29.0745 3.85558e-06C24.5894 3.45328 21.8374 8.64373 19.2219 13.6868C17.3032 17.4068 15.374 21.1162 13.4343 24.8152C10.0941 31.248 6.72243 37.7334 4.66369 44.6821C3.44847 49.1228 2.50487 53.6338 1.83816 58.1899C1.21494 61.8537 0.602218 65.514 3.2055e-07 69.1709C6.79023 58.5213 12.6823 47.3224 17.6149 35.6909C14.1906 40.555 10.6473 45.3348 6.98502 50.0304C13.6444 33.6484 20.822 17.505 28.5178 1.60029L29.0745 3.85558e-06Z" transform="translate(82.867 197.575)" fill="#1F2023"/>
<path d="M2.90248 77.8146C14.1065 51.8869 25.3491 25.9487 36.6301 7.71115e-06C34.5256 1.03433 32.8521 2.77889 31.9034 4.92724L32.1975 4.55874C21.3241 18.3466 12.0394 33.3215 4.52007 49.1987C2.25125 53.9891 0.108477 59.0216 0.00343886 64.3279C-0.0805914 68.9498 1.38994 73.4349 2.90248 77.8146Z" transform="translate(59.0305 251.964)" fill="#1F2023"/>
<path d="M18.9051 22.8551C19.8924 15.759 21.0059 8.61029 20.1761 1.49316C20.1875 1.22495 20.1331 0.958025 20.0177 0.715748C19.9024 0.47347 19.7295 0.263232 19.5143 0.103434C19.3221 0.0243046 19.1146 -0.0101692 18.9072 0.00259464C18.6998 0.0153584 18.498 0.0750361 18.3169 0.17714C17.7203 0.463727 17.2148 0.910783 16.8568 1.46848C16.4989 2.02619 16.3025 2.67259 16.2897 3.33561C15.8445 16.4946 13.364 29.5045 8.937 41.9008C6.61566 48.4283 3.75863 54.7769 1.88896 61.4623C0.0192847 68.1478 -0.800013 75.2965 1.01714 81.982C1.40578 83.4243 1.32175 85.2457 1.76291 86.667C2.07802 74.9069 7.73957 63.6733 10.271 52.1764C11.3214 47.2175 11.8991 42.1534 13.149 37.2367C15.5164 53.8367 15.8128 70.6675 14.0313 87.3409C16.9444 75.0295 18.4074 62.4183 18.3904 49.7654C18.4219 40.7532 17.6656 31.7304 18.9051 22.8551Z" transform="translate(100.557 268.78)" fill="#1F2023"/>
<path d="M0.283606 0.295792C0.148391 0.535598 0.0897335 0.811177 0.115542 1.08541C0.0735265 5.71786 0.035012 10.3503 -6.411e-07 14.9828C-6.411e-07 17.7201 -1.87822e-06 20.7417 1.86967 22.7842C3.04555 23.903 4.40689 24.8079 5.89263 25.4584C10.966 28.2379 14.9469 32.6071 18.8228 36.9027C18.5491 34.1038 17.5837 31.4174 16.0138 29.0865C14.4439 26.7556 12.3191 24.8537 9.83155 23.5528C7.65726 22.5 5.13635 21.7525 3.52927 19.8679C1.68061 17.6569 1.71212 14.4774 1.83816 11.5926C1.92219 10.6451 1.96421 -2.0836 0.283606 0.295792Z" transform="translate(68.6449 64.8857)" fill="#1F2023"/>
<path d="M5.84011 1.16935L6.07119 1.10619C4.47054 1.7752 3.07003 2.84832 2.00608 4.22103C0.942125 5.59375 0.250997 7.21925 3.2055e-06 8.93923C1.33398 8.63391 2.10076 7.30735 2.99358 6.25452C5.43046 3.32765 9.29585 2.10637 12.9512 0.990374C11.8803 0.314046 10.6339 -0.0298172 9.36864 0.00202916C8.10335 0.0338755 6.87571 0.440008 5.84011 1.16935Z" transform="translate(89.2953 87.2692)" fill="#1F2023"/>
<path d="M3.05103 0.324626H2.59936C1.67074 0.838565 0.927925 1.63355 0.477066 2.59599C0.0262063 3.55842 -0.10963 4.63908 0.0889594 5.68353C1.89189 4.17114 3.37106 2.30891 4.43753 0.208814C4.2321 0.0552773 3.97777 -0.0176883 3.7224 0.00364162C3.46704 0.0249716 3.22826 0.139126 3.05103 0.324626Z" transform="translate(89.3429 98.0631)" fill="#1F2023"/>
<path d="M14.9286 1.86351C10.5414 1.77598 6.18137 1.15015 1.94595 -1.28519e-06C1.39975 0.336904 0.307364 0.200036 0.0552726 0.863318C-0.196818 1.5266 0.464914 1.91615 1.00061 2.13724C7.17684 4.88513 14.3929 2.99004 21.0523 4.15868C24.0779 4.80339 27.028 5.76316 29.8545 7.02237L40.0642 11.1705C35.5065 5.93047 29.1133 2.64729 22.2078 2.00038C19.8129 1.78981 17.3655 1.90562 14.9286 1.86351Z" transform="translate(75.4381 77.6786)" fill="#1F2023"/>
<path d="M0.567205 3.85558e-06L-9.61651e-07 0.315848L0.2731 0.389546C0.346232 0.348402 0.410102 0.292569 0.46071 0.225539C0.511318 0.158509 0.547572 0.0817287 0.567205 3.85558e-06Z" transform="translate(77.1214 77.2891)" fill="#1F2023"/>
<path d="M227 84.9536L209.406 35.7339C212.148 34.3125 213.692 33.1334 213.471 32.428C213.251 31.7226 211.244 31.6278 208.093 32.0384V31.9753V32.049C202.962 32.8354 197.893 33.9895 192.926 35.5023C195.195 30.4066 197.61 24.7213 197.652 19.036C198.004 18.5593 198.508 18.2175 199.081 18.0674C199.427 17.9894 199.778 17.9367 200.131 17.9095C201.026 17.9362 201.898 17.6199 202.568 17.0251C202.843 16.6824 203.057 16.294 203.198 15.8775C204.249 13.3613 205.457 10.2238 204.911 7.11797C204.793 6.33696 204.518 5.5882 204.102 4.91756C203.003 3.54826 201.467 2.60015 199.753 2.23285C198.481 1.76298 197.125 1.56571 195.772 1.65379C193.304 1.95911 192.117 3.50677 190.867 5.15971C190.573 5.53873 190.268 5.92828 189.932 6.33888C187.684 9.05518 187.096 12.5927 186.518 16.0144C186.287 17.3936 186.056 18.8254 185.71 20.1625C184.554 23.9379 182.916 27.5475 180.836 30.9014C180.118 32.2383 179.48 33.6163 178.924 35.0285C178.097 37.3515 176.898 39.5242 175.374 41.4613C175.248 41.5981 175.143 41.7561 175.017 41.8929C170.542 43.9038 167.843 45.6305 168.126 46.5464C168.305 47.1044 169.576 47.2729 171.635 47.1255C171.309 47.8309 171.015 48.5363 170.763 49.2311C170.538 49.9176 170.373 50.6221 170.269 51.3368C170.017 52.7371 169.817 53.8425 168.693 54.4953C160.862 59.1948 151.887 61.6357 142.76 61.5492H140.501C138.527 61.5492 136.499 61.5492 134.609 61.4545C132.003 61.3789 129.395 61.5304 126.815 61.9072H126.426C125.308 62.1488 124.155 62.188 123.023 62.023C121.797 61.7321 120.593 61.3557 119.42 60.8965C118.097 56.5694 115.418 48.6521 112.425 45.8726C110.954 44.5039 109.158 43.5248 107.666 42.1772C106.931 41.4641 106.371 40.5904 106.028 39.6243C105.686 38.6582 105.571 37.6258 105.692 36.6077L110.166 42.1877C110.295 42.3754 110.468 42.5275 110.671 42.6299C111.343 42.8931 111.868 41.9771 111.889 41.2612C111.827 40.2655 111.561 39.2932 111.11 38.4041C110.658 37.5151 110.03 36.7281 109.263 36.0918C107.723 34.8137 106.296 33.4047 104.998 31.8805C104.652 31.4173 104.526 30.5329 105.093 30.4592C105.273 30.4597 105.449 30.5147 105.597 30.6171C106.985 31.3975 108.269 32.3489 109.421 33.4492C109.874 33.9587 110.428 34.3675 111.049 34.6495C111.361 34.7793 111.71 34.7945 112.032 34.6924C112.355 34.5904 112.632 34.3776 112.813 34.0915C113.212 33.2492 112.383 32.3753 111.647 31.8173L109.295 30.017C109.334 26.9612 109.013 23.9115 108.339 20.9311C108.399 17.0395 107.755 13.1691 106.438 9.5079C104.347 4.4859 99.589 0.000847669 94.043 0.000847669C88.6651 0.000847669 82.6359 -0.125492 77.8252 2.70662C74.8001 4.49643 71.9851 6.91794 70.5776 10.0764C68.2352 15.5196 70.231 21.7944 69.2856 27.5955C69.4327 26.9954 69.6007 26.4058 69.7793 25.8162C69.7968 28.1402 69.6881 30.4633 69.4537 32.7754C69.0155 34.7493 67.9279 36.5181 66.3656 37.7974C66.0418 37.9857 65.768 38.2493 65.5673 38.566C65.0736 39.5451 66.6177 40.5558 67.5735 40.1031C68.0359 39.8026 68.4332 39.4119 68.7417 38.9543C69.0503 38.4967 69.2638 37.9815 69.3696 37.4395C70.42 38.6502 69.8843 40.5979 68.8445 41.8087C67.8046 43.0195 66.3761 43.8407 65.3362 45.0619C64.2963 46.2832 63.8026 48.2204 64.8635 49.4312C68.0987 49.1259 68.2352 43.5143 71.3759 42.6615C69.5692 44.2723 70.336 47.3782 69.1281 49.4838C68.2352 51.0525 66.2185 52.3791 66.7542 54.1057C66.879 54.3842 67.0575 54.6353 67.2795 54.8443C67.5014 55.0534 67.7624 55.2165 68.0475 55.3241C68.3325 55.4318 68.636 55.4818 68.9404 55.4715C69.2448 55.4611 69.5442 55.3906 69.8213 55.2639C70.365 54.9772 70.8367 54.5705 71.2006 54.0744C71.5645 53.5783 71.8112 53.0058 71.9221 52.4002C72.1303 51.1863 72.2392 49.9574 72.2477 48.7258C72.3589 47.0104 72.7126 45.3195 73.2981 43.7038C73.2981 43.767 73.2981 43.8301 73.2981 43.8828C73.4766 45.2409 73.9808 46.5464 74.2119 47.8941C75.0627 52.9055 72.1111 57.6748 69.2436 61.8756L69.0965 62.0862C66.334 65.0762 62.5632 67.0871 58.8974 69.0138C54.5803 71.309 50.0952 73.6989 47.2277 77.7523C44.3601 81.8057 43.4883 86.9224 42.732 91.4391C42.3889 93.5447 42.0388 95.6188 41.6817 97.6613C40.8098 102.494 39.9065 107.495 39.4128 112.538C38.8982 117.802 36.997 122.782 35.1483 127.635C33.6609 131.299 32.4325 135.064 31.472 138.901C31.1306 140.042 30.6321 141.13 29.9909 142.133L29.6443 142.775C25.8314 150.029 24.7916 158.336 23.7832 166.369C23.5626 168.106 23.3525 169.843 23.1005 171.559C22.8759 173.531 22.4283 175.47 21.7665 177.339C21.9948 176.741 22.1123 176.106 22.1131 175.465C22.1182 174.081 21.5961 172.748 20.6534 171.736C19.7106 170.725 18.4184 170.113 17.0404 170.024C15.6625 169.935 14.3027 170.377 13.2387 171.259C12.1747 172.141 11.4867 173.397 11.3152 174.771C11.0656 175.56 11.1142 176.415 11.4517 177.171C11.4864 177.236 11.525 177.3 11.5673 177.36C11.8083 178.057 12.189 178.696 12.6857 179.239C13.1825 179.782 13.7849 180.218 14.4558 180.519L16.7667 185.141C14.5354 188.823 13.61 193.152 14.1407 197.427C14.0714 198.565 14.3618 199.696 14.9705 200.66C16.6721 203.797 18.3772 206.934 20.0859 210.072C20.2592 210.381 20.4748 210.665 20.7266 210.914L10.1388 213.02C9.56378 212.249 8.8017 211.639 7.92496 211.246C7.04823 210.854 6.08597 210.693 5.12965 210.779C4.17333 210.864 3.25472 211.193 2.46113 211.735C1.66754 212.277 1.02533 213.013 0.595554 213.873C0.165775 214.734 -0.0372995 215.69 0.00563201 216.652C0.0485636 217.613 0.336075 218.548 0.840839 219.366C1.3456 220.185 2.05085 220.86 2.88955 221.329C3.72825 221.797 4.67253 222.043 5.63265 222.043C8.44767 222.043 10.3489 220.758 10.8845 218.495C15.3066 217.726 19.8863 216.778 21.3883 216.463L52.2695 340.928L62.7207 356.068H41.293V372.039H28.4049V388H151.719V372.081H138.831V356.11H122.981V355.92H122.855C122.942 353.172 123.181 350.43 123.569 347.708C124.07 344.444 124.305 341.145 124.273 337.843C123.485 316.787 122.592 292.877 130.575 271.757L130.04 271.557C132.827 266.17 136.141 261.074 139.934 256.344C138.306 255.291 136.142 256.681 134.976 258.249C133.81 259.818 132.676 261.808 130.775 262.103C128.359 262.461 126.363 259.997 123.937 259.85C121.899 259.755 120.029 261.376 118.002 261.113C116.679 260.945 115.45 259.987 114.137 260.229C113.608 260.365 113.125 260.637 112.732 261.017C112.34 261.397 112.053 261.873 111.899 262.397C112.941 262.499 113.908 262.987 114.609 263.766C115.144 264.727 115.294 265.857 115.03 266.925C114.929 267.204 114.929 267.509 115.03 267.788C115.261 268.199 115.849 268.178 116.322 268.104L120.954 267.356C122.241 267.072 123.574 267.072 124.861 267.356C125.501 267.512 126.076 267.865 126.506 268.366C126.935 268.866 127.198 269.489 127.256 270.146C127.159 270.815 127.015 271.477 126.825 272.126C126.737 272.455 126.759 272.805 126.888 273.12C127.017 273.436 127.246 273.701 127.54 273.873C127.758 273.942 127.991 273.946 128.211 273.885C128.431 273.823 128.628 273.698 128.779 273.526C121.521 294.33 122.361 317.439 123.128 337.927C123.151 341.169 122.919 344.408 122.435 347.613C122.028 350.443 121.793 353.294 121.731 356.152H69.0335C69.9443 355.069 70.6556 353.832 71.1343 352.499C72.9199 348.087 74.1279 343.434 76.3862 339.254C78.3399 335.674 81.0183 332.558 83.3502 329.221C86.3767 324.869 88.8171 320.136 90.6083 315.144C90.5766 321.273 90.9556 327.396 91.7427 333.474C92.0788 335.98 92.5725 338.685 94.4107 340.423C96.2184 318.014 99.8188 295.788 105.177 273.958C105.629 272.115 105.954 269.809 104.473 268.63C102.992 267.451 100.723 268.335 99.1374 269.441C90.6608 275.4 86.6379 285.76 83.0666 295.498C79.0611 306.42 75.0627 317.331 71.0713 328.231C69.0755 333.642 67.1849 339.159 65.0841 344.56C64.727 345.476 64.3698 346.287 64.0967 347.108L63.1199 336.264L51.2716 292.435C50.7989 283.738 50.5048 274.968 50.4313 266.282C50.4313 260.608 50.3578 254.333 50.4313 247.879C50.8141 249.196 51.4103 250.441 52.1959 251.564L57.5529 260.123C57.3953 253.248 57.3323 245.994 60.704 239.993C62.5422 236.698 65.2837 234.034 67.7626 231.202C74.485 223.548 79.4428 214.504 85.8291 206.566C90.3037 201.018 95.4505 196.038 99.6941 190.3C103.938 184.562 107.32 177.876 107.519 170.749C107.63 169.982 107.834 169.233 108.129 168.517L53.5719 239.372C52.211 240.959 51.1662 242.792 50.4943 244.773C50.5469 241.678 50.6309 238.551 50.7569 235.456C50.862 233.129 51.0405 230.802 51.2716 228.486C53.8976 217.631 53.803 204.987 55.032 194.248C55.7903 203.174 57.5521 211.986 60.2839 220.516C58.5794 207.92 58.4277 195.163 59.8322 182.53C64.3173 187.91 71.6069 191.5 78.3714 189.721C84.264 188.173 88.455 183.098 92.2259 178.308C89.8783 181.128 86.8414 183.289 83.4116 184.58C79.9818 185.872 76.2764 186.25 72.6573 185.678C69.2284 185.062 66.0076 183.596 63.2879 181.414C62.0071 180.388 60.8476 179.219 59.8322 177.929C59.0339 176.929 58.1936 174.381 57.2588 173.718C57.0422 173.528 56.7786 173.401 56.4957 173.349C56.2128 173.297 55.9212 173.322 55.6517 173.423C55.5677 167.316 57.1537 161.242 58.9184 155.525L59.5591 153.503C60.4204 150.798 61.3027 148.008 61.9435 145.175C62.9165 140.573 63.4476 135.887 63.5295 131.183C65.3677 137.279 65.7353 143.817 67.8886 149.818C70.2309 156.378 74.6005 161.979 78.8861 167.453C71.9634 151.594 67.4221 134.795 65.4097 117.602C68.1197 122.192 70.8927 126.846 74.7686 130.51C78.6445 134.173 83.8334 136.827 89.1378 136.353C82.1948 135.3 77.426 128.762 74.8316 122.224C72.2372 115.686 70.9137 108.537 66.8487 102.768V102.388C66.4899 102.476 66.1626 102.662 65.9034 102.925C65.5952 103.285 65.3566 103.699 65.1996 104.147C63.9497 107.031 62.7102 109.927 61.4708 112.812C61.2082 113.443 60.9456 114.075 60.6935 114.717C60.4725 113.834 60.3111 112.937 60.2103 112.032C60.1998 111.648 60.0632 111.278 59.8217 110.98C59.652 110.804 59.4315 110.686 59.1915 110.643C61.0086 108.232 60.2418 104.831 59.3385 101.967C58.6453 99.8617 57.931 97.4507 58.2881 95.303L50.2527 119.307C49.5175 121.487 48.7927 123.677 48.278 125.919C47.1541 130.804 47.0596 135.963 45.0744 140.554L45.3685 140.669C45.0457 141.134 44.7545 141.619 44.4967 142.122C44.012 143.278 43.8557 144.546 44.045 145.786C44.0816 146.386 44.0816 146.987 44.045 147.586C43.3623 155.904 39.0242 163.326 33.8563 171.475L33.1316 172.602C32.2242 173.956 31.3964 175.362 30.6527 176.813C28.8145 180.54 28.4994 186.183 28.6465 191.321C26.8923 190.563 23.7412 195.827 22.4177 196.88C21.0942 197.933 19.6552 198.533 18.5103 199.586L16.9452 200.196L17.2814 201.018C17.1788 201.118 17.0457 201.181 16.9032 201.197C16.4621 201.197 16.1995 200.712 16.0524 200.291C15.7898 199.544 15.5167 198.786 15.2541 198.027C14.5425 193.671 15.4548 189.204 17.817 185.478L19.004 183.804C19.214 183.509 19.4346 183.225 19.6447 182.94C20.6628 181.713 21.5565 180.387 22.3127 178.982C23.3321 176.689 23.9775 174.247 24.2244 171.749C24.4659 170.022 24.6865 168.285 24.8966 166.548C25.947 158.61 26.9238 150.408 30.6422 143.386L30.9888 142.754C31.6704 141.63 32.1869 140.414 32.5224 139.143C33.4684 135.36 34.6793 131.648 36.1462 128.035C38.0158 123.119 39.959 118.023 40.4842 112.643C40.9674 107.653 41.8707 102.673 42.7425 97.9034C43.1102 95.7978 43.4883 93.7553 43.7929 91.6602C44.5177 87.2699 45.3475 82.29 48.0995 78.4472C50.8515 74.6043 55.0215 72.3934 59.4331 70.0245C61.99 68.7594 64.4479 67.3024 66.7857 65.6658C70.0073 64.6741 72.8422 62.704 74.8988 60.0279C76.9553 57.3517 78.132 54.1015 78.2664 50.7262L81.8902 52.5686C79.9646 50.1453 78.4364 47.4301 77.363 44.525C77.1424 43.9144 76.9744 42.2404 76.5647 40.9875L81.2704 40.9243C78.781 39.5556 76.1026 37.9764 75.0942 35.3127C74.6328 33.9306 74.5033 32.4589 74.7161 31.0172C75.0715 27.7418 76.2536 24.6112 78.1508 21.9208C76.1358 24.0596 74.5651 26.5786 73.53 29.3313C72.495 32.084 72.0162 35.0155 72.1216 37.9553L71.3864 37.271C70.2107 31.5706 71.2195 25.6355 74.2119 20.6468C72.4368 21.9734 71.5124 24.0475 70.9242 26.3216C70.9242 25.2687 70.9242 24.1422 70.8507 23.0578H70.7771C72.1774 19.7138 73.8058 16.4704 75.6509 13.3507C77.237 10.5291 78.8966 7.58122 81.4175 5.51767C83.9384 3.45413 87.5517 2.35918 90.5033 3.7805C90.659 3.39855 90.9355 3.0784 91.2904 2.86919C91.6452 2.65998 92.0587 2.57327 92.4675 2.62239C93.2753 2.74962 94.0459 3.05138 94.7258 3.50677C96.0589 4.17373 97.2587 5.08012 98.2656 6.18095C98.9891 7.2135 99.6051 8.31773 100.104 9.47631C101.564 12.2874 103.749 14.6457 105.534 17.2672C106.197 18.2414 106.777 19.2698 107.267 20.3415L107.005 20.4047C107.674 23.0297 108.058 25.7195 108.15 28.4272L107.593 28.7536C107.593 28.8378 107.677 28.9221 107.719 29.0063C105.527 27.3218 103.325 25.6443 101.112 23.9738C101.673 24.396 102.133 24.9384 102.458 25.5612C102.783 26.1841 102.966 26.8719 102.992 27.5744C102.996 28.2764 102.744 28.9555 102.284 29.4846C101.823 30.0137 101.187 30.3565 100.492 30.4487C100.414 31.9848 100.414 33.5239 100.492 35.0601C100.527 35.8205 100.368 36.5774 100.03 37.2591C99.692 37.9407 99.1858 38.5246 98.5597 38.9555C97.9425 39.21 97.2757 39.3204 96.6096 39.2784C95.9436 39.2365 95.2958 39.0432 94.7153 38.7134C93.5179 38.1449 92.4465 37.3131 91.2175 36.8078C89.5396 36.1281 87.6717 36.0869 85.9656 36.6919C85.3276 36.8582 84.7499 37.2028 84.2998 37.6856C83.8498 38.1684 83.5459 38.7695 83.4237 39.4188C83.3502 40.4716 83.8439 42.0719 82.804 42.3983C83.5182 42.6673 84.1569 43.1056 84.6654 43.6758C85.1739 44.246 85.5371 44.9311 85.724 45.6726C86.091 47.1112 86.285 48.5886 86.3018 50.0734C86.6089 53.9711 87.7062 57.7649 89.5264 61.2229C90.8416 55.8478 92.8396 50.6641 95.4716 45.7989C95.7286 45.2379 96.0844 44.7279 96.5219 44.2934C96.9997 43.8825 97.5934 43.6312 98.2204 43.5746C98.8474 43.518 99.4764 43.6588 100.02 43.9775C99.3486 46.8306 99.3811 49.8046 100.114 52.6423C100.226 53.3567 100.574 54.0128 101.102 54.5058C101.701 54.8824 102.401 55.0661 103.108 55.0322C104.851 55.1059 106.595 55.1165 108.36 55.0322C107.719 53.632 105.933 53.2108 104.862 52.1054C104.04 51.0737 103.517 49.8354 103.349 48.5257C102.95 46.6307 102.551 44.6092 103.255 42.8194C103.885 44.6303 106.091 45.283 107.456 46.6622C109.042 48.2941 109.284 50.8736 110.713 52.6107C111.206 53.2214 111.511 55.9903 112.015 57.5169C110.751 56.8994 109.667 55.9679 108.864 54.8111L107.814 55.2639C109.263 58.5171 119.536 62.56 122.76 63.2232C124.02 63.4205 125.305 63.3848 126.552 63.118L126.941 63.0653C129.458 62.6955 132.003 62.551 134.546 62.6337C136.447 62.6337 138.485 62.7074 140.459 62.7179H142.718C152.054 62.8126 161.234 60.3127 169.24 55.4955C170.805 54.5585 171.078 53.0213 171.34 51.5368C171.44 50.8757 171.594 50.2242 171.803 49.5891C172.121 48.6853 172.503 47.8057 172.948 46.957C178.199 46.1975 183.385 45.0396 188.462 43.4932C187.233 46.957 186.151 50.4419 185.09 53.8741C184.271 56.5062 183.43 59.2435 182.537 61.9177C182.317 62.5494 182.096 63.1917 181.844 63.8234L174.492 47.0939L174.071 47.2834L173.431 47.1887L167.212 71.9617L163.694 72.9093C164.42 72.3606 164.988 71.6272 165.337 70.7849C165.686 69.9427 165.804 69.0223 165.679 68.1189C155.419 72.323 144.892 75.8401 134.168 78.6472C131.93 79.2368 129.126 79.6053 127.708 77.7839C128.054 75.5414 128.39 73.2883 128.758 71.0458C125.754 72.983 122.55 75.1729 121.405 78.5735C120.208 82.1952 121.742 86.1012 122.025 89.9125C122.016 91.8066 121.858 93.697 121.552 95.5662C121.437 95.7978 121.311 96.0084 121.206 96.24C120.563 97.8754 120.088 99.5722 119.788 101.304C118.737 106.4 117.855 111.601 117.183 116.76L117.12 117.244C116.545 115.614 115.746 114.073 114.746 112.664C113.139 110.295 111.29 107.979 110.544 105.21C110.456 104.893 110.456 104.558 110.544 104.241C110.702 103.789 111.154 103.526 111.511 103.189C113.612 101.473 113.097 98.2298 112.425 95.6188C110.419 97.0162 108.018 97.7287 105.576 97.6508C102.982 97.556 100.104 96.5979 97.9715 98.1245C96.1123 99.4406 95.6921 101.957 95.5451 104.231C95.3875 106.105 95.3245 108.137 96.3959 109.674C96.9549 110.391 97.6252 111.013 98.3811 111.517C99.9987 112.727 109.368 121.287 110.986 120.581C112.11 120.076 108.223 108.59 108.013 106.452C111.267 110.581 114.222 114.936 116.857 119.486C116.5 122.782 116.269 126.14 116.122 129.33C114.647 128.596 113.022 128.214 111.374 128.214C105.072 127.614 99.1269 125.182 93.2868 122.782C92.1651 122.38 91.1046 121.823 90.1356 121.129C89.0092 120.109 88.0581 118.91 87.3206 117.581C83.7696 112.255 79.9227 107.134 75.798 102.241C73.8968 99.9038 71.817 97.4402 68.9285 96.5979C72.0796 101.757 76.1131 106.473 78.3819 112.075C80.0355 116.163 81.9295 120.15 84.0539 124.014C84.8498 125.629 85.9155 127.096 87.2051 128.351C90.0306 130.868 94.1061 131.215 97.8664 131.51C103.98 131.889 110.303 132.215 116.09 130.278C115.922 134.121 115.87 137.648 115.849 140.596C115.923 142.288 116.468 143.926 117.424 145.323C117.603 145.628 117.771 145.934 117.95 146.26C122.151 154.061 125.849 161.736 125.764 169.959C125.809 172.144 126.102 174.316 126.636 176.434C126.836 177.392 127.046 178.361 127.204 179.371C126.51 199.838 125.838 221 125.439 241.394C125.231 234.494 124.554 227.617 123.412 220.811L120.702 242.415C119.924 248.584 119.137 254.838 116.836 260.618C118.807 258.83 121.183 257.55 123.758 256.891C124.373 256.659 125.034 256.578 125.687 256.655C126.339 256.732 126.964 256.964 127.508 257.333C128.254 257.997 128.632 259.197 129.609 259.386C130.586 259.576 131.521 258.334 132.224 257.47C133.004 256.497 134.036 255.759 135.208 255.338C136.379 254.916 137.644 254.827 138.863 255.08C138.863 254.247 138.649 253.428 138.243 252.701C135.89 234.297 133.541 215.887 131.195 197.469C130.514 191.338 129.526 185.245 128.233 179.213H128.306C128.138 178.161 127.928 177.203 127.718 176.213C127.208 174.177 126.926 172.09 126.878 169.991C126.972 161.505 123.17 153.682 118.927 145.776L118.401 144.818C117.53 143.58 117.031 142.119 116.962 140.606C116.923 132.673 117.358 124.746 118.265 116.865C118.937 111.738 119.809 106.558 120.859 101.483C121.144 99.8298 121.598 98.2104 122.214 96.6506C123.254 94.5057 124.579 92.5118 126.153 90.7231C127.056 89.5966 128.107 88.3648 129.157 87.1435C130.208 85.9222 131.142 84.7536 132.056 83.6271C139.672 80.816 147.633 78.5524 155.333 76.3626C157.58 75.7203 159.797 75.1413 162.013 74.5622C163.62 74.1411 165.269 73.7094 166.918 73.2567L162.139 92.2813C161.089 92.913 160.427 93.5974 160.427 94.3344C160.45 94.6228 160.537 94.9025 160.68 95.1536C160.824 95.4047 161.02 95.6211 161.257 95.7873L161.194 96.0189L161.75 96.1557C164.408 97.9245 170.805 99.1774 178.273 99.1774C188.125 99.1774 196.129 97.0085 196.129 94.3344C196.129 93.5868 195.468 92.8709 194.333 92.2287L191.97 86.8277C194.501 88.6596 201.014 89.9862 208.66 89.9862C218.513 89.9862 226.517 87.8173 226.517 85.1432L227 84.9536ZM47.8369 211.788C47.0057 212.628 45.877 213.105 44.6966 213.115C43.5161 213.125 42.3796 212.667 41.5346 211.841L41.356 211.672L42.0808 209.724C46.3138 207.113 47.5113 210.325 47.8369 211.788ZM41.5871 205.303C42.1458 204.79 42.8253 204.427 43.5618 204.25C42.8676 204.528 42.2056 204.881 41.5871 205.303ZM22.2286 215.178L21.6929 215.283C21.6404 215.283 15.7688 216.547 10.2858 217.494L9.89719 217.557L9.83417 217.937C9.41401 220.411 7.29225 220.937 5.63265 220.937C4.47381 220.881 3.38094 220.38 2.58058 219.538C1.78022 218.696 1.33377 217.578 1.33377 216.415C1.33377 215.252 1.78022 214.134 2.58058 213.292C3.38094 212.45 4.47381 211.949 5.63265 211.893C6.38913 211.895 7.13277 212.089 7.79405 212.458C8.45534 212.826 9.01269 213.356 9.41401 213.999L9.62409 214.315L22.7853 211.62L22.3757 210.567C22.4296 210.357 22.4474 210.14 22.4282 209.924C22.3232 208.198 21.1362 206.692 20.8842 204.987C20.7751 204.214 20.8559 203.427 21.1195 202.693C21.3831 201.959 21.8216 201.301 22.3967 200.775L25.1697 208.314L26.9553 211.356L25.1697 214.315L63.6451 354.604L63.7396 355.604L53.3409 340.591L22.2286 215.178ZM31.619 177.276C32.3451 175.878 33.1481 174.521 34.0244 173.212L34.7492 172.086C38.8246 165.664 44.3496 156.872 45.1269 147.65C45.1796 146.994 45.1796 146.336 45.1269 145.681C44.9586 144.645 45.0711 143.584 45.4525 142.607C46.0039 141.602 46.6362 140.644 47.3432 139.743C47.7423 139.216 48.131 138.69 48.4986 138.143C50.1914 135.398 51.4792 132.423 52.322 129.309C53.2673 126.203 54.1076 122.992 54.8114 119.834V119.686C55.4521 116.791 56.1244 113.791 58.2566 111.99C58.5717 111.727 58.8974 111.653 58.9604 111.706C59.017 111.839 59.0456 111.982 59.0444 112.127C59.2263 113.661 59.557 115.174 60.0318 116.644C59.8777 117.223 59.7757 117.815 59.7272 118.413C59.4961 121.803 61.1977 124.951 62.4792 128.109C62.5451 133.748 62.0099 139.377 60.8826 144.902C60.2524 147.681 59.3805 150.461 58.5297 153.145L57.889 155.167C55.9878 161.273 54.2757 167.801 54.5803 174.455C52.4795 178.108 52.5426 189.047 52.5741 191.216C52.6266 195.911 52.5741 200.891 52.406 205.955H52.2275C52.1224 211.219 51.5027 216.484 50.8935 221.537C50.3578 226.064 49.8431 230.739 49.612 235.413C49.1814 246.047 49.2024 256.996 49.2759 266.303C49.3389 273.284 49.5385 280.317 49.8536 287.36L30.285 214.778L41.0094 212.862C41.8986 213.628 43.0044 214.097 44.1724 214.203C45.3404 214.309 46.5122 214.047 47.5243 213.453C48.5364 212.859 49.3383 211.964 49.8179 210.891C50.2975 209.818 50.4309 208.622 50.1996 207.47C49.9682 206.317 49.3836 205.266 48.5273 204.463C47.6711 203.66 46.586 203.145 45.4235 202.989C44.261 202.834 43.0792 203.047 42.043 203.597C41.0069 204.148 40.1681 205.009 39.6439 206.061L28.5729 208.166C28.7961 207.679 28.9244 207.154 28.9511 206.619C29.0771 204.183 29.1646 201.751 29.2137 199.322C29.2137 198.617 29.3502 197.627 29.4447 196.585H30.0014C29.5498 190.563 29.2137 182.14 31.619 177.245V177.276ZM21.756 177.403C21.6719 177.613 21.5879 177.824 21.4934 178.034C21.6001 177.821 21.688 177.599 21.756 177.371V177.403ZM16.6721 171.191C17.4236 171.183 18.1639 171.374 18.8182 171.745C19.4725 172.115 20.0178 172.652 20.3992 173.301C20.7805 173.951 20.9843 174.689 20.9902 175.442C20.996 176.196 20.8037 176.937 20.4325 177.592L20.3485 177.739V177.929C20.4537 178.908 20.2596 179.896 19.7918 180.761L18.0901 183.193L17.607 183.856C17.3212 182.886 17.2673 181.862 17.4498 180.867C17.6323 179.872 18.046 178.934 18.6573 178.129C17.8561 178.415 16.9936 178.482 16.1577 178.325C15.3219 178.168 14.5426 177.792 13.8991 177.234C13.1677 176.568 12.6642 175.687 12.4601 174.718C12.6368 173.725 13.1548 172.825 13.9242 172.175C14.6937 171.525 15.6659 171.166 16.6721 171.159V171.191ZM192.894 82.7532L208.062 38.6397V80.3107C201.759 80.3738 196.329 81.3003 193.304 82.6795L192.894 82.7532ZM225.246 83.4376C222.714 81.6793 216.517 80.4159 209.186 80.3528V38.4712L225.246 83.4376ZM196.592 18.5412L196.497 18.6886V18.857C196.497 24.6476 193.976 30.3223 191.529 35.8076V35.9234L190.09 36.355V17.9621L190.226 18.0148C189.859 17.4883 190.772 16.8461 191.277 17.183C191.517 17.3953 191.699 17.6648 191.807 17.9667C191.916 18.2685 191.946 18.5928 191.896 18.9097C191.797 19.5464 191.911 20.1983 192.222 20.7626C192.377 20.9295 192.573 21.0535 192.79 21.1225C193.006 21.1916 193.238 21.2034 193.46 21.1568C193.683 21.1102 193.89 21.0069 194.061 20.8567C194.233 20.7065 194.363 20.5145 194.438 20.2994C194.575 19.7414 194.333 19.0676 194.711 18.6254C194.947 18.3953 195.255 18.254 195.583 18.2253L197.19 17.8674C196.961 18.0631 196.759 18.2899 196.592 18.5412ZM189.102 9.95008L189.302 9.47631C189.284 9.65056 189.214 9.81546 189.102 9.95008ZM191.728 5.84405C192.978 4.20164 193.829 3.02247 195.867 2.78032C197.064 2.71116 198.263 2.89406 199.386 3.31726C200.85 3.61184 202.169 4.39942 203.125 5.54926C203.443 6.08848 203.651 6.6864 203.734 7.30748C203.92 8.59266 203.852 9.90183 203.535 11.1608C202.201 11.6241 203.083 13.6245 201.434 14.1193C200.247 14.4562 199.417 12.9717 199.091 11.782C198.794 12.4675 198.349 13.0786 197.789 13.5718C197.498 13.8199 197.133 13.9622 196.751 13.9756C196.37 13.9889 195.995 13.8726 195.688 13.6455C195.279 13.2876 195.026 12.5927 194.48 12.5927C193.934 12.5927 193.703 13.0138 193.272 13.1507C192.527 13.4034 191.802 12.5822 191.707 11.7925C191.741 11.0158 191.825 10.2421 191.959 9.47631C191.959 8.67616 191.529 7.74967 190.741 7.6865C190.586 7.67557 190.43 7.70456 190.289 7.77073C190.447 7.5391 190.594 7.31801 190.772 7.09692C191.13 6.6442 191.424 6.2336 191.728 5.84405ZM179.933 35.4601C180.476 34.0886 181.096 32.7494 181.792 31.4489C183.916 28.0112 185.59 24.3134 186.771 20.4468C186.897 19.9204 187.012 19.394 187.117 18.857C187.112 18.8778 187.112 18.8994 187.117 18.9202C187.525 18.9642 187.935 18.8519 188.264 18.6059C188.593 18.3599 188.818 17.9984 188.892 17.5936V36.713C184.491 38.1133 180.489 39.5767 177.149 40.9243C178.259 39.2022 179.192 37.3714 179.933 35.4601ZM174.418 49.7786L181.193 65.192C181.048 65.4581 180.887 65.7148 180.71 65.9606C179.124 68.0663 176.508 69.1191 173.483 70.0982H173.389L174.418 49.7786ZM173.126 53.074L172.223 70.5404C170.962 70.9405 169.702 71.3195 168.441 71.688L173.126 53.074ZM168.147 72.9093C169.481 72.5303 170.836 72.1302 172.181 71.6985L171.267 89.8809C168.597 90.1195 165.967 90.6961 163.442 91.597L168.147 72.9093ZM192.054 91.2706C187.567 89.993 182.915 89.3934 178.252 89.4913C176.151 89.4913 174.239 89.5861 172.401 89.7651L173.336 71.33L173.84 71.1616C176.445 70.2877 179.691 69.2033 181.613 66.6239L181.739 66.4238L192.653 91.2601L192.054 91.2706ZM182.443 65.2763C182.896 64.3328 183.283 63.3582 183.598 62.3599C184.502 59.6752 185.352 56.9379 186.172 54.2847C187.306 50.6209 188.483 46.9149 189.817 43.1774L191.739 42.5983C197.111 40.9685 202.374 38.9957 207.494 36.6919L191.277 83.964H191.35C191.183 84.1431 191.041 84.3452 190.93 84.5641L182.443 65.2763Z" fill="#1F2023"/>
<path d="M8.01376e-07 2.10566L0.693251 -2.24909e-06C0.330441 0.651205 0.0951374 1.36591 8.01376e-07 2.10566Z" transform="translate(58.2041 93.1656)" fill="#1F2023"/>
<path d="M2.24385e-06 1.1909C0.0282804 1.66392 0.208145 2.11515 0.512843 2.47747C0.81754 2.83978 1.23079 3.09383 1.69111 3.20181C2.60787 3.40953 3.54524 3.51196 4.48512 3.50713C7.45769 3.75981 10.0731 5.49697 12.531 7.1815C11.1915 5.26499 9.42564 3.68706 7.37295 2.57244C5.32025 1.45781 3.03702 0.837061 0.703754 0.759244L2.00622 0.306528C1.40751 -0.419925 0.0525212 0.253886 2.24385e-06 1.1909Z" transform="translate(74.0228 64.517)" fill="#1F2023"/>
<path d="M8.83369 -1.60649e-06C8.34419 0.0358 7.87796 0.223467 7.49971 0.536944C4.82983 2.3062 2.32027 4.30726 2.5644e-06 6.51701H0.210075C0.126045 6.51701 0.0840297 6.7381 0.210075 6.80127C0.336121 6.86444 0.525191 6.80128 0.672244 6.73811C3.55779 5.17226 6.36239 3.46098 9.07528 1.61083C9.36933 1.46739 9.59558 1.21415 9.7055 0.905432C9.83155 0.431659 9.31686 0.0105267 8.83369 -1.60649e-06Z" transform="translate(96.5324 63.2759)" fill="#1F2023"/>
<path d="M3.8466e-06 1.17656C1.65766 0.973991 3.33957 1.15319 4.91769 1.70053C6.49582 2.24786 7.92854 3.14891 9.10679 4.33505C11.4434 6.73997 13.2882 9.57976 14.5372 12.6945C13.4869 9.35704 12.1529 5.99852 9.76852 3.45067C7.38416 0.902822 3.69733 -0.68695 0.315113 0.292182L3.8466e-06 1.17656Z" transform="translate(105.167 75.4702)" fill="#1F2023"/>
</svg>
