<svg width="287" height="416" viewBox="0 0 287 416" fill="none" xmlns="http://www.w3.org/2000/svg">
<path d="M17.89 125.84C14.87 109.347 12.4 92.7733 10.48 76.12L3.66211e-06 6.10352e-06C1.94 24.24 1.69999 49.9 7.59999 73.48C11.09 87.22 3.54 117.8 17.89 125.84Z" transform="translate(137.927 155.078)" fill="#231F20"/>
<path d="M4.27246e-06 2.69C0.319719 1.82753 0.498668 0.919272 0.530003 -7.32422e-06C0.269061 0.877978 0.0916076 1.77865 4.27246e-06 2.69Z" transform="translate(130.537 128.658)" fill="#231F20"/>
<path d="M26.82 12.26C25.9433 11.848 25.2164 11.1735 24.74 10.33C22.7512 7.27515 21.895 3.62031 22.32 -4.88281e-06C21.09 3.45 17.83 6.18 14.45 7.91C10.23 10.08 5.45 11.42 1.95 14.58L1.11 19.1L3.05176e-07 23.86C7.77 19.24 16.35 14.44 25.3 15.7C29.95 16.35 35.3 18.43 38.87 15.32C37.9929 14.4647 37.3378 13.4084 36.9614 12.2425C36.585 11.0767 36.4987 9.8367 36.71 8.63C33.2 7.63 30.28 13.55 26.82 12.26Z" transform="translate(108.197 131.348)" fill="#231F20"/>
<path d="M-1.83105e-06 5.52L0.599997 6.10352e-07C0.224811 1.81672 0.0239011 3.6651 -1.83105e-06 5.52Z" transform="translate(90.1871 128.588)" fill="#231F20"/>
<path d="M14.26 1.62223C9.88 -0.377768 4.82 -0.107763 6.10352e-07 0.252237V1.41223C4.64 1.76223 9.31 3.78224 12 7.54224C14.69 11.3022 15.08 16.9022 12.13 20.5422C14.0338 18.8762 15.4892 16.759 16.3627 14.3847C17.2362 12.0104 17.5001 9.45491 17.13 6.95223C18.2157 9.04793 19.1709 11.2087 19.99 13.4222C21.91 8.93224 18.64 3.66223 14.26 1.62223Z" transform="translate(115.377 106.486)" fill="#231F20"/>
<path d="M284.447 101.358L285.367 101.128L272.737 51.2179C273.57 50.679 274.262 49.9501 274.757 49.0913C275.253 48.2324 275.537 47.2681 275.587 46.2779C275.587 42.2779 270.727 38.9479 264.737 38.9479C262.628 38.9307 260.54 39.3708 258.617 40.2379C251.748 35.1732 244.201 31.0999 236.197 28.1379L236.257 27.1379C236.607 20.9579 238.327 17.4579 241.367 16.7579L241.837 16.6379L242.027 16.1879C242.778 14.1584 242.996 11.9701 242.66 9.8324C242.324 7.69466 241.445 5.6789 240.107 3.97786C239.19 2.67057 237.936 1.63563 236.478 0.982544C235.021 0.329461 233.414 0.0825224 231.827 0.267857C230.505 0.454334 229.241 0.932552 228.127 1.66786C227.835 1.26437 227.464 0.924202 227.037 0.667857C226.474 0.315943 225.839 0.0962157 225.179 0.0252006C224.519 -0.0458144 223.852 0.0337322 223.227 0.257857C221.587 0.867857 220.227 2.35786 219.227 4.66786C216.787 10.3479 217.227 18.9579 220.227 24.1579C220.157 24.3179 220.097 24.4779 220.037 24.6379C218.267 24.5179 216.627 24.4979 215.097 24.5379C213.447 21.9279 209.607 20.0879 205.097 20.0879C199.097 20.0879 194.247 23.3679 194.247 27.4179C194.3 28.4424 194.601 29.4388 195.124 30.3218C195.646 31.2048 196.375 31.948 197.247 32.4879L189.537 75.8779C185.675 77.2544 181.723 78.3604 177.707 79.1879L176.707 79.3779C174.546 79.6902 172.439 80.3028 170.447 81.1979C170.017 81.4179 169.597 81.6579 169.177 81.9079L168.617 82.2179C168.017 80.7979 166.017 79.6279 164.307 79.1379C161.227 78.2679 157.767 77.4279 154.977 78.9879C153.907 79.5779 152.867 80.5379 151.647 80.3679C151.033 80.2266 150.461 79.9422 149.977 79.5379L146.127 76.7679C146.325 75.1661 146.728 73.5965 147.327 72.0979C148.635 71.9351 149.962 72.1036 151.187 72.5879C154.037 73.7679 157.427 75.5879 159.917 73.7879C161.077 71.2779 159.537 68.3479 157.677 66.2979C155.817 64.2479 153.507 62.3879 152.747 59.7279C152.087 57.4379 152.747 54.9779 152.437 52.6179C152.437 52.5479 152.437 52.4979 152.437 52.4279C153.705 50.7764 154.279 48.6957 154.037 46.6279C153.307 39.4679 147.377 33.7279 140.747 30.9379C138.973 30.0825 136.996 29.7363 135.037 29.9379C134.064 30.0596 133.154 30.4844 132.437 31.152C131.719 31.8197 131.229 32.6964 131.037 33.6579C130.307 31.1279 127.037 30.0679 124.547 30.8279C122.057 31.5879 120.117 33.5979 118.417 35.6079C114.247 40.5179 110.417 46.0979 109.527 52.4979C109.105 55.7581 109.622 59.0712 111.017 62.0479L109.317 65.0479C108.317 66.7379 107.317 68.6979 107.947 70.5479C108.357 71.8279 109.457 72.7679 110.037 73.9779C112.207 78.5379 106.377 83.2179 106.567 88.2579C106.696 89.7946 107.373 91.2338 108.474 92.3132C109.576 93.3925 111.028 94.0401 112.567 94.1379C111.333 94.2252 110.105 94.3788 108.887 94.5979C108.051 94.806 107.284 95.2266 106.658 95.8188C106.033 96.411 105.571 97.1547 105.317 97.9779C101.981 99.5834 98.7685 101.435 95.7072 103.518L95.2172 103.738C92.3272 104.998 88.7372 106.568 86.6372 109.638C85.0372 111.968 84.5672 114.738 84.1072 117.418C83.6672 119.948 83.2672 122.338 81.9772 124.308C81.2636 125.278 80.4528 126.173 79.5572 126.978C78.5582 127.908 77.6599 128.94 76.8772 130.058C74.5972 133.548 74.7372 137.938 74.8772 141.458L75.1372 149.788L74.6572 149.318L66.1572 169.528C64.8172 172.718 62.5472 175.328 60.1572 178.098C57.7947 180.58 55.7766 183.368 54.1572 186.388C53.8772 186.968 53.6072 187.558 53.3372 188.138C52.3951 190.5 51.1151 192.713 49.5372 194.708C48.4994 195.804 47.3685 196.808 46.1572 197.708C45.4872 198.248 44.8272 198.778 44.1572 199.348C42.4892 200.852 40.9842 202.528 39.6672 204.348L35.4972 187.638C36.5019 186.448 37.1037 184.97 37.2164 183.417C37.329 181.863 36.9467 180.314 36.1242 178.992C35.3018 177.669 34.0815 176.641 32.6385 176.055C31.1955 175.469 29.6039 175.355 28.0922 175.73C26.5806 176.105 25.2265 176.949 24.2243 178.141C23.2221 179.333 22.6233 180.812 22.5139 182.366C22.4045 183.919 22.79 185.468 23.6153 186.789C24.4405 188.109 25.6629 189.135 27.1072 189.718V215.718L13.5472 216.718C12.653 215.409 11.363 214.42 9.86624 213.898C8.36949 213.375 6.74468 213.345 5.22993 213.813C3.71517 214.281 2.39012 215.222 1.44896 216.498C0.507791 217.774 7.66656e-10 219.317 7.66656e-10 220.903C7.66655e-10 222.488 0.507791 224.032 1.44896 225.308C2.39012 226.584 3.71517 227.524 5.22993 227.992C6.74468 228.46 8.36949 228.431 9.86624 227.908C11.363 227.385 12.653 226.397 13.5472 225.088L28.8872 223.278L43.0172 355.468L50.5272 380.838H41.0872V415.238H225.597V380.838H187.407C187.567 377.658 186.557 374.538 185.737 371.448C183.587 363.324 182.807 354.898 183.427 346.518C184.017 338.708 185.817 330.998 185.907 323.168C186.107 307.118 179.227 290.498 184.907 275.468C194.707 249.268 185.757 218.298 185.617 190.318C185.537 173.128 185.867 153.558 181.617 136.898C180.43 132.27 178.943 127.723 177.167 123.288C177.326 120.421 177.124 117.545 176.567 114.728C175.307 106.895 174.05 99.0779 172.797 91.2779C173.16 96.8777 171.818 102.456 168.947 107.278C166.85 101.46 163.644 96.1047 159.507 91.5079C163.483 96.9091 165.719 103.394 165.917 110.098C164.42 106.525 162.22 103.289 159.447 100.583C156.675 97.8772 153.386 95.7568 149.777 94.3479C155.147 99.8479 160.777 106.348 162.667 113.478C161.041 114.503 159.529 115.7 158.157 117.048L142.297 131.978C147.838 131.121 153.017 128.692 157.217 124.978L146.017 135.838C150.463 136.078 154.894 135.158 158.877 133.168C158.477 136.978 161.597 140.108 163.997 143.098C166.397 146.088 168.117 150.798 165.337 153.438C164.747 154.161 163.965 154.705 163.082 155.007C162.198 155.31 161.247 155.358 160.337 155.148C164.651 175.441 168.964 195.731 173.277 216.018C166.297 193.951 159.32 171.881 152.347 149.808C156.574 177.141 161.06 204.411 165.807 231.618C157.477 208.368 149.067 184.688 147.927 160.018C145.116 184.98 147.659 210.256 155.387 234.158C165.497 265.308 184.577 296.348 177.657 328.348C177.047 331.178 177.037 333.268 178.547 335.738C169.157 322.678 172.837 303.158 162.717 290.658C162.267 304.05 164.547 317.394 169.417 329.878C163.261 319.554 158.299 308.563 154.627 297.118C154.167 310.218 158.097 323.018 161.107 335.768C164.616 350.581 166.927 365.653 168.017 380.838H155.447C155.917 371.668 155.187 362.448 154.447 353.278L149.317 290.418C140.147 317.528 150.567 348.898 143.707 376.678C140.627 332.678 137.554 288.678 134.487 244.678C129.257 254.748 130.717 266.818 131.987 278.098C135.479 309.047 136.536 340.223 135.147 371.338C135.197 373.395 134.812 375.44 134.017 377.338C133.233 378.78 132.098 380.001 130.717 380.888H55.3872V354.158L43.5072 223.528L58.3772 222.398C59.236 223.364 60.3647 224.052 61.6177 224.371C62.8708 224.69 64.1907 224.626 65.4071 224.188C66.6236 223.749 67.6808 222.956 68.4424 221.912C69.204 220.867 69.6351 219.618 69.68 218.325C69.7249 217.033 69.3816 215.757 68.6944 214.662C68.0071 213.566 67.0075 212.702 65.8244 212.181C64.6413 211.659 63.329 211.504 62.0569 211.735C60.7847 211.966 59.611 212.573 58.6872 213.478L50.9472 214.038C52.4485 213.163 53.7826 212.029 54.8872 210.688C56.7334 208.242 58.2654 205.575 59.4472 202.748C60.1072 201.348 60.7872 199.908 61.5272 198.558C65.3072 191.758 71.3772 186.458 77.2472 181.318C82.5672 176.678 88.0272 171.868 91.9572 165.908C92.3991 166.617 92.9727 167.235 93.6472 167.728C94.3023 168.084 95.0455 168.246 95.7894 168.195C96.5333 168.143 97.2472 167.881 97.8472 167.438C98.8472 175.698 97.5172 184.158 96.2372 192.358C95.2875 197.831 94.6399 203.353 94.2972 208.898C94.2972 209.898 94.2372 210.838 94.2172 211.818C94.1272 215.668 94.0372 219.658 92.7172 223.218C91.5972 226.218 92.0472 229.678 92.4872 232.988C92.6272 233.988 92.7572 235.048 92.8372 235.988C93.0772 238.988 93.1872 242.138 93.2872 245.208L93.4372 249.848C93.6472 256.388 93.8672 263.698 91.7672 270.278C90.86 271.679 90.3678 273.309 90.3472 274.978C90.0672 277.508 90.8972 279.978 91.7172 282.278C91.9572 282.978 92.1972 283.678 92.4272 284.398C93.1083 286.651 93.5409 288.971 93.7172 291.318C93.2187 296.713 93.035 302.132 93.1672 307.548C93.2572 320.648 88.1672 335.248 84.5572 347.838C82.9672 353.328 80.7072 358.618 79.5572 364.198C78.4072 369.778 78.3872 375.898 81.1672 380.878C84.5972 377.978 87.4272 376.508 90.8572 373.608C99.9372 376.018 109.857 371.318 115.577 363.878C121.297 356.438 123.397 346.778 123.737 337.398C121.762 343.853 117.948 349.592 112.762 353.913C107.576 358.234 101.243 360.95 94.5372 361.728C94.6072 360.348 94.6672 358.978 94.7372 357.598C113.547 346.918 125.027 324.598 122.787 303.068C118.333 313.743 110.107 322.407 99.6772 327.408C117.927 314.048 127.857 290.158 124.457 267.798C119.92 278.641 112.433 287.995 102.847 294.798C105.617 285.038 112.617 277.158 118.947 269.228C123.847 263.098 128.717 255.398 126.397 247.898C123.101 252.498 118.324 255.827 112.867 257.328C117.117 255.671 120.737 252.716 123.209 248.882C125.682 245.049 126.881 240.533 126.637 235.978C122.288 242.28 115.689 246.675 108.197 248.258C114.798 242.887 119.798 235.809 122.655 227.793C125.511 219.778 126.114 211.132 124.397 202.798C122.017 219.368 111.907 235.978 99.4972 247.138C97.4972 248.978 95.0872 251.438 95.9772 254.028C96.4245 254.945 96.9393 255.827 97.5172 256.668C99.1372 259.838 97.0672 262.898 94.7372 266.018C95.4805 260.655 95.6815 255.231 95.3372 249.828L95.1872 245.128C95.0872 242.128 94.9872 238.958 94.7372 235.878C94.7372 235.458 94.6372 235.008 94.5872 234.588L95.4872 234.148C102.013 227.281 108.108 220.017 113.737 212.398C120.077 203.828 125.977 194.398 127.137 183.778C121.771 194.88 114.717 205.085 106.227 214.028C100.827 219.718 94.4272 226.028 94.4872 233.698C94.4872 233.378 94.4172 233.068 94.3772 232.698C93.9672 229.618 93.5472 226.438 94.5072 223.838C95.9372 219.978 96.0272 215.838 96.1172 211.838C96.1172 210.838 96.1672 209.918 96.2072 208.958C96.5467 203.483 97.1877 198.032 98.1272 192.628C99.4872 183.868 100.877 174.808 99.5772 165.868C99.7024 165.725 99.8193 165.574 99.9272 165.418C102.457 161.618 102.097 156.658 101.637 152.118C100.971 145.145 100.274 138.171 99.5472 131.198L96.5472 136.088C96.0472 133.378 95.5472 130.668 95.0372 127.948C94.5372 134.741 94.0305 141.525 93.5172 148.298C91.2578 143.907 90.1174 139.026 90.1972 134.088C89.5305 140.215 88.8638 146.351 88.1972 152.498C86.8591 151.505 85.7828 150.202 85.0615 148.7C84.3402 147.198 83.9955 145.543 84.0572 143.878C84.0833 147.742 82.8396 151.509 80.5172 154.598C79.2672 153.598 78.0372 152.518 76.8272 151.398H77.0572L76.7372 141.398C76.6072 137.398 76.6572 133.858 78.4472 131.098C79.1621 130.095 79.9762 129.167 80.8772 128.328C81.8729 127.402 82.7679 126.372 83.5472 125.258C85.0572 122.958 85.5472 120.258 85.9672 117.648C86.1672 116.458 86.3772 115.318 86.6572 114.228C86.6253 114.813 86.6826 115.4 86.8272 115.968C92.9855 113.9 99.5244 113.217 105.977 113.968C103.417 108.828 95.9772 106.968 91.2672 110.328C101.797 102.788 114.537 94.8579 126.827 98.9379C128.937 99.6379 130.957 100.688 133.167 100.938C139.347 101.738 144.557 96.3479 147.167 90.5879C149.606 90.6669 152.039 90.3009 154.347 89.5079C153.956 88.7635 153.446 88.088 152.837 87.5079C153.63 87.3994 154.413 87.2255 155.177 86.9879L164.767 85.3479C165.961 85.1954 167.132 84.9035 168.257 84.4779C168.924 84.1927 169.569 83.8585 170.187 83.4779C170.567 83.2579 170.957 83.0279 171.347 82.8379C173.185 82.0209 175.126 81.4623 177.117 81.1779L178.117 80.9879C181.872 80.231 185.573 79.2289 189.197 77.9879L188.467 82.0579C187.998 80.8784 187.27 79.8192 186.337 78.9579C180.917 85.3879 182.817 94.7179 184.737 103.188L184.197 103.608C184.444 103.894 184.715 104.158 185.007 104.398C185.617 107.088 186.197 109.668 186.497 112.018C187.817 122.288 185.697 132.648 183.587 142.778C187.387 142.998 190.887 140.318 192.777 137.008C194.667 133.698 195.257 129.828 195.777 126.058C196.627 120.318 197.437 114.198 195.047 108.898C194.574 107.88 194.022 106.9 193.397 105.968C194.383 105.704 195.331 105.314 196.217 104.808C198.055 103.668 199.736 102.293 201.217 100.718C202.318 99.9646 203.268 99.0115 204.017 97.9079C204.407 97.5279 204.797 97.1479 205.187 96.7879C206.721 95.4383 208.356 94.208 210.077 93.1079C211.736 92.4968 213.355 91.7855 214.927 90.9779C215.127 90.8679 215.307 90.7279 215.507 90.6079C222.507 89.2479 227.507 85.9079 227.507 81.9979C227.502 81.8 227.482 81.6027 227.447 81.4079C229.18 79.7176 230.605 77.7379 231.657 75.5579C232.668 73.3367 233.342 70.9775 233.657 68.5579C234.518 66.2334 234.925 63.7656 234.857 61.2879C234.757 59.0679 234.717 56.8479 234.647 54.6379L235.837 34.0479C242.39 36.6556 248.599 40.0541 254.327 44.1679C254.034 44.8188 253.881 45.524 253.877 46.2379C253.928 47.2644 254.228 48.2631 254.75 49.1481C255.273 50.033 256.003 50.7777 256.877 51.3179L247.027 106.728L248.327 106.358C249.327 111.028 257.427 114.668 267.327 114.668C277.857 114.668 286.387 110.518 286.387 105.398C286.347 104.63 286.155 103.877 285.822 103.184C285.489 102.49 285.021 101.87 284.447 101.358ZM109.447 263.358C102.137 267.218 97.4472 274.878 95.2472 282.858C95.0172 283.698 94.8272 284.548 94.6472 285.398C94.5072 284.868 94.3972 284.318 94.2372 283.788C94.0072 283.058 93.7572 282.328 93.5072 281.618C92.5072 278.618 91.5672 276.038 92.7072 273.308C92.7072 273.218 92.7672 273.118 92.8072 273.028C97.0135 267.907 102.925 264.474 109.457 263.358H109.447ZM37.0172 215.048H35.5572L37.6872 214.708L37.3672 214.988L37.0172 215.048ZM44.8972 355.098L30.5972 221.198L12.4272 223.338L12.1872 223.748C11.5791 224.806 10.6386 225.634 9.51169 226.103C8.38479 226.572 7.13461 226.655 5.95534 226.341C4.77607 226.026 3.73372 225.331 2.99021 224.363C2.24669 223.395 1.84363 222.208 1.84363 220.988C1.84363 219.767 2.24669 218.581 2.99021 217.613C3.73372 216.645 4.77607 215.95 5.95534 215.635C7.13461 215.32 8.38479 215.404 9.51169 215.873C10.6386 216.342 11.5791 217.17 12.1872 218.228L12.4872 218.748L34.6972 217.128L53.0172 380.838H52.5072L44.8972 355.098ZM40.2772 214.818L40.8272 214.238L40.7072 214.448L41.3172 214.748L40.2772 214.818ZM59.8672 197.628C59.0872 199.038 58.3972 200.508 57.7272 201.938C56.6023 204.622 55.1514 207.158 53.4072 209.488C51.0172 212.408 46.9772 214.578 43.4672 213.548L50.9472 200.668L41.3072 210.978L40.3072 206.878C41.7715 204.677 43.4974 202.663 45.4472 200.878C46.0672 200.338 46.7072 199.818 47.3472 199.308C48.6454 198.309 49.8503 197.194 50.9472 195.978C52.6451 193.855 54.0261 191.497 55.0472 188.978C55.3172 188.398 55.5772 187.818 55.8472 187.248C57.3968 184.388 59.3166 181.746 61.5572 179.388C63.9572 176.628 66.4272 173.778 67.8972 170.298L75.3172 152.648C77.2472 154.448 79.2272 156.068 81.2372 157.648C79.7772 161.468 79.4872 166.288 77.9472 170.198C74.1172 179.978 61.3872 185.248 60.4772 195.698L62.1572 194.058C61.328 195.204 60.5634 196.396 59.8672 197.628ZM121.467 87.2779L121.657 85.2079C121.617 85.8979 121.557 86.5879 121.467 87.2779ZM118.807 88.0879C118.828 87.6931 118.805 87.2973 118.737 86.9079C117.775 86.8033 116.87 86.4013 116.147 85.7579C116.709 85.6867 117.242 85.4729 117.697 85.1368C118.153 84.8006 118.514 84.3534 118.747 83.8379C119.233 82.2474 119.233 80.5483 118.747 78.9579L117.747 73.7679C118.037 74.1779 118.327 74.5879 118.637 74.9879C119.077 75.5679 119.527 76.1479 119.907 76.7679C121.117 78.8796 121.72 81.285 121.647 83.7179C120.107 84.5579 119.427 86.2879 118.807 88.0879ZM114.807 73.0879C115.54 74.7826 115.718 76.6656 115.317 78.4679C114.987 79.6979 114.317 81.1079 114.027 82.3779C113.769 81.5589 113.63 80.7066 113.617 79.8479C113.719 77.5425 114.106 75.2586 114.767 73.0479L114.807 73.0879ZM122.537 92.4179L122.627 91.9979C123.347 91.8379 124.067 91.6579 124.787 91.5279L122.687 91.7379C123.837 86.1679 124.487 80.4579 121.627 75.8079C121.207 75.1279 120.727 74.4979 120.247 73.8679C119.767 73.2379 119.477 72.8679 119.137 72.3479C118.378 71.1789 117.83 69.886 117.517 68.5279C117.493 68.4763 117.473 68.4228 117.457 68.3679C117.261 67.4983 117.164 66.6093 117.167 65.7179C117.343 64.8077 117.808 63.9786 118.492 63.3535C119.177 62.7284 120.045 62.3407 120.967 62.2479C121.112 62.0526 121.212 61.8273 121.259 61.5885C121.305 61.3497 121.298 61.1034 121.237 60.8679C122.757 59.8488 124.355 58.9527 126.017 58.1879L120.887 59.7279C120.757 59.4179 120.627 59.1079 120.507 58.7979C122.484 57.4174 124.365 55.9039 126.137 54.2679C124.274 54.279 122.424 54.5862 120.657 55.1779C122.117 50.5979 126.727 41.1779 132.157 46.2779C135.947 42.5979 141.347 46.0379 142.577 49.0479L142.057 46.4479C143.495 48.4439 144.14 50.903 143.867 53.3479C143.263 53.2442 142.642 53.3279 142.087 53.5879L132.367 53.9079C134.864 54.5242 137.405 54.9422 139.967 55.1579L139.817 55.3179L133.817 56.7379C134.74 57.2087 135.733 57.5262 136.757 57.6779C135.897 58.3492 134.98 58.9447 134.017 59.4579C135.095 59.2438 136.201 59.2201 137.287 59.3879C136.787 60.6579 136.677 61.6379 137.167 61.6579C136.837 62.4779 136.497 63.3079 136.167 64.1379C137.377 69.6679 132.787 75.7179 127.167 76.0479C126.167 78.6179 129.727 80.5979 132.477 80.6279C135.227 80.6579 138.607 80.3379 140.087 82.6279C140.867 83.8379 140.787 85.4079 141.297 86.7579C141.786 87.813 142.543 88.7218 143.492 89.3937C144.441 90.0657 145.55 90.4774 146.707 90.5879C143.454 93.5516 139.3 95.3387 134.911 95.6632C130.522 95.9877 126.151 94.8309 122.497 92.3779L122.537 92.4179ZM213.107 32.4179L216.697 46.5879C216.64 47.0464 216.554 47.5007 216.437 47.9479C216.001 49.4461 215.401 50.8916 214.647 52.2579C214.023 53.4194 213.478 54.6222 213.017 55.8579C212.585 57.1984 212.25 58.5687 212.017 59.9579C211.81 61.1836 211.53 62.3958 211.177 63.5879C210.829 65.0588 210.082 66.4051 209.017 67.4779L207.317 34.5679C209.388 34.3165 211.364 33.5536 213.067 32.3479L213.107 32.4179ZM218.697 41.9779C218.697 41.3879 218.697 40.7979 218.697 40.2079C218.711 36.8629 219.165 33.5343 220.047 30.3079C223.838 30.616 227.583 31.337 231.217 32.4579V34.9779C231.217 42.8279 231.137 50.7279 229.667 58.4379C228.815 63.1684 227.279 67.7497 225.107 72.0379L218.617 46.3679C218.735 44.9076 218.761 43.4414 218.697 41.9779ZM209.097 69.6979C211.407 68.3679 212.257 66.3179 212.957 64.1479C213.336 62.8843 213.637 61.5985 213.857 60.2979C214.073 58.9978 214.381 57.7146 214.777 56.4579C215.205 55.2798 215.717 54.1336 216.307 53.0279C216.757 52.1179 217.217 51.1879 217.597 50.2279L223.717 74.4079C223.417 74.8979 223.097 75.4079 222.767 75.8579C218.567 73.7841 213.942 72.716 209.257 72.7379L209.097 69.6979ZM207.347 72.7479C204.991 72.8123 202.647 73.1037 200.347 73.6179C202.657 72.6179 204.947 71.6179 207.207 70.6179L207.347 72.7479ZM222.087 23.5779C219.237 18.9779 218.737 10.6479 221.017 5.40786C221.807 3.58786 222.777 2.40786 223.917 2.01786C224.269 1.90352 224.641 1.86577 225.008 1.90717C225.376 1.94857 225.73 2.06814 226.047 2.25786C226.234 2.36089 226.395 2.50403 226.52 2.67695C226.644 2.84988 226.729 3.04829 226.767 3.25786L226.957 5.15786L228.357 3.87786C229.077 3.2025 229.936 2.69335 230.873 2.38638C231.811 2.07941 232.805 1.98209 233.784 2.10132C234.764 2.22054 235.705 2.55339 236.542 3.07635C237.379 3.59932 238.091 4.29964 238.627 5.12786C239.704 6.506 240.433 8.1242 240.75 9.84452C241.066 11.5648 240.963 13.3363 240.447 15.0079C237.917 15.7979 236.177 18.0079 235.207 21.5579C235.257 20.7279 235.287 19.8979 235.337 19.0679C234.914 19.1268 234.483 19.092 234.074 18.9661C233.666 18.8401 233.29 18.6261 232.973 18.339C232.657 18.0519 232.407 17.6988 232.242 17.3047C232.077 16.9105 232 16.4849 232.017 16.0579C231.527 15.3779 230.437 16.0579 230.097 16.7879C229.757 17.5179 229.507 18.5379 228.697 18.7879C228.447 18.8454 228.184 18.8098 227.957 18.6879C227.657 16.3745 227.354 14.0645 227.047 11.7579C226.897 10.5579 226.257 8.98786 225.047 9.22786C225.317 10.5479 225.587 11.8779 225.847 13.2279C225.456 13.444 225.128 13.7572 224.893 14.1373C224.658 14.5174 224.525 14.9515 224.507 15.3979C224.552 16.4414 224.382 17.483 224.007 18.4579C223.624 18.9278 223.292 19.4374 223.017 19.9779C222.872 20.666 223.001 21.3835 223.377 21.9779C224.123 23.4065 225.216 24.6241 226.557 25.5179C224.987 25.2279 223.487 24.9979 222.057 24.8479C222.057 24.7479 222.137 24.6379 222.187 24.5279L222.407 24.0679L222.087 23.5779ZM226.467 16.3479C226.473 16.2847 226.473 16.2211 226.467 16.1579V16.3479ZM218.077 30.2179C217.304 33.179 216.871 36.2186 216.787 39.2779L214.657 30.8479C214.825 30.6476 214.976 30.4335 215.107 30.2079C216.017 30.1779 217.017 30.1779 218.077 30.2179ZM199.017 33.4779C200.925 34.3209 202.991 34.7471 205.077 34.7279H205.397L207.117 68.5879C202.057 70.8579 196.897 73.1479 191.617 75.1079L199.017 33.4779ZM193.017 76.6179C192.308 77.0943 191.654 77.6477 191.067 78.2679L191.247 77.2679L193.017 76.6179ZM189.537 82.9779C190.207 86.1079 194.087 88.7779 199.537 90.1979C198.606 90.6485 197.639 91.0231 196.647 91.3179C195.234 91.6528 193.759 91.6239 192.36 91.2339C190.961 90.8439 189.683 90.1056 188.647 89.0879C188.777 88.3679 188.887 87.6479 188.967 86.9279C189.12 85.6758 189.052 84.4066 188.767 83.1779L189.537 82.9779ZM283.187 100.288C279.897 97.8979 274.387 96.2879 268.107 96.1879L265.947 53.5579C267.703 53.4363 269.422 52.9922 271.017 52.2479L283.187 100.288ZM264.017 53.5879L266.177 96.1979C258.887 96.4079 252.717 98.6079 249.897 101.698L258.667 52.3679C260.358 53.1067 262.173 53.5206 264.017 53.5879Z" fill="#231F20"/>
<path d="M0.160005 8.93C0.0708192 9.24039 0.0708192 9.56961 0.160005 9.88C0.510005 10.88 1.94 10.32 2.72 9.68C1.98667 6.40667 1.11334 3.18 0.100007 1.83105e-06H1.2207e-06C0.802712 2.91596 0.857743 5.98716 0.160005 8.93Z" transform="translate(129.487 59.8079)" fill="#231F20"/>
<path d="M2.91555 1.15L2.68556 -9.53674e-08C1.58864 1.05265 0.735347 2.33259 0.185559 3.75C-0.0565552 4.46694 -0.061871 5.24271 0.170391 5.9629C0.402654 6.6831 0.860193 7.30959 1.47555 7.75C2.63148 5.75377 3.13493 3.4463 2.91555 1.15Z" transform="translate(220.832 6.82788)" fill="#231F20"/>
</svg>
