<svg width="516" height="182" viewBox="0 0 516 182" fill="none" xmlns="http://www.w3.org/2000/svg">
<g style="mix-blend-mode:multiply" opacity="0.6" transform="translate(0 119.588)">
<path d="M379.322 42.9011L240.69 2.50173H105.213L100.259 -1.13488e-05L0 1.1621L51.4816 39.6852H123.911L129.408 30.7602L149.365 42.9011H379.322Z" fill="#F2F2F2"/>
</g>
<g style="mix-blend-mode:multiply" opacity="0.6" transform="translate(334.652 131.843)">
<path d="M138.914 50.1569L-8.22697e-06 0.802915L87.7235 -1.13488e-05L181.348 42.2587L138.914 50.1569Z" fill="#EAEAEA"/>
</g>
<path d="M-4.11349e-06 1.9101L23.5757 -3.61098e-06V32.5054L0.20639 35.4002L-4.11349e-06 1.9101Z" transform="translate(453.019 35.5142)" fill="#D6856A"/>
<path d="M22.3121 -4.12683e-06L29.4644 1.35651L6.43204 3.43563L-1.43972e-05 1.80022L22.3121 -4.12683e-06Z" transform="translate(453.693 36.0552)" fill="#E6E7E8"/>
<path d="M-2.26242e-05 1.90587L23.5758 -3.09512e-06V32.5054L0.206423 35.3959L-2.26242e-05 1.90587Z" transform="translate(459.582 36.9805)" fill="#96632B"/>
<path d="M22.3121 6.19025e-06L29.4644 1.36073L6.43202 3.43563L1.85107e-05 1.80022L22.3121 6.19025e-06Z" transform="translate(460.15 37.5977)" fill="#E6E7E8"/>
<path d="M6.17023e-06 1.9101L23.58 -6.19025e-06V32.5054L0.210617 35.4002L6.17023e-06 1.9101Z" transform="translate(466.351 38.5356)" fill="#D15B3F"/>
<path d="M22.3079 -2.57927e-06L29.4644 1.36073L6.43204 3.43564L-1.64539e-05 1.80022L22.3079 -2.57927e-06Z" transform="translate(466.696 39.0811)" fill="#E6E7E8"/>
<path d="M71.3548 55.1984C71.3548 56.0647 71.0118 56.8956 70.4012 57.5082C69.7906 58.1208 68.9624 58.465 68.0988 58.465L3.25604 58.1523C2.39248 58.1523 1.56429 57.8081 0.953669 57.1955C0.343043 56.5829 8.22697e-06 55.752 8.22697e-06 54.8857L6.20459 3.2666C6.20459 2.40098 6.54704 1.57074 7.15676 0.958259C7.76647 0.345773 8.59357 0.00111518 9.4564 -4.64269e-06H60.2599C61.1227 0.00111518 61.9498 0.345773 62.5595 0.958259C63.1692 1.57074 63.5117 2.40098 63.5117 3.2666L71.3548 55.1984Z" transform="translate(227.152 10.0786)" fill="#7A3218"/>
<g style="mix-blend-mode:multiply" opacity="0.6">
<g style="mix-blend-mode:multiply" opacity="0.6" transform="translate(237.177 17.0005)">
<path d="M47.8718 0.485971C47.8718 0.756427 47.4505 0.971956 46.9072 0.971956H0.968806C0.433856 0.971956 3.08511e-06 0.756427 3.08511e-06 0.485971C3.08511e-06 0.21974 0.421219 -2.57927e-06 0.968806 -2.57927e-06H46.9072C47.4421 -2.57927e-06 47.8718 0.21974 47.8718 0.485971Z" fill="#7A3218"/>
</g>
<g style="mix-blend-mode:multiply" opacity="0.6" transform="translate(237.177 21.7334)">
<path d="M47.8718 0.485976C47.8718 0.756432 47.4505 0.971949 46.9072 0.971949H0.968806C0.433856 0.971949 3.08511e-06 0.756432 3.08511e-06 0.485976C3.08511e-06 0.219746 0.421219 2.57927e-06 0.968806 2.57927e-06H46.9072C47.4421 2.57927e-06 47.8718 0.219746 47.8718 0.485976Z" fill="#7A3218"/>
</g>
<g style="mix-blend-mode:multiply" opacity="0.6" transform="translate(237.177 26.4409)">
<path d="M47.8718 0.485982C47.8718 0.752212 47.4505 0.971955 46.9072 0.971955H0.968806C0.433856 0.971955 3.08511e-06 0.752212 3.08511e-06 0.485982C3.08511e-06 0.219752 0.421219 -4.12683e-06 0.968806 -4.12683e-06H46.9072C47.4421 -4.12683e-06 47.8718 0.219752 47.8718 0.485982Z" fill="#7A3218"/>
</g>
<g style="mix-blend-mode:multiply" opacity="0.6" transform="translate(237.177 31.1616)">
<path d="M47.8718 0.485975C47.8718 0.752205 47.4505 0.971948 46.9072 0.971948H0.968806C0.433856 0.971948 3.08511e-06 0.752205 3.08511e-06 0.485975C3.08511e-06 0.219745 0.421219 1.54756e-06 0.968806 1.54756e-06H46.9072C47.4421 1.54756e-06 47.8718 0.219745 47.8718 0.485975Z" fill="#7A3218"/>
</g>
<g style="mix-blend-mode:multiply" opacity="0.6" transform="translate(237.177 35.8818)">
<path d="M47.8718 0.48598C47.8718 0.75221 47.4505 0.971953 46.9072 0.971953H0.968806C0.433856 0.971953 3.08511e-06 0.75221 3.08511e-06 0.48598C3.08511e-06 0.21975 0.421219 -5.67439e-06 0.968806 -5.67439e-06H46.9072C47.4421 -5.67439e-06 47.8718 0.21975 47.8718 0.48598Z" fill="#7A3218"/>
</g>
<g style="mix-blend-mode:multiply" opacity="0.6" transform="translate(237.177 40.6021)">
<path d="M47.8718 0.485973C47.8718 0.752203 47.4505 0.971946 46.9072 0.971946H0.968806C0.433856 0.971946 3.08511e-06 0.752203 3.08511e-06 0.485973C3.08511e-06 0.219743 0.421219 0 0.968806 0H46.9072C47.4421 0 47.8718 0.219743 47.8718 0.485973Z" fill="#7A3218"/>
</g>
<g style="mix-blend-mode:multiply" opacity="0.6" transform="translate(237.177 45.3223)">
<path d="M47.8718 0.485979C47.8718 0.752209 47.4505 0.971952 46.9072 0.971952H0.968806C0.433856 0.971952 3.08511e-06 0.752209 3.08511e-06 0.485979C3.08511e-06 0.219749 0.421219 5.67439e-06 0.968806 5.67439e-06H46.9072C47.4421 5.67439e-06 47.8718 0.219749 47.8718 0.485979Z" fill="#7A3218"/>
</g>
<g style="mix-blend-mode:multiply" opacity="0.6" transform="translate(237.177 50.0469)">
<path d="M47.8718 0.485976C47.8718 0.752206 47.4505 0.967732 46.9072 0.967732H0.968806C0.433856 0.967732 3.08511e-06 0.752206 3.08511e-06 0.485976C3.08511e-06 0.219746 0.421219 2.57927e-06 0.968806 2.57927e-06H46.9072C47.4421 2.57927e-06 47.8718 0.219746 47.8718 0.485976Z" fill="#7A3218"/>
</g>
<g style="mix-blend-mode:multiply" opacity="0.6" transform="translate(237.177 54.7632)">
<path d="M47.8718 0.485977C47.8718 0.752207 47.4505 0.96772 46.9072 0.96772H0.968806C0.433856 0.96772 3.08511e-06 0.752207 3.08511e-06 0.485977C3.08511e-06 0.215521 0.421219 4.12683e-06 0.968806 4.12683e-06H46.9072C47.4421 4.12683e-06 47.8718 0.215521 47.8718 0.485977Z" fill="#7A3218"/>
</g>
</g>
<g style="mix-blend-mode:multiply" opacity="0.2" transform="translate(233.356 10.083)">
<path d="M0 2.96234C0.327724 3.06965 0.670394 3.12386 1.01513 3.12293H56.3467C56.6678 3.12433 56.9873 3.07731 57.2945 2.98347C57.2239 2.16999 56.8523 1.41252 56.2527 0.860302C55.6532 0.30808 54.8692 0.00115192 54.0553 -5.15854e-07H3.24341C2.43237 0.000577487 1.65065 0.304415 1.05092 0.852177C0.451186 1.39994 0.0764932 2.1523 0 2.96234Z" fill="#7A3218"/>
</g>
<path d="M58.5834 5.67439e-06H3.25603C1.45777 5.67439e-06 0 1.4625 0 3.2666V7.2516C0 9.05569 1.45777 10.5182 3.25603 10.5182H58.5834C60.3817 10.5182 61.8395 9.05569 61.8395 7.2516V3.2666C61.8395 1.4625 60.3817 5.67439e-06 58.5834 5.67439e-06Z" transform="translate(231.12)" fill="#853720"/>
<path d="M47.8718 0.485973C47.8718 0.752203 47.4505 0.971946 46.9072 0.971946H0.968806C0.433856 0.971946 3.08511e-06 0.752203 3.08511e-06 0.485973C3.08511e-06 0.219742 0.421219 -5.15854e-07 0.968806 -5.15854e-07H46.9072C47.4421 -5.15854e-07 47.8718 0.219742 47.8718 0.485973Z" transform="translate(237.177 16.6328)" fill="#853720"/>
<path d="M47.8718 0.485978C47.8718 0.752208 47.4505 0.971951 46.9072 0.971951H0.968806C0.433856 0.971951 3.08511e-06 0.752208 3.08511e-06 0.485978C3.08511e-06 0.219748 0.421219 5.15854e-06 0.968806 5.15854e-06H46.9072C47.4421 5.15854e-06 47.8718 0.219748 47.8718 0.485978Z" transform="translate(237.177 21.3535)" fill="#853720"/>
<path d="M47.8718 0.485971C47.8718 0.752201 47.4505 0.971957 46.9072 0.971957H0.968806C0.433856 0.971957 3.08511e-06 0.752201 3.08511e-06 0.485971C3.08511e-06 0.219741 0.421219 -2.06342e-06 0.968806 -2.06342e-06H46.9072C47.4421 -2.06342e-06 47.8718 0.219741 47.8718 0.485971Z" transform="translate(237.177 26.0737)" fill="#853720"/>
<path d="M47.8718 0.485977C47.8718 0.752207 47.4505 0.97195 46.9072 0.97195H0.968806C0.433856 0.97195 3.08511e-06 0.752207 3.08511e-06 0.485977C3.08511e-06 0.219747 0.421219 3.61098e-06 0.968806 3.61098e-06H46.9072C47.4421 3.61098e-06 47.8718 0.219747 47.8718 0.485977Z" transform="translate(237.177 30.7939)" fill="#853720"/>
<path d="M47.8718 0.485969C47.8718 0.7522 47.4505 0.971955 46.9072 0.971955H0.968806C0.433856 0.971955 3.08511e-06 0.7522 3.08511e-06 0.485969C3.08511e-06 0.215513 0.421219 -3.61098e-06 0.968806 -3.61098e-06H46.9072C47.4421 -3.61098e-06 47.8718 0.215513 47.8718 0.485969Z" transform="translate(237.177 35.5142)" fill="#853720"/>
<path d="M47.8718 0.485975C47.8718 0.752205 47.4505 0.971948 46.9072 0.971948H0.968806C0.433856 0.971948 3.08511e-06 0.752205 3.08511e-06 0.485975C3.08511e-06 0.215519 0.421219 2.06342e-06 0.968806 2.06342e-06H46.9072C47.4421 2.06342e-06 47.8718 0.215519 47.8718 0.485975Z" transform="translate(237.177 40.2344)" fill="#853720"/>
<path d="M47.8718 0.485976C47.8718 0.752206 47.4505 0.971949 46.9072 0.971949H0.968806C0.433856 0.971949 3.08511e-06 0.752206 3.08511e-06 0.485976C3.08511e-06 0.21552 0.421219 2.57927e-06 0.968806 2.57927e-06H46.9072C47.4421 2.57927e-06 47.8718 0.21552 47.8718 0.485976Z" transform="translate(237.177 44.9761)" fill="#853720"/>
<path d="M47.8718 0.485974C47.8718 0.752204 47.4505 0.96773 46.9072 0.96773H0.968806C0.433856 0.96773 3.08511e-06 0.752204 3.08511e-06 0.485974C3.08511e-06 0.215518 0.421219 5.15854e-07 0.968806 5.15854e-07H46.9072C47.4421 5.15854e-07 47.8718 0.215518 47.8718 0.485974Z" transform="translate(237.177 49.6753)" fill="#853720"/>
<path d="M47.8718 0.481749C47.8718 0.752205 47.4505 0.967722 46.9072 0.967722H0.968806C0.433856 0.967722 3.08511e-06 0.752205 3.08511e-06 0.481749C3.08511e-06 0.215519 0.421219 6.19025e-06 0.968806 6.19025e-06H46.9072C47.4421 6.19025e-06 47.8718 0.215519 47.8718 0.481749Z" transform="translate(237.177 54.3955)" fill="#853720"/>
<path d="M252.876 0H6.17023e-06V3.54129H252.876V0Z" transform="translate(140.747 70.5806)" fill="#ECECEC"/>
<path d="M6.17023e-06 11.1014L37.4845 5.67439e-06H217.877L252.876 11.1014H6.17023e-06Z" transform="translate(140.747 59.479)" fill="#EE8227"/>
<path d="M3.08511e-06 11.1014L37.4845 -4.12683e-06H217.877L252.876 11.1014H3.08511e-06Z" transform="translate(140.507 59.7202)" fill="#CFCFCF"/>
<path d="M238.099 0H-3.08511e-06V84.4753H238.099V0Z" transform="translate(148.135 74.1177)" fill="#B9B9B9"/>
<g style="mix-blend-mode:multiply" opacity="0.8" transform="translate(377.831 74.1177)">
<path d="M6.14562 0H-4.11349e-06V84.4753H6.14562V0Z" fill="#717171"/>
</g>
<g style="mix-blend-mode:multiply" opacity="0.8" transform="translate(150.144 74.1177)">
<path d="M6.14562 0H5.14186e-06V84.4753H6.14562V0Z" fill="#676767"/>
</g>
<path d="M6.14561 0H-3.08511e-06V88.0334H6.14561V0Z" transform="translate(148.135 74.1177)" fill="#CFCFCF"/>
<path d="M6.14562 0H-1.02837e-05V88.0334H6.14562V0Z" transform="translate(380.089 74.1177)" fill="#CFCFCF"/>
<g style="mix-blend-mode:multiply" opacity="0.8" transform="translate(148.135 74.1177)">
<path d="M238.099 0H-3.08511e-06V5.53168H238.099V0Z" fill="#575757"/>
</g>
<g style="mix-blend-mode:multiply" opacity="0.5" transform="translate(237.425 66.4014)">
<path d="M40.85 0.845182C40.85 0.959303 40.8276 1.07229 40.7839 1.17768C40.7402 1.28306 40.6762 1.37875 40.5956 1.45925C40.515 1.53975 40.4193 1.60348 40.314 1.64677C40.2088 1.69005 40.0961 1.71204 39.9823 1.71148H0.842431C0.617085 1.70597 0.402846 1.61228 0.245435 1.45041C0.0880244 1.28854 -7.83307e-05 1.07133 -1.12738e-05 0.845182C0.00533435 0.622715 0.0958149 0.410851 0.25266 0.253497C0.409504 0.0961435 0.620683 0.00536942 0.842431 6.45797e-06H39.9823C40.2084 -0.00116768 40.426 0.0867151 40.5883 0.244753C40.7505 0.402792 40.8445 0.618372 40.85 0.845182Z" fill="#E46825"/>
</g>
<g style="mix-blend-mode:multiply" opacity="0.5" transform="translate(211.238 66.4014)">
<path d="M22.3921 0.845182C22.3921 0.959303 22.3696 1.07229 22.326 1.17768C22.2823 1.28306 22.2183 1.37875 22.1377 1.45925C22.0571 1.53975 21.9614 1.60348 21.8561 1.64677C21.7509 1.69005 21.6382 1.71204 21.5244 1.71148H0.863507C0.634492 1.71148 0.414849 1.62022 0.252911 1.45776C0.0909728 1.29529 -4.11349e-06 1.07494 -4.11349e-06 0.845182C0.00549374 0.619105 0.098892 0.404145 0.260238 0.246224C0.421584 0.0883019 0.638094 -6.08164e-05 0.863507 6.45797e-06H21.5244C21.7505 -0.00116768 21.9681 0.0867151 22.1304 0.244753C22.2926 0.402792 22.3866 0.618372 22.3921 0.845182Z" fill="#E46825"/>
</g>
<path d="M44.6157 15.7076C42.6862 14.5849 40.6129 13.7319 38.4533 13.1721C30.9218 11.131 3.86261 1.55512 0.775056 -5.67439e-06L0.0505424 0.976183L-2.05674e-06 2.19322C3.36977 2.9243 29.9952 13.7425 37.1349 16.9035C39.1614 17.8351 41.3057 18.4834 43.5079 18.8305L44.6157 15.7076Z" transform="translate(230.669 47.5029)" fill="#C64227"/>
<g style="mix-blend-mode:multiply" transform="translate(271.822 62.1206)">
<path d="M2.35042 4.25968L3.46243 1.09872C2.77134 0.693178 2.05838 0.326384 1.32683 5.67439e-06L3.08512e-06 3.76948C0.773713 3.97688 1.55843 4.14054 2.35042 4.25968Z" fill="#C64227"/>
</g>
<g style="mix-blend-mode:multiply" transform="translate(230.669 47.5283)">
<path d="M0.775056 6.19025e-06L0.0505424 0.976182L-2.05674e-06 2.19322L0.353835 2.27775L1.10781 0.135224L0.775056 6.19025e-06Z" fill="#C64227"/>
</g>
<path d="M1.99131 0.0757382C2.21879 0.13729 2.413 0.286141 2.53201 0.490137C2.65101 0.694132 2.68526 0.936893 2.62736 1.16601L1.83968 3.4015C1.74221 3.61651 1.56404 3.78421 1.34395 3.8681C1.12386 3.95199 0.879645 3.94528 0.664457 3.84944C0.436378 3.78887 0.241474 3.6402 0.122299 3.43592C0.00312391 3.23164 -0.0306154 2.98834 0.0284345 2.75917L0.816116 0.52368C0.914439 0.309426 1.09265 0.142448 1.31243 0.0586763C1.53221 -0.0250953 1.77599 -0.0189653 1.99131 0.0757382Z" transform="translate(228.838 46.3496)" fill="#C64227"/>
<g style="mix-blend-mode:multiply" opacity="0.6" transform="translate(228.834 47.9976)">
<path d="M0.0156212 1.11141C-0.0256331 1.33957 0.015411 1.57501 0.131416 1.77557C0.247421 1.97613 0.430818 2.12873 0.648738 2.20601C0.866659 2.28329 1.10488 2.28023 1.32075 2.19736C1.53662 2.11449 1.71603 1.95722 1.82687 1.75374C5.19663 2.48481 31.822 13.3031 38.9617 16.464C40.4199 17.1203 41.934 17.6436 43.4856 18.0276L43.3382 18.4502C43.6507 18.8656 44.0698 19.1881 44.5507 19.3833C45.0316 19.5784 45.5563 19.6389 46.0688 19.5582C46.5813 19.4775 47.0623 19.2586 47.4605 18.9251C47.8587 18.5915 48.1591 18.1557 48.3297 17.6642L0.407354 0L0.0156212 1.11141Z" fill="#C64227"/>
</g>
<path d="M1.7869 -3.6006e-06H0V9.82642H1.7869V-3.6006e-06Z" transform="matrix(0.33219 -0.943212 0.942534 0.334109 222.252 39.623)" fill="#A42322"/>
<path d="M1.78689 -4.62934e-06H-2.06268e-06V9.82642H1.78689V-4.62934e-06Z" transform="matrix(0.332355 -0.943154 0.942476 0.334274 217.787 52.3535)" fill="#A42322"/>
<path d="M7.80238 -2.57186e-06H0V9.82642H7.80238V-2.57186e-06Z" transform="matrix(0.33219 -0.943212 0.942534 0.334109 219.067 48.667)" fill="#C64227"/>
<path d="M11.3732 4.709C11.2807 4.97046 11.0886 5.18445 10.8391 5.30407C10.5896 5.42368 10.303 5.43915 10.0421 5.3471L0.695209 2.03402C0.434601 1.94122 0.221299 1.74855 0.10207 1.49822C-0.017159 1.2479 -0.0325652 0.960355 0.0591871 0.698638C0.104518 0.568842 0.174957 0.449321 0.266481 0.346929C0.358005 0.244536 0.468809 0.161299 0.592501 0.102001C0.716192 0.0427037 0.850337 0.00851251 0.987241 0.00139683C1.12415 -0.00571885 1.2611 0.0143829 1.39023 0.0605395L10.7371 3.37362C10.9977 3.46642 11.211 3.65909 11.3303 3.90942C11.4495 4.15974 11.4649 4.44729 11.3732 4.709Z" transform="translate(217.645 48.6133)" fill="#E24D34"/>
<path d="M11.3701 4.71205C11.3244 4.84147 11.2536 4.96056 11.1619 5.0625C11.0702 5.16443 10.9594 5.24723 10.8357 5.30611C10.7121 5.36499 10.5781 5.39882 10.4414 5.40566C10.3047 5.41249 10.168 5.39219 10.0391 5.34593L0.696374 2.03285C0.566997 1.98737 0.447863 1.91669 0.345802 1.82487C0.243741 1.73305 0.160772 1.6219 0.101666 1.4978C0.0425605 1.37371 0.00849269 1.23913 0.00140002 1.10178C-0.00569265 0.964435 0.0143441 0.827026 0.0603514 0.69747C0.152848 0.436017 0.344898 0.222036 0.594411 0.10242C0.843923 -0.0171961 1.13053 -0.0326781 1.3914 0.0593719L10.7383 3.37667C10.8677 3.42215 10.9868 3.49283 11.0889 3.58465C11.1909 3.67647 11.2739 3.78762 11.333 3.91172C11.3921 4.03581 11.4262 4.1704 11.4333 4.30775C11.4404 4.4451 11.4204 4.5825 11.3743 4.71205H11.3701Z" transform="translate(220.933 39.2793)" fill="#E24D34"/>
<path d="M1.13639 0C0.785281 0.2422 0.519819 0.589908 0.378195 0.993083L0.11704 1.77487C0.0276793 2.02706 -0.0111538 2.29446 0.00276222 2.56174C0.0166783 2.82903 0.0830641 3.09093 0.198127 3.3324C0.31319 3.57388 0.47466 3.79017 0.673261 3.96888C0.871861 4.14759 1.10369 4.28519 1.35543 4.37378L8.84054 7.02763C9.09195 7.11671 9.35837 7.15522 9.62462 7.14099C9.89087 7.12676 10.1517 7.06007 10.3923 6.9447C10.6328 6.82933 10.8484 6.66754 11.0266 6.4686C11.2048 6.26966 11.3423 6.03745 11.431 5.78522L11.7006 5.02034C11.8427 4.61858 11.853 4.18177 11.7301 3.7737L1.13639 0Z" transform="translate(216.391 50.9556)" fill="#C64227"/>
<path d="M0.0862146 3.3903C-0.038082 2.97525 -0.027754 2.53132 0.115703 2.12254L0.385291 1.35766C0.566417 0.848649 0.940997 0.43226 1.42719 0.199462C1.91337 -0.0333349 2.47163 -0.0636153 2.98 0.115249L10.4609 2.77333C10.7126 2.86192 10.9445 2.99953 11.1431 3.17824C11.3417 3.35694 11.5031 3.57324 11.6182 3.81471C11.7333 4.05618 11.7996 4.31809 11.8136 4.58537C11.8275 4.85265 11.7886 5.12005 11.6993 5.37224L11.4297 6.13291C11.2894 6.53679 11.0236 6.88486 10.6715 7.12598L0.0862146 3.3903Z" transform="translate(221.813 35.1753)" fill="#C64227"/>
<path d="M-1.13121e-05 4.60975C0.269793 4.96635 0.618919 5.25475 1.01952 5.45199C1.42011 5.64923 1.8611 5.74986 2.30732 5.74582C2.75354 5.74178 3.19267 5.63319 3.58965 5.42872C3.98663 5.22426 4.33049 4.92955 4.59383 4.56812C4.85717 4.2067 5.03271 3.78856 5.10642 3.34702C5.18013 2.90548 5.15 2.45277 5.01842 2.02499C4.88683 1.59721 4.65744 1.20618 4.34854 0.883095C4.03963 0.560014 3.65974 0.313815 3.23918 0.164124C2.71136 -0.0247867 2.13935 -0.0512704 1.59643 0.088061L-1.13121e-05 4.60975Z" transform="translate(272.176 61.8291)" fill="#C64227"/>
<g style="mix-blend-mode:multiply" opacity="0.6" transform="translate(221.187 36.541)">
<path d="M-6.17023e-06 20.0137L4.0353 21.4421C4.28671 21.5312 4.55313 21.5697 4.81938 21.5555C5.08563 21.5412 5.34648 21.4745 5.58704 21.3592C5.82759 21.2438 6.04313 21.082 6.22136 20.8831C6.39959 20.6841 6.53704 20.4519 6.62582 20.1997L6.89538 19.4348C7.03746 19.033 7.0478 18.5962 6.92487 18.1882L6.26355 17.9515L6.45732 17.4064H6.49943C6.75595 17.4821 7.03166 17.4563 7.26976 17.3342C7.50786 17.2121 7.69021 17.0031 7.77929 16.7501C7.86837 16.4972 7.85737 16.2196 7.74857 15.9746C7.63977 15.7295 7.44146 15.5356 7.19446 15.4329H7.15235L9.74284 8.07565H9.78498C9.91386 8.12143 10.0505 8.1413 10.187 8.13412C10.3235 8.12694 10.4573 8.09283 10.5807 8.03377C10.7041 7.97472 10.8148 7.89186 10.9062 7.78992C10.9977 7.68798 11.0683 7.56895 11.1139 7.43965C11.1596 7.31035 11.1794 7.1733 11.1722 7.03632C11.165 6.89934 11.1311 6.76511 11.0722 6.6413C11.0133 6.5175 10.9307 6.40654 10.8291 6.31475C10.7275 6.22297 10.6089 6.15217 10.48 6.10639H10.4421L10.6358 5.5528L11.2971 5.78522C11.6493 5.5441 11.915 5.19603 12.0553 4.79215L12.3249 4.03148C12.4143 3.7793 12.4531 3.51189 12.4392 3.24461C12.4253 2.97733 12.3589 2.71543 12.2438 2.47395C12.1288 2.23248 11.9673 2.01619 11.7687 1.83748C11.5701 1.65877 11.3383 1.52116 11.0865 1.43257L7.05545 6.19025e-06L-6.17023e-06 20.0137Z" fill="#C64227"/>
</g>
<path d="M9.23317 -3.61098e-06H1.54167C1.13279 -3.61098e-06 0.740663 0.162949 0.451544 0.453006C0.162425 0.743063 1.13121e-05 1.13647 1.13121e-05 1.54667H10.7664C10.767 1.34411 10.7277 1.14343 10.651 0.95608C10.5742 0.768729 10.4615 0.598382 10.3191 0.45476C10.1767 0.311139 10.0075 0.197057 9.82119 0.11903C9.63487 0.0410022 9.43507 0.000550579 9.23317 -3.61098e-06Z" transform="translate(217.493 58.2285)" fill="#C64227"/>
<path d="M17.3501 2.48481C17.349 3.14422 17.0871 3.77622 16.6219 4.24209C16.1568 4.70797 15.5264 4.96963 14.8691 4.96963H2.47677C1.81989 4.96963 1.18992 4.70784 0.72543 4.24185C0.260944 3.77586 3.5993e-06 3.14383 3.5993e-06 2.48481C3.5993e-06 1.8258 0.260944 1.19378 0.72543 0.727788C1.18992 0.261795 1.81989 -4.12683e-06 2.47677 -4.12683e-06H14.8691C15.5264 -5.0772e-06 16.1568 0.261658 16.6219 0.72753C17.0871 1.1934 17.349 1.82541 17.3501 2.48481Z" transform="translate(214.208 59.6143)" fill="#8E391E"/>
<g style="mix-blend-mode:multiply" transform="translate(217.497 59.1074)">
<path d="M-1.02837e-05 0.667686H10.7664C10.7652 0.436193 10.7119 0.207965 10.6105 3.61098e-06H0.160056C0.0572299 0.207621 0.00250973 0.435866 -1.02837e-05 0.667686Z" fill="#C64227"/>
</g>
<path d="M17.3501 -2.06342e-06H3.5993e-06V5.36687H17.3501V-2.06342e-06Z" transform="translate(214.208 62.0991)" fill="#C64227"/>
<g style="mix-blend-mode:multiply" transform="translate(214.208 62.0991)">
<path d="M17.3501 -2.06342e-06H3.5993e-06V0.338076H17.3501V-2.06342e-06Z" fill="#C64227"/>
</g>
<path d="M14.8691 -4.12683e-06H2.47677C1.81989 -4.12683e-06 1.18992 0.261795 0.72543 0.727788C0.260944 1.19378 3.5993e-06 1.8258 3.5993e-06 2.48481H17.3501C17.349 1.82541 17.0871 1.1934 16.6219 0.72753C16.1568 0.261658 15.5264 -5.0772e-06 14.8691 -4.12683e-06Z" transform="translate(214.208 59.6143)" fill="#C64227"/>
<g style="mix-blend-mode:multiply" opacity="0.4" transform="translate(214.191 58.2285)">
<path d="M8.68979 -3.61098e-06H4.84404C4.46408 0.00116608 4.09801 0.143455 3.81644 0.399409C3.53487 0.655363 3.35774 1.00685 3.31922 1.38608H2.47678C1.8199 1.38608 1.18991 1.64788 0.725426 2.11388C0.26094 2.57987 0 3.21189 0 3.8709V9.23777H8.67295L8.68979 -3.61098e-06Z" fill="#C64227"/>
</g>
<g style="mix-blend-mode:multiply" opacity="0.5" transform="translate(306.746 62.7881)">
<path d="M56.1146 3.50747H9.7171C9.68023 3.51247 9.64366 3.51953 9.60758 3.52861L0.172239 0C0.172239 0 -0.215285 0.422589 0.172239 0.714174L9.30009 4.3104C9.34679 4.37935 9.40957 4.43579 9.48299 4.47483C9.5564 4.51386 9.63822 4.5343 9.72131 4.53436H56.1146C56.1863 4.54086 56.2585 4.53232 56.3267 4.50926C56.3949 4.4862 56.4576 4.44914 56.5107 4.40044C56.5639 4.35174 56.6063 4.29246 56.6353 4.22639C56.6644 4.16032 56.6794 4.0889 56.6794 4.0167C56.6794 3.94449 56.6644 3.87307 56.6353 3.807C56.6063 3.74093 56.5639 3.68166 56.5107 3.63295C56.4576 3.58425 56.3949 3.54719 56.3267 3.52413C56.2585 3.50107 56.1863 3.49252 56.1146 3.49902V3.50747Z" fill="#E46825"/>
</g>
<path d="M0.172235 -1.03171e-06C0.172235 -1.03171e-06 -0.215289 0.401454 0.172235 0.709943L9.30009 4.3104L9.61179 3.49902L0.172235 -1.03171e-06Z" transform="translate(306.953 62.3906)" fill="#F8DBCD"/>
<path d="M56.0435 3.48635H9.3806L-3.08511e-06 -1.03171e-06H45.3065L56.0435 3.48635Z" transform="translate(307.041 62.3906)" fill="#D8B7AB"/>
<path d="M5.71597 2.21436L2.05674e-06 -6.19025e-06H15.9011L21.0989 2.21436H5.71597Z" transform="translate(310.705 63.1514)" fill="#F6E7E3"/>
<path d="M46.6629 -2.06342e-06H5.14186e-06V26.9188H46.6629V-2.06342e-06Z" transform="translate(316.421 38.9624)" fill="#F8DBCD"/>
<path d="M47.4337 0.519786C47.4337 0.58749 47.4204 0.654537 47.3946 0.717088C47.3688 0.779638 47.3309 0.836453 47.2832 0.884327C47.2355 0.932201 47.1788 0.970178 47.1165 0.996087C47.0541 1.022 46.9873 1.03534 46.9198 1.03534H0.518093C0.38141 1.03535 0.250269 0.981151 0.153226 0.884585C0.0561836 0.788019 0.00111021 0.656908 -1.02837e-06 0.519786C-1.02837e-06 0.381931 0.054598 0.249719 0.151761 0.15224C0.248924 0.0547622 0.380684 -1.03171e-06 0.518093 -1.03171e-06H46.9409C47.0776 0.00111381 47.2083 0.0563659 47.3045 0.153723C47.4008 0.251081 47.4548 0.38266 47.4548 0.519786H47.4337Z" transform="translate(316.152 65.877)" fill="#E1BFB0"/>
<path fill-rule="evenodd" clip-rule="evenodd" d="M8.08867 0.981859C7.40629 1.53122 6.93451 2.19892 7.02297 3.12016C7.04494 3.54184 7.18506 3.94874 7.42722 4.29411C7.66939 4.63947 8.00377 4.90928 8.39194 5.07252C8.26136 5.3641 8.14344 5.66413 7.9918 5.95149C7.73078 6.49524 7.36912 6.98426 6.9261 7.39252C6.75181 7.55393 6.53662 7.66415 6.30408 7.71111C6.07155 7.75806 5.83063 7.73995 5.60767 7.65875L5.00111 7.46436C4.52957 7.30325 4.01549 7.32129 3.55633 7.51507C3.33147 7.61243 3.09715 7.68607 2.85711 7.73481C2.64755 7.76302 2.43428 7.73925 2.236 7.66557C2.03773 7.5919 1.8605 7.47057 1.71981 7.31222C1.23239 6.8115 0.842382 6.2239 0.569858 5.57961C0.146103 4.7171 -0.0469298 3.75891 0.00965277 2.79899C0.0335468 2.1033 0.273606 1.43251 0.696245 0.880442C0.945361 0.542616 1.28923 0.286992 1.68389 0.146227C2.07856 0.00546319 2.5061 -0.014044 2.91187 0.0902056C3.21936 0.149368 3.52685 0.229663 3.82591 0.318407C4.15484 0.410733 4.50365 0.403374 4.82842 0.297269C5.24034 0.163213 5.66318 0.065643 6.09209 0.00568298C6.48108 -0.0222865 6.87054 0.0532465 7.22111 0.22465C7.57168 0.396054 7.87095 0.657253 8.08867 0.981859Z" transform="translate(336.71 49.1621)" fill="white"/>
<path fill-rule="evenodd" clip-rule="evenodd" d="M1.96394 -2.57927e-06C2.19983 0.7353 1.37844 2.46791 0.0347431 2.40029C-0.209565 1.42411 0.877192 0.0718373 1.96394 -2.57927e-06Z" transform="translate(340.817 46.8989)" fill="white"/>
<path d="M7.68729 0H5.65604e-06V29.4628H7.68729V0Z" transform="translate(182.46 39.1357)" fill="#E39476"/>
<g style="mix-blend-mode:multiply" opacity="0.4" transform="translate(182.46 39.1357)">
<path d="M3.84154 0H5.65604e-06V29.4628H3.84154V0Z" fill="#E39476"/>
</g>
<path d="M7.68729 0H0V29.4628H7.68729V0Z" transform="translate(197.831 39.1357)" fill="#BD502F"/>
<path d="M0.391736 0H3.5993e-06V29.4628H0.391736V0Z" transform="translate(201.676 39.1357)" fill="#E26F50"/>
<g style="mix-blend-mode:multiply" opacity="0.3" transform="translate(197.831 39.1357)">
<path d="M3.84154 0H0V29.4628H3.84154V0Z" fill="#BD502F"/>
</g>
<path d="M7.68729 0H5.65604e-06V29.4628H7.68729V0Z" transform="translate(190.148 39.1357)" fill="#AA7738"/>
<g style="mix-blend-mode:multiply" opacity="0.2" transform="translate(190.148 39.1357)">
<path d="M3.84154 0H5.65604e-06V29.4628H3.84154V0Z" fill="#AA7738"/>
</g>
<path d="M0.391736 0H3.5993e-06V29.4628H0.391736V0Z" transform="translate(193.989 39.1357)" fill="#CC9251"/>
<path d="M0.391736 0H3.5993e-06V29.4628H0.391736V0Z" transform="translate(186.302 39.1357)" fill="#F9C7BE"/>
<path d="M5.11362 0H-5.65604e-06V28.3387H5.11362V0Z" transform="translate(151.884 40.2598)" fill="#F2AA97"/>
<path d="M0.261152 0H-2.57093e-06V28.3387H0.261152V0Z" transform="translate(154.441 40.2598)" fill="#F9C7BE"/>
<g style="mix-blend-mode:multiply" transform="translate(151.884 40.2598)">
<path d="M2.55681 0H-5.65604e-06V28.3387H2.55681V0Z" fill="#F2AA97"/>
</g>
<path d="M5.11783 0H0V28.3387H5.11783V0Z" transform="translate(156.997 40.2598)" fill="#A2D9CD"/>
<path d="M0.269578 0H3.5993e-06V28.3387H0.269578V0Z" transform="translate(159.554 40.2598)" fill="#C3E5DF"/>
<g style="mix-blend-mode:multiply" transform="translate(156.997 40.2598)">
<path d="M2.55682 0H0V28.3387H2.55682V0Z" fill="#A2D9CD"/>
</g>
<path d="M5.11783 0H-2.05674e-06V28.3387H5.11783V0Z" transform="translate(162.115 40.2598)" fill="#BD502F"/>
<path d="M0.252736 0H0V28.3387H0.252736V0Z" transform="translate(164.672 40.2598)" fill="#E26F50"/>
<path d="M0.25273 0H-5.14186e-06V28.3387H0.25273V0Z" transform="translate(169.668 40.2598)" fill="#E26F50"/>
<g style="mix-blend-mode:multiply" opacity="0.3" transform="translate(162.115 40.2598)">
<path d="M2.55681 0H-2.05674e-06V28.3387H2.55681V0Z" fill="#BD502F"/>
</g>
<path d="M5.11784 0H4.62767e-06V28.3387H5.11784V0Z" transform="translate(167.111 40.2598)" fill="#BD502F"/>
<g style="mix-blend-mode:multiply" transform="translate(167.111 40.2598)">
<path d="M2.55681 0H4.62767e-06V28.3387H2.55681V0Z" fill="#F2AA97"/>
</g>
<path d="M5.11784 0H2.05674e-06V28.3387H5.11784V0Z" transform="translate(172.229 40.2598)" fill="#F2AA97"/>
<g style="mix-blend-mode:multiply" transform="translate(172.229 40.2598)">
<path d="M2.55682 0H2.05674e-06V28.3387H2.55682V0Z" fill="#F2AA97"/>
</g>
<path d="M5.11784 0H-4.62767e-06V28.3387H5.11784V0Z" transform="translate(177.342 40.2598)" fill="#BD502F"/>
<g style="mix-blend-mode:multiply" opacity="0.3" transform="translate(177.342 40.2598)">
<path d="M2.55681 0H-4.62767e-06V28.3387H2.55681V0Z" fill="#BD502F"/>
</g>
<path d="M0.26116 0H5.14186e-06V28.3387H0.26116V0Z" transform="translate(174.786 40.2598)" fill="#F9C7BE"/>
<path d="M0.25273 0H-5.14186e-06V28.3387H0.25273V0Z" transform="translate(169.668 40.2598)" fill="#E26F50"/>
<path d="M0.252738 0H2.57093e-06V28.3387H0.252738V0Z" transform="translate(179.904 40.2598)" fill="#E26F50"/>
<path d="M42.4338 6.19025e-06L8.22697e-06 4.7203V109.442L42.4338 101.746V6.19025e-06Z" transform="translate(473.566 72.3555)" fill="#F1C7B9"/>
<path d="M-4.11349e-06 2.06342e-06V88.7307L68.1451 119.791V14.8159L-4.11349e-06 2.06342e-06Z" transform="translate(405.421 62.209)" fill="#F8DBCD"/>
<path d="M42.4338 6.19025e-06L8.22697e-06 4.7203V109.442L42.4338 101.746V6.19025e-06Z" transform="translate(473.566 72.3555)" fill="#C1C1C1"/>
<path d="M-4.11349e-06 2.06342e-06V88.7307L68.1451 119.791V14.8159L-4.11349e-06 2.06342e-06Z" transform="translate(405.421 62.209)" fill="#E9E9E9"/>
<path d="M110.579 14.592L37 -6.19025e-06L-4.11349e-06 4.44562L68.1451 19.2615L110.579 14.592Z" transform="translate(405.421 57.7637)" fill="#BEBEBE"/>
<path d="M1.23405e-05 1.53399L18.9381 -2.06342e-06V26.1075L0.168511 28.4275L1.23405e-05 1.53399Z" transform="translate(434.818 38.4346)" fill="#D6856A"/>
<path d="M17.9187 6.19025e-06L23.6642 1.09028L5.16415 2.7595L-2.26242e-05 1.44948L17.9187 6.19025e-06Z" transform="translate(435.361 38.8652)" fill="#E6E7E8"/>
<path d="M1.64539e-05 1.53399L18.9381 -2.57927e-06V26.1075L0.168464 28.4275L1.64539e-05 1.53399Z" transform="translate(440.088 39.6089)" fill="#96632B"/>
<path d="M17.9188 3.09512e-06L23.6642 1.0945L5.16839 2.76372L2.05674e-06 1.44948L17.9188 3.09512e-06Z" transform="translate(440.547 40.1035)" fill="#E6E7E8"/>
<path d="M-1.64539e-05 1.53399L18.9339 -6.19025e-06V26.1075L0.164266 28.4317L-1.64539e-05 1.53399Z" transform="translate(445.53 40.8599)" fill="#D15B3F"/>
<path d="M17.9188 6.19025e-06L23.6642 1.09028L5.16417 2.7595L-6.17023e-06 1.44948L17.9188 6.19025e-06Z" transform="translate(445.803 41.2954)" fill="#E6E7E8"/>
<path d="M5.60643 28.1359L0.168501 26.8977L2.05674e-06 2.57927e-06L5.43798 1.24241L5.60643 28.1359Z" transform="translate(434.65 39.9048)" fill="#E39476"/>
<g style="mix-blend-mode:multiply" opacity="0.4" transform="translate(434.65 39.9048)">
<path d="M2.72107 0.621207L2.05674e-06 2.57927e-06L0.168501 26.8977L2.88957 27.5189L2.72107 0.621207Z" fill="#E39476"/>
</g>
<path d="M5.60646 28.1401L0.164266 26.8977L-1.64539e-05 5.15854e-07L5.43796 1.24241L5.60646 28.1401Z" transform="translate(445.53 42.3853)" fill="#BD502F"/>
<path d="M0.446482 26.9611L0.168513 26.8977L1.43972e-05 1.03171e-06L0.277983 0.0633866L0.446482 26.9611Z" transform="translate(448.247 43.0068)" fill="#E26F50"/>
<g style="mix-blend-mode:multiply" opacity="0.3" transform="translate(445.53 42.3853)">
<path d="M2.71689 0.621205L-1.64539e-05 5.15854e-07L0.164266 26.8977L2.88539 27.5189L2.71689 0.621205Z" fill="#BD502F"/>
</g>
<path d="M5.60644 28.1359L0.168464 26.8935L1.64539e-05 3.61098e-06L5.44216 1.23818L5.60644 28.1359Z" transform="translate(440.088 41.1475)" fill="#AA7738"/>
<g style="mix-blend-mode:multiply" opacity="0.2" transform="translate(440.088 41.1475)">
<path d="M2.72109 0.616978L1.64539e-05 3.61098e-06L0.168464 26.8935L2.88959 27.5147L2.72109 0.616978Z" fill="#AA7738"/>
</g>
<path d="M0.442303 26.9611L0.168499 26.8977L0 0L0.273804 0.0676156L0.442303 26.9611Z" transform="translate(442.809 41.7642)" fill="#CC9251"/>
<path d="M0.442288 26.9611L0.168484 26.8977L-1.43972e-05 3.09512e-06L0.27379 0.0633886L0.442288 26.9611Z" transform="translate(437.371 40.5259)" fill="#F9C7BE"/>
<path d="M-2.05674e-06 1.53399L18.9381 -5.15854e-07V26.1075L0.168497 28.4317L-2.05674e-06 1.53399Z" transform="translate(450.968 42.0938)" fill="#E06C4C"/>
<path d="M1.65119 -1.13488e-05H-1.64539e-05V96.1006H1.65119V-1.13488e-05Z" transform="translate(437.842 69.6172)" fill="#BEBEBE"/>
<path d="M1.65117 5.15854e-06H1.43972e-05V96.1006H1.65117V5.15854e-06Z" transform="translate(434.873 68.7886)" fill="#BEBEBE"/>
<path d="M4.06058 2.03687C4.06058 2.43973 3.94148 2.83354 3.71839 3.1685C3.4953 3.50346 3.17824 3.76454 2.80725 3.91871C2.43627 4.07287 2.02803 4.11319 1.63419 4.03459C1.24035 3.956 0.878602 3.76202 0.594661 3.47716C0.31072 3.1923 0.117371 2.82935 0.0390317 2.43424C-0.0393073 2.03912 0.000901784 1.62958 0.154569 1.25739C0.308237 0.885202 0.56842 0.567087 0.902298 0.343273C1.23618 0.119459 1.62872 -2.06342e-06 2.03027 -2.06342e-06C2.56873 -2.06342e-06 3.08517 0.214595 3.46593 0.596583C3.84668 0.978571 4.06058 1.49666 4.06058 2.03687Z" transform="translate(440.391 111.964)" fill="#676767"/>
<path d="M4.0606 2.03687C4.0606 2.43973 3.9415 2.83354 3.71841 3.1685C3.49532 3.50346 3.17825 3.76454 2.80727 3.91871C2.43628 4.07287 2.02804 4.11319 1.6342 4.03459C1.24037 3.956 0.87859 3.76202 0.59465 3.47716C0.310709 3.1923 0.117359 2.82935 0.0390204 2.43424C-0.0393186 2.03912 0.000890473 1.62958 0.154558 1.25739C0.308226 0.885202 0.568434 0.567087 0.902313 0.343273C1.23619 0.119459 1.62873 -2.06342e-06 2.03028 -2.06342e-06C2.56875 -2.06342e-06 3.08519 0.214595 3.46594 0.596583C3.84669 0.978571 4.0606 1.49666 4.0606 2.03687Z" transform="translate(429.822 109.535)" fill="#676767"/>
<path d="M6.97966 35.0367L0.210606 33.4901L-4.11349e-06 -5.15854e-06L6.77321 1.54667L6.97966 35.0367Z" transform="translate(452.808 37.3481)" fill="#E39476"/>
<g style="mix-blend-mode:multiply" opacity="0.4" transform="translate(452.808 37.3481)">
<path d="M3.38663 0.773337L-4.11349e-06 -5.15854e-06L0.210606 33.4901L3.59724 34.2634L3.38663 0.773337Z" fill="#E39476"/>
</g>
<path d="M6.98383 35.0325L0.210617 33.4858L6.17023e-06 -2.06342e-06L6.77322 1.54244L6.98383 35.0325Z" transform="translate(466.351 40.4419)" fill="#BD502F"/>
<path d="M0.556012 33.5704L0.210633 33.4901L2.26242e-05 1.03171e-06L0.345401 0.0802937L0.556012 33.5704Z" transform="translate(469.737 41.2109)" fill="#E26F50"/>
<g style="mix-blend-mode:multiply" opacity="0.3" transform="translate(466.351 40.4419)">
<path d="M3.38664 0.76911L6.17023e-06 -2.06342e-06L0.210617 33.4858L3.59725 34.2592L3.38664 0.76911Z" fill="#BD502F"/>
</g>
<path d="M6.97964 35.0325L0.206423 33.4901L-2.26242e-05 -3.61098e-06L6.76903 1.54667L6.97964 35.0325Z" transform="translate(459.582 38.895)" fill="#AA7738"/>
<g style="mix-blend-mode:multiply" opacity="0.2" transform="translate(459.582 38.895)">
<path d="M3.38661 0.773339L-2.26242e-05 -3.61098e-06L0.206423 33.4901L3.59301 34.2592L3.38661 0.773339Z" fill="#AA7738"/>
</g>
<path d="M0.551818 33.5661L0.206388 33.4858L-6.17023e-06 3.61098e-06L0.341208 0.0760663L0.551818 33.5661Z" transform="translate(462.968 39.6685)" fill="#CC9251"/>
<path d="M0.551785 33.5661L0.210623 33.4901L1.23405e-05 2.06342e-06L0.345391 0.0760647L0.551785 33.5661Z" transform="translate(456.195 38.1216)" fill="#F9C7BE"/>
<path d="M-1.23405e-05 1.91009L23.5799 0V32.5054L0.210598 35.4002L-1.23405e-05 1.91009Z" transform="translate(473.124 40.0742)" fill="#E06C4C"/>
<path d="M3.25183 0H0V78.2463H3.25183V0Z" transform="translate(77.273 61.8623)" fill="#C3C3C3"/>
<path d="M4.04793 7.22196e-06H3.08511e-06V91.5874H4.04793V7.22196e-06Z" transform="translate(119.867 67.6816)" fill="#C3C3C3"/>
<path d="M4.04794 7.22196e-06H0V91.5874H4.04794V7.22196e-06Z" transform="translate(51.4816 67.6816)" fill="#C3C3C3"/>
<path d="M80.0741 -7.22196e-06H0V22.8282H80.0741V-7.22196e-06Z" transform="translate(47.4337 71.3115)" fill="#E9E9E9"/>
<path d="M3.25182 0H-2.57093e-06V78.2463H3.25182V0Z" transform="translate(133.696 59.855)" fill="#C3C3C3"/>
<path d="M-3.5993e-06 31.0179L10.5979 17.6768V-5.15854e-07L-3.5993e-06 8.19396V31.0179Z" transform="translate(127.508 63.1177)" fill="#C7C7C7"/>
<g style="mix-blend-mode:multiply" transform="translate(127.508 60.5991)">
<path d="M-3.5993e-06 11.8705L10.5979 3.67651V3.09512e-06L-3.5993e-06 8.24469V11.8705Z" fill="#EFAD42"/>
</g>
<g style="mix-blend-mode:multiply" transform="translate(47.4337 68.8438)">
<path d="M80.0741 7.22196e-06H0V3.62579H80.0741V7.22196e-06Z" fill="#EFAD42"/>
</g>
<path d="M80.0741 7.22196e-06H0V3.62579H80.0741V7.22196e-06Z" transform="translate(47.4337 67.6816)" fill="#F3F3F3"/>
<path d="M2.57093e-07 8.24047L32.1181 -5.67439e-06H90.672L80.0741 8.24047H2.57093e-07Z" transform="translate(47.4337 59.4409)" fill="#E3E3E3"/>
<path d="M-3.5993e-06 11.8705L10.5979 3.67651V-5.67439e-06L-3.5993e-06 8.24046V11.8705Z" transform="translate(127.508 59.4409)" fill="#D5D5D5"/>
<g style="mix-blend-mode:multiply" transform="translate(73.1703 61.5371)">
<path d="M8.42442 0.769103C8.42442 1.19169 6.54157 1.54245 4.21221 1.54245C1.88286 1.54245 2.82802e-06 1.19592 2.82802e-06 0.769103C2.82802e-06 0.34229 1.88286 3.61098e-06 4.21221 3.61098e-06C6.54157 3.61098e-06 8.42442 0.346516 8.42442 0.769103Z" fill="#F9BC9A"/>
</g>
<g style="mix-blend-mode:multiply" transform="translate(110.933 61.6641)">
<path d="M8.42441 0.773341C8.42441 1.19593 6.54577 1.54667 4.2122 1.54667C1.87864 1.54667 -6.17023e-06 1.20015 -6.17023e-06 0.773341C-6.17023e-06 0.346527 1.88285 -1.54756e-06 4.2122 -1.54756e-06C6.54156 -1.54756e-06 8.42441 0.346527 8.42441 0.773341Z" fill="#F9BC9A"/>
</g>
<g style="mix-blend-mode:multiply" opacity="0.5" transform="translate(82.4312 59.6987)">
<path d="M26.8251 2.32423C24.5463 0.232424 15.9913 0.0211304 13.8431 1.03171e-06H13.3503C11.1978 0.0211304 2.64281 0.232424 0.364004 2.32423C-2.19281 4.67382 9.41183 5.32461 13.5946 5.24431C17.7773 5.32461 29.3819 4.67382 26.8251 2.32423Z" fill="#E46825"/>
</g>
<path d="M26.821 2.32C24.5464 0.228196 15.9872 0.0169061 13.839 2.57927e-06H13.3461C11.1979 2.57927e-06 2.64292 0.228196 0.364114 2.32C-2.1927 4.67382 9.40773 5.32038 13.5947 5.24009C17.7774 5.32038 29.382 4.67382 26.821 2.32Z" transform="translate(82.0773 58.8154)" fill="#C18A38"/>
<g style="mix-blend-mode:multiply" opacity="0.7" transform="translate(82.0773 58.8115)">
<path d="M13.3461 -1.54756e-06C11.1979 -1.54756e-06 2.64292 0.228192 0.364114 2.32C-2.1927 4.67381 9.40773 5.32037 13.5947 5.24008V-1.54756e-06H13.3461Z" fill="#C18A38"/>
</g>
<path d="M-1.54256e-06 5.15854e-06H4.87353L3.38662 3.93006H1.60485L-1.54256e-06 5.15854e-06Z" transform="translate(93.2331 13.3242)" fill="#D9B77A"/>
<path d="M0.964594 0L7.71279e-07 3.85823H3.6225L2.75057 0H0.964594Z" transform="translate(93.8607 17.2544)" fill="#C1995A"/>
<path d="M3.6225 2.57927e-06H7.71279e-07L0.585498 2.76795V22.3633H3.03279V2.71301L3.6225 2.57927e-06Z" transform="translate(93.8607 20.4658)" fill="#C1995A"/>
<g style="mix-blend-mode:multiply" transform="translate(93.8607 20.4658)">
<path d="M0.585498 2.76795V2.93698L1.14572 2.78485C1.6891 2.71301 2.32093 2.64962 3.05385 2.62427L3.6225 2.57927e-06H7.71279e-07L0.585498 2.76795Z" fill="#C1995A"/>
</g>
<path d="M1.48691 3.61098e-06H1.44058C0.644971 3.61098e-06 -2.57093e-06 0.647057 -2.57093e-06 1.44525V4.66536C-2.57093e-06 5.46355 0.644971 6.11062 1.44058 6.11062H1.48691C2.28252 6.11062 2.92749 5.46355 2.92749 4.66536V1.44525C2.92749 0.647057 2.28252 3.61098e-06 1.48691 3.61098e-06Z" transform="translate(94.2061 49.2822)" fill="#C1995A"/>
<g style="mix-blend-mode:multiply" transform="translate(94.2061 53.9136)">
<path d="M-2.57093e-06 0V0.0253542C-2.57093e-06 0.408658 0.151772 0.776263 0.421932 1.0473C0.692092 1.31834 1.05851 1.47061 1.44058 1.47061H1.49112C1.6801 1.47061 1.86723 1.4332 2.04177 1.36051C2.21631 1.28783 2.37485 1.1813 2.50828 1.04704C2.64171 0.912782 2.74743 0.753426 2.81936 0.578105C2.8913 0.402783 2.92804 0.214947 2.92749 0.0253542V0H-2.57093e-06Z" fill="#C1995A"/>
</g>
<g style="mix-blend-mode:multiply" transform="translate(94.1977 49.2949)">
<path d="M0.0168481 1.81289H2.92749V1.44525C2.92804 1.25565 2.8913 1.06782 2.81936 0.892495C2.74742 0.717174 2.64171 0.557817 2.50828 0.423558C2.37484 0.289299 2.21631 0.182782 2.04177 0.110099C1.86723 0.0374169 1.6801 2.27989e-06 1.49112 3.09514e-06H1.44058C1.2514 3.09514e-06 1.06407 0.0373784 0.889293 0.110009C0.714514 0.18264 0.555706 0.289096 0.421937 0.4233C0.288167 0.557504 0.182054 0.716827 0.109659 0.892173C0.0372629 1.06752 2.05674e-06 1.25545 2.05674e-06 1.44525V1.81289H0.0168481Z" fill="#C1995A"/>
</g>
<path d="M3.67495 7.98268C4.05595 7.51793 4.3064 6.95957 4.40044 6.36527C4.49448 5.77097 4.4287 5.16226 4.2099 4.60198C3.72037 3.12011 3.51596 1.55842 3.60755 -5.15854e-06H0.835919C0.924969 1.55832 0.720627 3.11954 0.233576 4.60198C0.014205 5.16189 -0.052265 5.77039 0.0410329 6.36468C0.134331 6.95897 0.384014 7.51752 0.764312 7.98268H3.67495Z" transform="translate(93.4502 42.8418)" fill="#C1995A"/>
<g style="mix-blend-mode:multiply" transform="translate(94.2777 42.8335)">
<path d="M2.74636 0.557818C2.74636 0.20707 2.77163 -5.15854e-07 2.77163 -5.15854e-07H3.08512e-06C3.08512e-06 -5.15854e-07 3.08512e-06 0.20707 3.08512e-06 0.557818H2.71688H2.74636Z" fill="#C1995A"/>
</g>
<path d="M3.47507 4.64269e-06H0V6.62194H3.47507V4.64269e-06Z" transform="translate(93.9323 54.1167)" fill="#C1995A"/>
<g style="mix-blend-mode:multiply" opacity="0.7" transform="translate(93.2331 13.3452)">
<path d="M-1.54256e-06 0L1.60485 3.93006L0.800322 7.14173H0.640256L0.711863 7.49248L0.640256 7.78829H0.775044L1.22575 9.90122V28.4951H1.09939C0.926685 28.4951 0.78347 28.774 0.78347 29.1205C0.78347 29.467 0.914047 29.7206 1.07832 29.7417C1.12939 31.2134 0.921207 32.6826 0.463344 34.0817C0.24283 34.6409 0.174984 35.2489 0.266797 35.8432C0.358609 36.4375 0.606754 36.9964 0.985654 37.4624V40.5938C0.981328 40.65 0.981328 40.7065 0.985654 40.7628H0.699227V47.3847H2.43887V0H-1.54256e-06Z" fill="#C1995A"/>
</g>
<path d="M38.8892 2.57185C38.7165 1.70132 38.0005 1.10547 37.2886 1.24915C36.5767 1.39283 36.1345 2.20843 36.3029 3.07896C36.3277 3.19553 36.3615 3.30998 36.404 3.42126C33.4555 3.96217 31.2567 3.04938 27.9796 1.67597C27.4362 1.44777 26.8718 1.21112 26.2652 0.966024C23.7758 -0.00875995 21.0612 -0.252084 18.439 0.264527L18.2873 0.298328L18.1315 0.327912C15.5074 0.835638 13.0819 2.0831 11.1392 3.92414C10.6674 4.38053 10.2336 4.81157 9.81657 5.22993C7.28924 7.76546 5.60436 9.41778 2.65581 10.0305C2.65503 9.91144 2.64375 9.79264 2.62211 9.67555C2.44941 8.80502 1.73333 8.20918 1.02147 8.34863C0.309604 8.48808 -0.132676 9.3079 0.0358122 10.1784C0.0920546 10.4804 0.222335 10.7636 0.414909 11.0025H0.393846L0.503368 11.0954C0.679905 11.2815 0.904482 11.4146 1.15205 11.48C2.1524 11.9293 3.27003 12.0448 4.34069 11.8096C5.94889 11.429 7.43266 10.6403 8.64978 9.51919C13.4391 5.437 16.8215 4.23262 18.9486 3.67903C21.1263 3.38744 24.7109 3.2311 30.6796 5.20881C32.2283 5.78751 33.8987 5.95916 35.5321 5.70746C36.6114 5.51906 37.6029 4.99064 38.3627 4.19882C38.5688 4.04513 38.7267 3.83542 38.8176 3.59452L38.8808 3.47196H38.8598C38.943 3.17888 38.9531 2.86978 38.8892 2.57185Z" transform="translate(76.0746 18.9043)" fill="#D9B77A"/>
<g style="mix-blend-mode:multiply" transform="translate(110.874 22.4521)">
<path d="M5.14186e-07 0.0295791V2.26507C0.211923 2.24785 0.422816 2.21964 0.631832 2.18055V-5.15854e-06C0.417009 0.0168983 0.206399 0.0295791 5.14186e-07 0.0295791Z" fill="#D9B77A"/>
</g>
<g style="mix-blend-mode:multiply" opacity="0.5" transform="translate(76.062 18.9951)">
<path d="M19.61 -2.06342e-06C19.1593 0.0507084 18.7675 0.109872 18.439 0.17326L18.2873 0.207062L18.1315 0.236646C15.5074 0.744372 13.0819 1.99183 11.1392 3.83287C10.6674 4.28926 10.2336 4.7203 9.81657 5.13866C7.28924 7.67419 5.60436 9.32651 2.65581 9.93926C2.65503 9.82017 2.64375 9.70138 2.62211 9.58428C2.44941 8.71375 1.73333 8.11791 1.02147 8.25736C0.309605 8.39682 -0.132676 9.21663 0.0358127 10.0872C0.0920551 10.3891 0.222335 10.6723 0.414909 10.9112H0.393847L0.503368 11.0042C0.679906 11.1902 0.904482 11.3233 1.15205 11.3887C2.1524 11.838 3.27003 11.9536 4.34069 11.7184C5.94889 11.3377 7.43266 10.5491 8.64978 9.42792C13.4391 5.34573 16.8215 4.14135 18.9486 3.58776C19.155 3.55818 19.3699 3.53284 19.6142 3.50748L19.61 -2.06342e-06Z" fill="#C1995A"/>
</g>
<g style="mix-blend-mode:multiply" transform="translate(79.4297 28.5669)">
<path d="M3.08511e-06 2.26507C0.211397 2.26011 0.422343 2.24318 0.631835 2.21436V0.101425C0.635893 0.0677407 0.635893 0.0336798 0.631835 -4.64269e-06C0.433861 0.0718352 0.210611 0.13945 0.0168491 0.198612L3.08511e-06 2.26507Z" fill="#D9B77A"/>
</g>
<path d="M0.627617 3.69344C0.627621 3.73487 0.619422 3.77588 0.603495 3.8141C0.587568 3.85232 0.56423 3.88698 0.534838 3.91607C0.505446 3.94517 0.470589 3.96811 0.432284 3.98357C0.393979 3.99904 0.352988 4.00671 0.311701 4.00615C0.270767 4.00615 0.23024 3.99808 0.192423 3.98236C0.154605 3.96665 0.12024 3.9436 0.0912952 3.91456C0.0623509 3.88553 0.0393894 3.85105 0.0237248 3.81311C0.00806022 3.77517 1.54256e-06 3.73451 1.54256e-06 3.69344V0.312743C1.54256e-06 0.229806 0.0328395 0.150268 0.0912952 0.0916225C0.149751 0.0329772 0.229032 3.26836e-05 0.311701 3.26836e-05C0.352988 -0.000527104 0.393979 0.00714962 0.432284 0.0226142C0.470589 0.0380788 0.505446 0.0610195 0.534838 0.0901137C0.56423 0.119208 0.587568 0.153867 0.603495 0.192085C0.619422 0.230303 0.627621 0.271319 0.627617 0.312743V3.69344Z" transform="translate(79.5729 28.3516)" fill="#D9B77A"/>
<path d="M7.71256 0.0338127V-1.54756e-06H7.3124H6.89118V0.0338127L1.02837e-06 0.312709C1.02837e-06 0.312709 1.60064 1.88052 2.40096 1.88052H12.1817C12.982 1.88052 14.5827 0.312709 14.5827 0.312709L7.71256 0.0338127Z" transform="translate(72.7407 51.4165)" fill="#D9B77A"/>
<g style="mix-blend-mode:multiply" opacity="0.8" transform="translate(72.7407 51.4165)">
<path d="M14.5911 0.312709L7.71256 0.0338127V-1.54756e-06H7.3124H6.89118V0.0338127L1.02837e-06 0.312709L0.261156 0.557817H14.3215L14.5911 0.312709Z" fill="#D9B77A"/>
</g>
<path d="M-7.71279e-07 19.3968C-7.71279e-07 19.4897 0.0505434 19.5616 0.109514 19.5616C0.172698 19.5616 0.219036 19.4897 0.219036 19.3968V0.16481C0.219036 0.0760668 0.172698 -5.15854e-06 0.109514 -5.15854e-06C0.0505434 -5.15854e-06 -7.71279e-07 0.0760668 -7.71279e-07 0.16481V19.3968Z" transform="translate(79.6824 31.8545)" fill="#D9B77A"/>
<path d="M0.0121077 19.4813C-0.0173778 19.5658 0.0121084 19.6503 0.0458061 19.6672C0.0921404 19.6884 0.159534 19.6334 0.18902 19.5447L7.23605 0.185944C7.26975 0.101427 7.23605 0.0169081 7.20656 4.64269e-06C7.15602 4.64269e-06 7.09284 0.0380282 7.05914 0.122546L0.0121077 19.4813Z" transform="translate(72.5938 31.8252)" fill="#D9B77A"/>
<path d="M7.17375 19.5055C7.20745 19.59 7.27063 19.6449 7.31696 19.628C7.3633 19.628 7.37172 19.5308 7.34223 19.4463L0.181476 0.12561C0.147778 0.0410921 0.0888064 -0.0138479 0.0424721 0.00305562C-0.00386222 0.00305562 -0.0122856 0.100248 0.0171999 0.184765L7.17375 19.5055Z" transform="translate(79.9095 31.8306)" fill="#D9B77A"/>
<path d="M0.648677 3.69767C0.649235 3.73909 0.641583 3.78021 0.626168 3.81864C0.610754 3.85707 0.587887 3.89204 0.558887 3.92153C0.529887 3.95102 0.49534 3.97443 0.457245 3.99041C0.419151 4.00639 0.378268 4.01462 0.336977 4.01462C0.253916 4.01462 0.174194 3.98181 0.115068 3.92328C0.0559415 3.86476 0.0221691 3.78522 0.0210616 3.70189L5.67527e-06 0.321191C-2.32297e-05 0.237457 0.0325339 0.15702 0.0907595 0.097027C0.148985 0.0370338 0.22827 0.00223712 0.311705 3.35921e-05C0.353349 -0.000534903 0.394687 0.00727552 0.433271 0.023002C0.471856 0.0387285 0.506904 0.062053 0.536353 0.0915977C0.565802 0.121142 0.589051 0.156304 0.604727 0.195013C0.620402 0.233723 0.628188 0.275196 0.627621 0.316974L0.648677 3.69767Z" transform="translate(111.063 21.6831)" fill="#D9B77A"/>
<path d="M7.70834 0.0338044V3.09512e-06H7.30819H6.88697V0.0338044L0 0.354975C0 0.354975 1.60906 1.91432 2.40938 1.91009L6.8996 1.88474H7.69992L12.1901 1.85939C12.9905 1.85939 14.5827 0.274682 14.5827 0.274682L7.70834 0.0338044Z" transform="translate(104.358 44.752)" fill="#D9B77A"/>
<g style="mix-blend-mode:multiply" transform="translate(104.358 44.769)">
<path d="M14.6037 0.270456L7.70834 0.033808V-6.19025e-06H7.30819H6.88697V0.033808L0 0.354979L0.130578 0.47752L14.4521 0.39301L14.6037 0.270456Z" fill="#D9B77A"/>
</g>
<path d="M0.109763 19.3968C0.109763 19.4897 0.160314 19.5616 0.219285 19.5616C0.282468 19.5616 0.328793 19.4855 0.328793 19.3968L0.215068 0.164806C0.215068 0.0760627 0.164518 3.61098e-06 0.105547 3.61098e-06C0.0465759 3.61098e-06 -0.00397061 0.0760668 0.000241601 0.169036L0.109763 19.3968Z" transform="translate(111.198 25.1948)" fill="#D9B77A"/>
<path d="M0.0121084 19.5236C-0.017377 19.6081 0.0121092 19.6926 0.0458069 19.7095C0.0921412 19.7306 0.159535 19.6715 0.189021 19.5869L7.12232 0.18594C7.1518 0.101423 7.12232 0.016904 7.08862 5.15854e-07C7.04229 5.15854e-07 6.97911 0.038037 6.94541 0.122555L0.0121084 19.5236Z" transform="translate(104.219 25.165)" fill="#D9B77A"/>
<path d="M7.26826 19.4505C7.30195 19.5351 7.36513 19.59 7.41147 19.5731C7.4578 19.5731 7.46623 19.4717 7.41147 19.3871L0.183315 0.125601C0.149617 0.0410839 0.0864395 -0.0138432 0.0443174 0.00306027C-0.00201695 0.00306027 -0.0146654 0.104482 0.0190323 0.189L7.26826 19.4505Z" transform="translate(111.44 25.166)" fill="#D9B77A"/>
<path d="M0.798214 0.442593C0.803953 0.498487 0.797929 0.554963 0.780539 0.608375C0.763148 0.661788 0.73478 0.710942 0.69726 0.75266C0.65974 0.794378 0.613907 0.827728 0.56273 0.850556C0.511552 0.873384 0.456165 0.885182 0.400157 0.885182C0.344149 0.885182 0.288768 0.873384 0.237591 0.850556C0.186413 0.827728 0.14058 0.794378 0.10306 0.75266C0.0655405 0.710942 0.0371719 0.661788 0.0197815 0.608375C0.00239117 0.554963 -0.00363233 0.498487 0.0021064 0.442593C-0.00363233 0.386699 0.00239117 0.330223 0.0197815 0.27681C0.0371719 0.223398 0.0655405 0.174244 0.10306 0.132526C0.14058 0.0908078 0.186413 0.0574573 0.237591 0.0346296C0.288768 0.0118018 0.344149 2.89388e-06 0.400157 2.89388e-06C0.456165 2.89388e-06 0.511552 0.0118018 0.56273 0.0346296C0.613907 0.0574573 0.65974 0.0908078 0.69726 0.132526C0.73478 0.174244 0.763148 0.223398 0.780539 0.27681C0.797929 0.330223 0.803953 0.386699 0.798214 0.442593Z" transform="translate(95.2402 20.5093)" fill="#F4D8AB"/>
<path d="M15.2061 0.312713C15.2061 0.39565 15.1732 0.475189 15.1148 0.533834C15.0563 0.592479 14.977 0.625424 14.8944 0.625424H0.311706C0.270773 0.625424 0.230239 0.617346 0.192422 0.60163C0.154604 0.585915 0.120239 0.562872 0.0912942 0.533834C0.0623499 0.504796 0.0393948 0.470332 0.0237302 0.432391C0.00806562 0.394451 5.14186e-07 0.35378 5.14186e-07 0.312713C5.14186e-07 0.271647 0.00806562 0.230988 0.0237302 0.193048C0.0393948 0.155108 0.0623499 0.120631 0.0912942 0.0915924C0.120239 0.0625542 0.154604 0.0395246 0.192422 0.0238092C0.230239 0.00809385 0.270773 2.57927e-06 0.311706 2.57927e-06H14.8944C14.977 2.57927e-06 15.0563 0.0329471 15.1148 0.0915924C15.1732 0.150238 15.2061 0.229776 15.2061 0.312713Z" transform="translate(72.4374 51.1035)" fill="#F4D8AB"/>
<path d="M15.2061 0.312715C15.2061 0.394925 15.1738 0.473828 15.1163 0.532353C15.0587 0.590878 14.9805 0.624315 14.8986 0.625426L0.315917 0.714179C0.232856 0.714186 0.153133 0.681374 0.0940073 0.622847C0.0348812 0.56432 0.00110877 0.484778 1.28546e-06 0.401455C1.28546e-06 0.318518 0.0328392 0.23898 0.091295 0.180334C0.149751 0.121689 0.229032 0.0887444 0.311701 0.0887444L14.8944 4.64269e-06C14.977 4.64269e-06 15.0563 0.0329491 15.1148 0.0915945C15.1732 0.15024 15.2061 0.229778 15.2061 0.312715Z" transform="translate(104.063 44.397)" fill="#F4D8AB"/>
<path d="M3.33607 0.625435C3.33607 0.971957 3.19285 1.25086 3.02015 1.25086H0.315915C0.143214 1.25086 -7.71279e-07 0.971957 -7.71279e-07 0.625435C-7.71279e-07 0.278913 0.143214 1.03171e-06 0.315915 1.03171e-06H3.02015C3.19285 1.03171e-06 3.33607 0.278913 3.33607 0.625435Z" transform="translate(94.0039 41.8447)" fill="#C1995A"/>
<g style="mix-blend-mode:multiply" transform="translate(95.2086 20.5591)">
<path d="M0.463345 3.09512e-06H0.421221C0.309506 3.09512e-06 0.202366 0.0445188 0.123372 0.123769C0.0443777 0.20302 -5.14186e-07 0.310513 -5.14186e-07 0.422591C-5.14186e-07 0.534668 0.0443777 0.642148 0.123372 0.721399C0.202366 0.80065 0.309506 0.845178 0.421221 0.845178H0.463345V3.09512e-06Z" fill="#F4D8AB"/>
</g>
<g style="mix-blend-mode:multiply" opacity="0.4" transform="translate(72.4374 51.1035)">
<path d="M7.35452 2.57927e-06H0.311706C0.229037 2.57927e-06 0.14975 0.0329471 0.0912942 0.0915925C0.0328385 0.150238 5.14186e-07 0.229776 5.14186e-07 0.312713C5.14186e-07 0.39565 0.0328385 0.475189 0.0912942 0.533834C0.14975 0.592479 0.229037 0.625424 0.311706 0.625424C0.311706 0.625424 1.91235 2.19323 2.71267 2.19323H7.3461L7.35452 2.57927e-06Z" fill="#D9B77A"/>
</g>
<g style="mix-blend-mode:multiply" opacity="0.5" transform="translate(104.063 44.4434)">
<path d="M7.35873 -1.54756e-06L0.311701 0.0422598C0.229032 0.0422598 0.149751 0.0752043 0.091295 0.13385C0.0328392 0.192495 1.28546e-06 0.272033 1.28546e-06 0.35497C0.00110877 0.438294 0.0348812 0.517835 0.0940073 0.576362C0.153133 0.634889 0.232856 0.667701 0.315917 0.667694C0.315917 0.667694 1.92498 2.22704 2.7253 2.22281L7.21551 2.19746H7.35873V-1.54756e-06Z" fill="#D9B77A"/>
</g>
</svg>
