<svg width="15" height="15" viewBox="0 0 15 15" fill="none" xmlns="http://www.w3.org/2000/svg">
<path d="M14.3233 11.3092C14.3536 11.542 14.2827 11.7444 14.1109 11.9164L12.0932 13.9201C12.0022 14.0213 11.8834 14.1074 11.7368 14.1782C11.5901 14.2491 11.446 14.2946 11.3045 14.3148C11.2944 14.3148 11.264 14.3174 11.2134 14.3225C11.1629 14.3275 11.0971 14.3301 11.0162 14.3301C10.824 14.3301 10.513 14.2972 10.0832 14.2314C9.65335 14.1656 9.12747 14.0036 8.50554 13.7456C7.88346 13.4876 7.17807 13.1004 6.38924 12.5844C5.60041 12.0683 4.76096 11.3598 3.87097 10.4591C3.16303 9.76084 2.57644 9.09292 2.11122 8.45537C1.646 7.81778 1.2718 7.22829 0.988621 6.68686C0.705418 6.14544 0.493034 5.65461 0.351445 5.21439C0.209855 4.77416 0.113777 4.39466 0.0632095 4.07587C0.0126419 3.75709 -0.00758514 3.50662 0.00252838 3.32446C0.0126419 3.14229 0.0176987 3.04109 0.0176987 3.02085C0.0379257 2.87917 0.0834365 2.73496 0.154231 2.58822C0.225026 2.44148 0.310991 2.32256 0.412126 2.23148L2.42977 0.212522C2.57136 0.0708408 2.73318 -1.59672e-10 2.91522 -1.59672e-10C3.0467 -1.59672e-10 3.163 0.0379504 3.26414 0.113851C3.36527 0.189752 3.45124 0.283363 3.52203 0.394684L5.14525 3.47626C5.23627 3.63818 5.26156 3.81528 5.2211 4.00756C5.18065 4.19984 5.09468 4.36177 4.96321 4.49333L4.21986 5.23716C4.19964 5.2574 4.18194 5.29029 4.16677 5.33583C4.1516 5.38137 4.14401 5.41932 4.14401 5.44968C4.18447 5.6622 4.27549 5.90508 4.41708 6.17833C4.53844 6.42121 4.72554 6.71722 4.97838 7.06637C5.23122 7.41551 5.59025 7.81776 6.05547 8.27316C6.51058 8.73874 6.91512 9.10048 7.26909 9.35859C7.62299 9.61656 7.91891 9.80639 8.15658 9.92783C8.39424 10.0493 8.57629 10.1226 8.70268 10.1479L8.89226 10.1858C8.91249 10.1858 8.94543 10.1782 8.99089 10.1631C9.0364 10.1479 9.06927 10.1302 9.08952 10.1099L9.9542 9.22946C10.1363 9.06757 10.3486 8.98661 10.5914 8.98661C10.7634 8.98661 10.8998 9.01694 11.001 9.07769H11.0161L13.9439 10.8082C14.1564 10.9399 14.2828 11.1068 14.3233 11.3092Z" transform="translate(0 0.359375)" fill="#010002"/>
</svg>
