<svg width="144" height="96" viewBox="0 0 144 96" fill="none" xmlns="http://www.w3.org/2000/svg">
<path d="M20.5359 6C22.0755 3.33333 25.9245 3.33333 27.4641 6L41.3205 30C42.8601 32.6667 40.9356 36 37.8564 36H10.1436C7.06439 36 5.13989 32.6667 6.67949 30L20.5359 6Z" transform="translate(96 96) rotate(180)" fill="#0A8DEC"/>
<path d="M20.5359 6C22.0755 3.33333 25.9245 3.33333 27.4641 6L41.3205 30C42.8601 32.6667 40.9356 36 37.8564 36H10.1436C7.06439 36 5.13989 32.6667 6.67949 30L20.5359 6Z" transform="translate(48 48) rotate(180)" fill="#C4C4C4"/>
<path d="M20.5359 6C22.0755 3.33333 25.9245 3.33333 27.4641 6L41.3205 30C42.8601 32.6667 40.9356 36 37.8564 36H10.1436C7.06439 36 5.13989 32.6667 6.67949 30L20.5359 6Z" transform="translate(144 48) rotate(180)" fill="#C4C4C4"/>
</svg>
