<svg width="46" height="46" viewBox="0 0 46 46" fill="none" xmlns="http://www.w3.org/2000/svg">
<path d="M49.3438 25.6875H46.25C45.9583 25.6875 45.6979 25.75 45.4688 25.875C45.2396 26 45.0104 26.2396 44.7812 26.5938C44.5521 26.9271 44.3125 27.3958 44.0625 28C43.8125 28.6042 43.5208 29.3958 43.1875 30.375L30.125 68H23.7188L10.0938 28.7812C9.88542 28.1771 9.61458 27.6771 9.28125 27.2812C8.96875 26.8646 8.625 26.5417 8.25 26.3125C7.89583 26.0833 7.53125 25.9271 7.15625 25.8438C6.78125 25.7396 6.4375 25.6875 6.125 25.6875H4.65625V22.3125H25.7812V25.6875H22.8438C22.5312 25.6875 22.2292 25.7292 21.9375 25.8125C21.6458 25.875 21.375 25.9896 21.125 26.1562C20.8958 26.3229 20.7083 26.5417 20.5625 26.8125C20.4167 27.0833 20.3438 27.4167 20.3438 27.8125C20.3438 28.2292 20.4062 28.7083 20.5312 29.25C20.6562 29.7708 20.7812 30.2083 20.9062 30.5625L27.4375 50.2812C27.6042 50.7604 27.7708 51.3229 27.9375 51.9688C28.125 52.6146 28.3021 53.2917 28.4688 54C28.6354 54.7083 28.7812 55.4167 28.9062 56.125C29.0521 56.8125 29.1562 57.4479 29.2188 58.0312C29.2812 57.6771 29.3854 57.1979 29.5312 56.5938C29.6979 55.9688 29.8854 55.3021 30.0938 54.5938C30.3021 53.8646 30.5104 53.1458 30.7188 52.4375C30.9479 51.7083 31.1562 51.0521 31.3438 50.4688L37.9375 31C38.0208 30.7708 38.1042 30.5208 38.1875 30.25C38.2917 29.9583 38.375 29.6667 38.4375 29.375C38.5208 29.0833 38.5833 28.8021 38.625 28.5312C38.6875 28.2604 38.7188 28.0417 38.7188 27.875C38.7188 27.1667 38.4792 26.625 38 26.25C37.5417 25.875 36.9271 25.6875 36.1562 25.6875H32.8125V22.3125H49.3438V25.6875Z" transform="translate(-4 -22)" fill="#0A8DEC"/>
</svg>
