<svg width="69" height="46" viewBox="0 0 69 46" fill="none" xmlns="http://www.w3.org/2000/svg">
<path d="M50 25.6875H46.9062C46.6146 25.6875 46.3542 25.75 46.125 25.875C45.8958 26 45.6667 26.2396 45.4375 26.5938C45.2083 26.9271 44.9688 27.3958 44.7188 28C44.4688 28.6042 44.1771 29.3958 43.8438 30.375L30.7812 68H24.375L10.75 28.7812C10.5417 28.1771 10.2708 27.6771 9.9375 27.2812C9.625 26.8646 9.28125 26.5417 8.90625 26.3125C8.55208 26.0833 8.1875 25.9271 7.8125 25.8438C7.4375 25.7396 7.09375 25.6875 6.78125 25.6875H5.3125V22.3125H26.4375V25.6875H23.5C23.1875 25.6875 22.8854 25.7292 22.5938 25.8125C22.3021 25.875 22.0312 25.9896 21.7812 26.1562C21.5521 26.3229 21.3646 26.5417 21.2188 26.8125C21.0729 27.0833 21 27.4167 21 27.8125C21 28.2292 21.0625 28.7083 21.1875 29.25C21.3125 29.7708 21.4375 30.2083 21.5625 30.5625L28.0938 50.2812C28.2604 50.7604 28.4271 51.3229 28.5938 51.9688C28.7812 52.6146 28.9583 53.2917 29.125 54C29.2917 54.7083 29.4375 55.4167 29.5625 56.125C29.7083 56.8125 29.8125 57.4479 29.875 58.0312C29.9375 57.6771 30.0417 57.1979 30.1875 56.5938C30.3542 55.9688 30.5417 55.3021 30.75 54.5938C30.9583 53.8646 31.1667 53.1458 31.375 52.4375C31.6042 51.7083 31.8125 51.0521 32 50.4688L38.5938 31C38.6771 30.7708 38.7604 30.5208 38.8438 30.25C38.9479 29.9583 39.0312 29.6667 39.0938 29.375C39.1771 29.0833 39.2396 28.8021 39.2812 28.5312C39.3438 28.2604 39.375 28.0417 39.375 27.875C39.375 27.1667 39.1354 26.625 38.6562 26.25C38.1979 25.875 37.5833 25.6875 36.8125 25.6875H33.4688V22.3125H50V25.6875ZM51.7812 68V64.5938H54.4688C54.9479 64.5938 55.3854 64.5521 55.7812 64.4688C56.1771 64.3646 56.5208 64.1667 56.8125 63.875C57.1042 63.5833 57.3333 63.1667 57.5 62.625C57.6667 62.0833 57.75 61.3542 57.75 60.4375V29.875C57.75 28.9583 57.6667 28.2292 57.5 27.6875C57.3333 27.1458 57.1042 26.7292 56.8125 26.4375C56.5208 26.1458 56.1771 25.9583 55.7812 25.875C55.3854 25.7708 54.9479 25.7188 54.4688 25.7188H51.7812V22.3125H73.875V25.7188H71.1875C70.7292 25.7188 70.2917 25.7708 69.875 25.875C69.4792 25.9583 69.1354 26.1458 68.8438 26.4375C68.5521 26.7292 68.3229 27.1458 68.1562 27.6875C67.9896 28.2292 67.9062 28.9583 67.9062 29.875V60.4375C67.9062 61.3542 67.9896 62.0833 68.1562 62.625C68.3229 63.1667 68.5521 63.5833 68.8438 63.875C69.1354 64.1667 69.4792 64.3646 69.875 64.4688C70.2917 64.5521 70.7292 64.5938 71.1875 64.5938H73.875V68H51.7812Z" transform="translate(-5 -22)" fill="#0A8DEC"/>
</svg>
